%FSDAX24Y24*%
%MOIN*%
%SFA1B1*%

%IPPOS*%
%ADD12R,0.106300X0.063000*%
%ADD13R,0.043300X0.039400*%
%ADD14R,0.039400X0.043300*%
%ADD15R,0.051200X0.059100*%
%ADD16R,0.059100X0.051200*%
%ADD17R,0.082700X0.072800*%
%ADD18R,0.057100X0.021700*%
%ADD19R,0.072800X0.082700*%
%ADD45C,0.031500*%
%ADD46C,0.393700*%
%ADD47R,0.059100X0.059100*%
%ADD48C,0.059100*%
%ADD49R,0.059100X0.059100*%
%ADD50R,0.066900X0.066900*%
%ADD51C,0.066900*%
%ADD52C,0.060000*%
%ADD53R,0.063000X0.106300*%
%ADD54R,0.027600X0.055100*%
%ADD55R,0.027600X0.051200*%
%ADD56O,0.080700X0.023600*%
%ADD57R,0.086600X0.129900*%
%ADD58R,0.086600X0.039400*%
%LNde-180417-1*%
%LPD*%
G54D12*
X028150Y023349D03*
Y024451D03*
Y022501D03*
Y021399D03*
G54D13*
X023865Y020910D03*
X024535D03*
X060485Y039150D03*
X059815D03*
X023865Y021536D03*
X024535D03*
G54D14*
X030640Y028835D03*
Y028165D03*
X030030D03*
Y028835D03*
X026450Y028365D03*
Y027695D03*
X056300Y031800D03*
Y032470D03*
Y029983D03*
Y030652D03*
Y028165D03*
Y028835D03*
G54D15*
X060524Y039850D03*
X059776D03*
X021716Y028680D03*
X022464D03*
X023206D03*
X023954D03*
G54D16*
X020900Y027946D03*
Y028694D03*
X027840Y034706D03*
Y035454D03*
X027850Y033994D03*
Y033246D03*
X026510Y033496D03*
Y034244D03*
X025440Y036016D03*
Y036764D03*
G54D17*
X035256Y028500D03*
X033444D03*
G54D18*
X024859Y020140D03*
X023934D03*
Y022380D03*
X024859D03*
G54D19*
X020300Y030344D03*
Y032156D03*
X032050Y030356D03*
Y028544D03*
X025120Y026704D03*
Y028516D03*
G54D45*
X025150Y019650D03*
X023800D03*
X020600Y032850D03*
X020300Y029650D03*
X024650Y037300D03*
X025650Y029300D03*
X064050Y035400D03*
X055550Y036300D03*
X062657Y033323D03*
X067972Y030255D03*
X062657Y027186D03*
X062050Y037000D03*
X056300Y033050D03*
Y031233D03*
Y029415D03*
X029700Y023675D03*
Y022900D03*
Y022125D03*
Y021350D03*
X030600D03*
Y022125D03*
Y022900D03*
Y023675D03*
X048000Y021600D03*
X050350Y020350D03*
X045900Y027300D03*
X043100Y031187D03*
X044350Y028150D03*
Y022550D03*
X042250Y032600D03*
X047600D03*
X042250Y031187D03*
X047200D03*
X043315Y026750D03*
X042400Y024450D03*
X051200Y023050D03*
Y028350D03*
Y034000D03*
X046450Y029900D03*
X046724Y035300D03*
X047850Y023070D03*
X028750Y035450D03*
X030150Y026330D03*
X031450Y036150D03*
X025530Y025690D03*
X030340Y025060D03*
X025940Y023560D03*
X025950Y020900D03*
X025144Y022024D03*
X027050Y027050D03*
X028773Y025577D03*
X046550Y028500D03*
X046549Y027300D03*
X046550Y029050D03*
X040650Y034020D03*
X056450Y041050D03*
X071280Y039670D03*
X072250Y021950D03*
X058650Y021395D03*
G54D46*
X021750Y025150D03*
X034250D03*
Y031830D03*
G54D47*
X026500Y036850D03*
Y019120D03*
X044290Y036830D03*
X044310Y019120D03*
X062880Y038670D03*
X062900Y020920D03*
G54D48*
X026500Y037850D03*
X027500Y036850D03*
Y037850D03*
X028500Y036850D03*
Y037850D03*
X029500Y036850D03*
Y037850D03*
X026500Y020120D03*
X027500Y019120D03*
Y020120D03*
X028500Y019120D03*
Y020120D03*
X029500Y019120D03*
Y020120D03*
X049200Y024050D03*
Y023050D03*
X044290Y037830D03*
X045290Y036830D03*
Y037830D03*
X046290Y036830D03*
Y037830D03*
X047290Y036830D03*
Y037830D03*
X044310Y020120D03*
X045310Y019120D03*
Y020120D03*
X046310Y019120D03*
Y020120D03*
X047310Y019120D03*
Y020120D03*
X038350Y029250D03*
Y028250D03*
X062880Y039670D03*
X063880Y038670D03*
Y039670D03*
X064880Y038670D03*
Y039670D03*
X065880Y038670D03*
Y039670D03*
X062900Y021920D03*
X063900Y020920D03*
Y021920D03*
X064900Y020920D03*
Y021920D03*
X065900Y020920D03*
Y021920D03*
X057850Y036000D03*
Y037000D03*
Y038000D03*
Y039000D03*
X067750Y039650D03*
G54D49*
X049200Y022050D03*
X038350Y027250D03*
X057850Y035000D03*
X067750Y038650D03*
G54D50*
X029180Y028360D03*
G54D51*
X028180Y028360D03*
X027180D03*
G54D52*
X068000Y022900D03*
Y021900D03*
Y020900D03*
G54D53*
X027051Y022850D03*
X025949D03*
X027051Y024250D03*
X025949D03*
X027061Y021600D03*
X025959D03*
G54D54*
X027641Y025380D03*
X026459D03*
G54D55*
X027050Y025360D03*
G54D56*
X059245Y037000D03*
Y037500D03*
Y038000D03*
Y038500D03*
X061155Y037000D03*
Y037500D03*
Y038000D03*
Y038500D03*
G54D57*
X022119Y031070D03*
X022919Y034220D03*
G54D58*
X024481Y030164D03*
Y031070D03*
Y031976D03*
X025281Y033314D03*
Y034220D03*
Y035126D03*
M02*