%FSDAX24Y24*%
%MOIN*%
%SFA1B1*%

%IPPOS*%
%ADD69C,0.003900*%
%ADD107C,0.002000*%
%LNde-180417-1*%
%LPD*%
G54D69*
X028303Y030700D02*
X028697D01*
X028500Y030503D02*
Y030897D01*
X027411Y025222D02*
X028789D01*
X027411Y026758D02*
X028789D01*
X027411Y025222D02*
Y026758D01*
X028789Y025222D02*
Y026758D01*
X028100Y025793D02*
Y026187D01*
X027903Y025990D02*
X028297D01*
X045887Y034754D02*
X047265D01*
X045887Y033219D02*
X047265D01*
Y034754*
X045887Y033219D02*
Y034754D01*
X046576Y033790D02*
Y034183D01*
X046379Y033987D02*
X046773D01*
X028180Y028163D02*
Y028557D01*
X027983Y028360D02*
X028377D01*
X044387Y034754D02*
X045765D01*
X044387Y033219D02*
X045765D01*
Y034754*
X044387Y033219D02*
Y034754D01*
X045076Y033790D02*
Y034183D01*
X044879Y033987D02*
X045273D01*
X044387Y033104D02*
X045765D01*
X044387Y031569D02*
X045765D01*
Y033104*
X044387Y031569D02*
Y033104D01*
X045076Y032140D02*
Y032533D01*
X044879Y032337D02*
X045273D01*
X028861Y025132D02*
X030239D01*
X028861Y026668D02*
X030239D01*
X028861Y025132D02*
Y026668D01*
X030239Y025132D02*
Y026668D01*
X029550Y025703D02*
Y026097D01*
X029353Y025900D02*
X029747D01*
X043718Y029111D02*
Y030489D01*
X042182Y029111D02*
Y030489D01*
Y029111D02*
X043718D01*
X042182Y030489D02*
X043718D01*
X042753Y029800D02*
X043147D01*
X042950Y029603D02*
Y029997D01*
X037982Y030311D02*
Y031689D01*
X039518Y030311D02*
Y031689D01*
X037982D02*
X039518D01*
X037982Y030311D02*
X039518D01*
X038553Y031000D02*
X038947D01*
X038750Y030803D02*
Y031197D01*
X045900Y024603D02*
Y024997D01*
X045703Y024800D02*
X046097D01*
X027050Y025892D02*
Y026285D01*
X026853Y026088D02*
X027247D01*
X060200Y037553D02*
Y037947D01*
X060003Y037750D02*
X060397D01*
X023300Y030873D02*
Y031267D01*
X023103Y031070D02*
X023497D01*
X021587Y029653D02*
X025013D01*
X021587Y032487D02*
X025013D01*
X021587Y029653D02*
Y032487D01*
X025013Y029653D02*
Y032487D01*
X024100Y034023D02*
Y034417D01*
X023903Y034220D02*
X024297D01*
X022387Y032803D02*
X025813D01*
X022387Y035637D02*
X025813D01*
X022387Y032803D02*
Y035637D01*
X025813Y032803D02*
Y035637D01*
G54D107*
X026506Y029511D02*
Y031889D01*
X030494Y029511D02*
Y031889D01*
X026506D02*
X030494D01*
X026506Y029511D02*
X030494D01*
X026054Y029317D02*
X030306D01*
X026054Y027210D02*
X030306D01*
Y029317*
X026054Y027210D02*
Y029317D01*
X044502Y026365D02*
X047298D01*
X044502Y023235D02*
X047298D01*
Y026365*
X044502Y023235D02*
Y026365D01*
X026046Y025006D02*
X028054D01*
X026046Y026974D02*
X028054D01*
Y025006D02*
Y026974D01*
X026046Y025006D02*
Y026974D01*
X058743Y036687D02*
X061657D01*
X058743Y038813D02*
X061657D01*
X058743Y036687D02*
Y038813D01*
X061657Y036687D02*
Y038813D01*
M02*