%FSDAX24Y24*%
%MOIN*%
%SFA1B1*%

%IPPOS*%
%ADD10C,0.059100*%
%ADD11C,0.008000*%
%ADD12R,0.106300X0.063000*%
%ADD13R,0.043300X0.039400*%
%ADD14R,0.039400X0.043300*%
%ADD15R,0.051200X0.059100*%
%ADD16R,0.059100X0.051200*%
%ADD17R,0.082700X0.072800*%
%ADD18R,0.057100X0.021700*%
%ADD19R,0.072800X0.082700*%
%ADD20R,0.110000X0.150000*%
%ADD21R,0.021700X0.057100*%
%ADD22R,0.031500X0.031500*%
%ADD23R,0.023600X0.051200*%
%ADD24R,0.051200X0.023600*%
%ADD25R,0.063000X0.133900*%
%ADD26R,0.061000X0.043300*%
%ADD27R,0.061000X0.043300*%
%ADD28R,0.061000X0.135800*%
%ADD29O,0.013800X0.070900*%
%ADD30R,0.059800X0.024000*%
%ADD31O,0.059800X0.024000*%
%ADD32C,0.039400*%
%ADD33C,0.010000*%
%ADD34C,0.020000*%
%ADD35C,0.050000*%
%ADD36C,0.030000*%
%ADD37C,0.015000*%
%ADD38R,0.075000X0.170000*%
%ADD39R,0.105000X0.180000*%
%ADD40R,0.070000X0.060000*%
%ADD41R,0.135000X0.090000*%
%ADD42R,0.235000X0.325000*%
%ADD43R,0.057500X0.121000*%
%ADD44R,0.166000X0.080000*%
%ADD45C,0.031500*%
%ADD46C,0.393700*%
%ADD47R,0.059100X0.059100*%
%ADD48C,0.059100*%
%ADD49R,0.059100X0.059100*%
%ADD50R,0.066900X0.066900*%
%ADD51C,0.066900*%
%ADD52C,0.060000*%
%LNde-180417-1*%
%LPD*%
G36*
X064815Y034177D02*
X065198Y034121D01*
X065448Y034058*
X064684Y031206*
X064622Y031225*
X064429Y031244*
X064236Y031225*
X064050Y031168*
X063879Y031077*
X063729Y030954*
X063606Y030804*
X063515Y030633*
X063478Y030510*
Y030509*
Y030510*
X060625Y031274*
X060657Y031399*
X060787Y031763*
X060952Y032113*
X061151Y032445*
X061382Y032755*
X061642Y033042*
X061928Y033302*
X062239Y033532*
X062571Y033731*
X062920Y033896*
X063285Y034027*
X063660Y034121*
X064042Y034177*
X064429Y034196*
X064815Y034177*
G37*
G36*
X067216Y033042D02*
X067476Y032755D01*
X067706Y032445*
X067905Y032113*
X068070Y031763*
X068201Y031399*
X068295Y031024*
X068352Y030641*
X068370Y030255*
X068352Y029868*
X068295Y029486*
X068201Y029110*
X068070Y028746*
X067905Y028397*
X067706Y028065*
X067476Y027754*
X067216Y027467*
X067213Y027471*
X065128Y029555*
X065251Y029705*
X065342Y029876*
X065399Y030062*
X065418Y030255*
X065399Y030448*
X065342Y030633*
X065251Y030804*
X065128Y030954*
X067216Y033042*
G37*
G36*
X063515Y029876D02*
X063606Y029705D01*
X063729Y029555*
X063879Y029432*
X064050Y029341*
X064236Y029285*
X064429Y029266*
X064622Y029285*
X064684Y029304*
X064683*
X064684*
X065448Y026451*
X065198Y026389*
X064815Y026332*
X064429Y026313*
X064042Y026332*
X063660Y026389*
X063285Y026483*
X062920Y026613*
X062571Y026778*
X062239Y026977*
X061928Y027208*
X061642Y027467*
X061382Y027754*
X061151Y028065*
X060952Y028397*
X060787Y028746*
X060657Y029110*
X060625Y029236*
X060626*
X063478Y030000*
X063515Y029876*
G37*
G54D10*
X069568Y030300D02*
D01*
X069555Y030657*
X069518Y031012*
X069456Y031364*
X069369Y031710*
X069259Y032050*
X069125Y032381*
X068968Y032702*
X068790Y033012*
X068590Y033308*
X068370Y033589*
X068131Y033855*
X067874Y034103*
X067600Y034333*
X067311Y034543*
X067009Y034732*
X066693Y034900*
X066367Y035045*
X066031Y035167*
X065688Y035265*
X065338Y035340*
X064984Y035389*
X064628Y035414*
X064271*
X063915Y035389*
X063561Y035340*
X063211Y035265*
X062868Y035167*
X062532Y035045*
X062206Y034900*
X061890Y034732*
X061588Y034543*
X061299Y034333*
X061025Y034103*
X060768Y033855*
X060529Y033589*
X060309Y033308*
X060109Y033012*
X059931Y032702*
X059774Y032381*
X059640Y032050*
X059530Y031710*
X059443Y031364*
X059381Y031012*
X059344Y030657*
X059332Y030300*
X059344Y029942*
X059381Y029587*
X059443Y029235*
X059530Y028889*
X059640Y028549*
X059774Y028218*
X059931Y027897*
X060109Y027587*
X060309Y027291*
X060529Y027010*
X060768Y026744*
X061025Y026496*
X061299Y026266*
X061588Y026056*
X061891Y025867*
X062206Y025699*
X062532Y025554*
X062868Y025432*
X063211Y025334*
X063561Y025259*
X063915Y025210*
X064271Y025185*
X064628*
X064984Y025210*
X065338Y025259*
X065688Y025334*
X066031Y025432*
X066367Y025554*
X066693Y025699*
X067009Y025867*
X067311Y026056*
X067600Y026266*
X067874Y026496*
X068131Y026744*
X068370Y027010*
X068590Y027291*
X068790Y027587*
X068968Y027897*
X069125Y028218*
X069259Y028549*
X069369Y028889*
X069456Y029235*
X069518Y029587*
X069555Y029942*
X069568Y030300*
G54D11*
X042697Y024450D02*
D01*
X042696Y024470*
X042694Y024491*
X042690Y024511*
X042685Y024531*
X042679Y024551*
X042671Y024570*
X042662Y024589*
X042651Y024607*
X042640Y024624*
X042627Y024640*
X042613Y024656*
X042598Y024670*
X042582Y024684*
X042566Y024696*
X042548Y024707*
X042530Y024716*
X042511Y024725*
X042491Y024732*
X042471Y024738*
X042451Y024742*
X042431Y024745*
X042410Y024746*
X042389*
X042368Y024745*
X042348Y024742*
X042328Y024738*
X042308Y024732*
X042288Y024725*
X042269Y024716*
X042251Y024707*
X042233Y024696*
X042217Y024684*
X042201Y024670*
X042186Y024656*
X042172Y024640*
X042159Y024624*
X042148Y024607*
X042137Y024589*
X042128Y024570*
X042120Y024551*
X042114Y024531*
X042109Y024511*
X042105Y024491*
X042103Y024470*
X042103Y024450*
X042103Y024429*
X042105Y024408*
X042109Y024388*
X042114Y024368*
X042120Y024348*
X042128Y024329*
X042137Y024310*
X042148Y024292*
X042159Y024275*
X042172Y024259*
X042186Y024243*
X042201Y024229*
X042217Y024215*
X042233Y024203*
X042251Y024192*
X042269Y024183*
X042288Y024174*
X042308Y024167*
X042328Y024161*
X042348Y024157*
X042368Y024154*
X042389Y024153*
X042410*
X042431Y024154*
X042451Y024157*
X042471Y024161*
X042491Y024167*
X042511Y024174*
X042530Y024183*
X042548Y024192*
X042566Y024203*
X042582Y024215*
X042598Y024229*
X042613Y024243*
X042627Y024259*
X042640Y024275*
X042651Y024292*
X042662Y024310*
X042671Y024329*
X042679Y024348*
X042685Y024368*
X042690Y024388*
X042694Y024408*
X042696Y024429*
X042697Y024450*
X041212Y028800D02*
D01*
X041195Y028781*
X041179Y028761*
X041165Y028740*
X041153Y028718*
X041142Y028696*
X041132Y028673*
X041124Y028649*
X041118Y028624*
X041114Y028600*
X041111Y028575*
X041111Y028549*
X041111Y028524*
X041114Y028499*
X041118Y028475*
X041124Y028450*
X041132Y028426*
X041139Y028410*
X041291Y029362D02*
D01*
X041269Y029348*
X041249Y029333*
X041230Y029317*
X041211Y029300*
X041195Y029281*
X041179Y029261*
X041165Y029240*
X041153Y029219*
X041141Y029196*
X041132Y029173*
X041124Y029149*
X041118Y029125*
X041114Y029100*
X041111Y029075*
X041110Y029050*
X041111Y029024*
X041114Y028999*
X041118Y028975*
X041124Y028950*
X041132Y028926*
X041141Y028903*
X041152Y028880*
X041165Y028859*
X041179Y028838*
X041194Y028818*
X041211Y028799*
X041212Y028800*
X041471Y029810D02*
D01*
X041452Y029809*
X041434Y029807*
X041416Y029804*
X041399Y029799*
X041382Y029794*
X041365Y029787*
X041348Y029779*
X041333Y029770*
X041318Y029760*
X041303Y029749*
X041290Y029737*
X041277Y029723*
X041266Y029710*
X041255Y029695*
X041245Y029680*
X041237Y029663*
X041229Y029647*
X041223Y029630*
X041218Y029612*
X041214Y029595*
X041212Y029577*
X041211Y029559*
Y029540*
X041212Y029522*
X041214Y029504*
X041218Y029487*
X041223Y029469*
X041229Y029452*
X041237Y029436*
X041245Y029420*
X041255Y029404*
X041266Y029389*
X041277Y029376*
X041290Y029362*
X041291Y029362*
X041850Y027690D02*
D01*
X041875Y027680*
X041901Y027672*
X041928Y027666*
X041955Y027662*
X041963Y027662*
X042086Y029589D02*
D01*
X042082Y029606*
X042078Y029624*
X042072Y029641*
X042065Y029658*
X042057Y029674*
X042047Y029690*
X042037Y029705*
X042026Y029719*
X042013Y029732*
X042000Y029745*
X041986Y029756*
X041971Y029767*
X041956Y029776*
X041940Y029784*
X041923Y029792*
X041906Y029798*
X041889Y029802*
X041871Y029806*
X041853Y029808*
X041835Y029809*
X041829Y029810*
X042141Y029619D02*
D01*
X042122Y029610*
X042104Y029601*
X042087Y029590*
X042086Y029589*
X042141Y029619D02*
D01*
X042122Y029610*
X042104Y029601*
X042087Y029590*
X042086Y029589*
X042745Y030205D02*
D01*
X042731Y030190*
X042718Y030174*
X042706Y030157*
X042696Y030140*
X042687Y030122*
X042679Y030103*
X042672Y030084*
X042667Y030065*
X042666Y030058*
X042745Y030205D02*
D01*
X042731Y030190*
X042718Y030174*
X042706Y030157*
X042696Y030140*
X042687Y030122*
X042679Y030103*
X042672Y030084*
X042667Y030065*
X042666Y030058*
X037772Y024423D02*
D01*
X037954Y023867*
X038175Y023326*
X038432Y022802*
X038726Y022297*
X039055Y021813*
X039416Y021354*
X039808Y020921*
X040230Y020517*
X040679Y020142*
X041153Y019801*
X041649Y019493*
X042166Y019220*
X042701Y018984*
X043251Y018786*
X043775Y018637*
X044423Y020643D02*
D01*
X044386Y020649*
X044349Y020653*
X044311Y020655*
X044274Y020653*
X044237Y020650*
X044200Y020643*
X044164Y020634*
X044128Y020623*
X044094Y020609*
X044060Y020593*
X044027Y020574*
X043996Y020553*
X043967Y020531*
X043939Y020506*
X043913Y020479*
X043889Y020450*
X043867Y020420*
X043847Y020389*
X043829Y020356*
X043814Y020322*
X043801Y020287*
X043791Y020251*
X043783Y020214*
X043778Y020177*
X043775Y020140*
X043775Y020103*
X043777Y020065*
X043782Y020028*
X043790Y019992*
X043800Y019956*
X043813Y019921*
X043828Y019887*
X043845Y019854*
X043865Y019822*
X043887Y019791*
X043911Y019763*
X043937Y019736*
X043964Y019711*
X043994Y019688*
X044024Y019667*
X044044Y019655*
X044440Y023393D02*
D01*
X044440Y023371*
X044443Y023349*
X044446Y023328*
X044451Y023307*
X044458Y023287*
X044458Y023286*
X044337Y022947D02*
D01*
X044309Y022945*
X044281Y022941*
X044254Y022935*
X044228Y022928*
X044202Y022918*
X044176Y022907*
X044152Y022894*
X044128Y022879*
X044106Y022863*
X044084Y022845*
X044064Y022826*
X044046Y022805*
X044029Y022784*
X044013Y022761*
X043999Y022737*
X043987Y022712*
X043977Y022686*
X043968Y022660*
X043961Y022633*
X043956Y022606*
X043953Y022578*
X043952Y022550*
X043953Y022523*
X043956Y022495*
X043961Y022468*
X043967Y022441*
X043976Y022414*
X043986Y022389*
X043998Y022364*
X044012Y022340*
X044028Y022317*
X044045Y022295*
X044063Y022274*
X044083Y022255*
X044104Y022237*
X044127Y022221*
X044150Y022206*
X044175Y022193*
X044200Y022182*
X044226Y022172*
X044253Y022164*
X044280Y022158*
X044307Y022155*
X044335Y022153*
X044363Y022153*
X044390Y022154*
X044418Y022158*
X044445Y022164*
X044471Y022171*
X044497Y022181*
X044523Y022192*
X044547Y022205*
X044571Y022220*
X044593Y022236*
X044615Y022254*
X044635Y022273*
X044653Y022294*
X044670Y022315*
X044686Y022338*
X044700Y022362*
X044712Y022387*
X044714Y022391*
X044487Y024128D02*
D01*
X044476Y024109*
X044466Y024089*
X044458Y024069*
X044451Y024049*
X044446Y024028*
X044442Y024007*
X044440Y023985*
X044439Y023964*
X044440Y023963*
X044662Y024260D02*
D01*
X044641Y024253*
X044621Y024245*
X044602Y024235*
X044583Y024224*
X044577Y024220*
X044876Y024245D02*
D01*
X044856Y024253*
X044835Y024260*
X044835Y024260*
X044918D02*
D01*
X044897Y024253*
X044877Y024245*
X044876Y024245*
X042925Y026827D02*
D01*
X042920Y026799*
X042918Y026771*
X042917Y026744*
X042918Y026716*
X042922Y026688*
X042925Y026673*
X044213Y028523D02*
D01*
X044187Y028512*
X044162Y028500*
X044138Y028486*
X044115Y028470*
X044093Y028453*
X044073Y028435*
X044053Y028415*
X044036Y028393*
X044019Y028371*
X044005Y028347*
X043992Y028323*
X043981Y028297*
X043971Y028271*
X043964Y028245*
X043958Y028217*
X043954Y028190*
X043952Y028162*
X043952Y028134*
X043954Y028107*
X043958Y028079*
X043964Y028052*
X043972Y028026*
X043982Y028000*
X043993Y027974*
X044006Y027950*
X044021Y027926*
X044037Y027904*
X044055Y027883*
X044074Y027863*
X044095Y027844*
X044117Y027827*
X044140Y027812*
X044164Y027798*
X044189Y027786*
X044215Y027776*
X044241Y027767*
X044268Y027761*
X044295Y027756*
X044323Y027753*
X044351Y027752*
X044378Y027753*
X044406Y027756*
X044433Y027761*
X044459Y027768*
X044005Y028745D02*
D01*
X044018Y028759*
X044031Y028775*
X044043Y028792*
X044053Y028809*
X044062Y028827*
X044070Y028846*
X044077Y028865*
X044082Y028884*
X044086Y028904*
X044088Y028924*
X044089Y028944*
X044090Y028950*
X044005Y028745D02*
D01*
X044018Y028759*
X044031Y028775*
X044043Y028792*
X044053Y028809*
X044062Y028827*
X044070Y028846*
X044077Y028865*
X044082Y028884*
X044086Y028904*
X044088Y028924*
X044089Y028944*
X044090Y028950*
Y030050D02*
D01*
X044089Y030070*
X044087Y030090*
X044083Y030110*
X044078Y030129*
X044072Y030149*
X044064Y030167*
X044056Y030186*
X044045Y030203*
X044034Y030220*
X044022Y030236*
X044008Y030251*
X044005Y030255*
X044090Y030050D02*
D01*
X044089Y030070*
X044087Y030090*
X044083Y030110*
X044078Y030129*
X044072Y030149*
X044064Y030167*
X044056Y030186*
X044045Y030203*
X044034Y030220*
X044022Y030236*
X044008Y030251*
X044005Y030255*
X044441Y026239D02*
D01*
X044439Y026217*
X044440Y026207*
X044275Y027185D02*
D01*
X044274Y027205*
X044272Y027225*
X044268Y027245*
X044263Y027264*
X044257Y027284*
X044249Y027302*
X044241Y027321*
X044230Y027338*
X044219Y027355*
X044207Y027371*
X044193Y027386*
X044190Y027390*
X044275Y027185D02*
D01*
X044274Y027205*
X044272Y027225*
X044268Y027245*
X044263Y027264*
X044257Y027284*
X044249Y027302*
X044241Y027321*
X044230Y027338*
X044219Y027355*
X044207Y027371*
X044193Y027386*
X044190Y027390*
X044458Y026314D02*
D01*
X044451Y026293*
X044446Y026272*
X044442Y026251*
X044441Y026239*
X044747Y028158D02*
D01*
X044745Y028185*
X044742Y028213*
X044739Y028229*
X041660Y032800D02*
D01*
X041660Y032772*
X041663Y032745*
X041668Y032718*
X041675Y032692*
X041683Y032666*
X041693Y032641*
X041705Y032616*
X041719Y032593*
X041734Y032570*
X041751Y032549*
X041769Y032529*
X041774Y032524*
X041660Y032800D02*
D01*
X041660Y032772*
X041663Y032745*
X041668Y032718*
X041675Y032692*
X041683Y032666*
X041693Y032641*
X041705Y032616*
X041719Y032593*
X041734Y032570*
X041751Y032549*
X041769Y032529*
X041774Y032524*
X041860Y031263D02*
D01*
X041855Y031235*
X041853Y031207*
X041852Y031180*
X041853Y031152*
X041857Y031124*
X041862Y031097*
X041869Y031070*
X041878Y031044*
X041889Y031019*
X041901Y030994*
X041915Y030970*
X041931Y030947*
X041949Y030926*
X041968Y030905*
X041988Y030886*
X042009Y030869*
X042032Y030853*
X042056Y030838*
X042080Y030826*
X042106Y030815*
X042132Y030806*
X042159Y030798*
X042186Y030793*
X042214Y030790*
X042241Y030788*
X042269Y030788*
X042297Y030791*
X042324Y030795*
X042351Y030801*
X042378Y030809*
X042404Y030819*
X042429Y030831*
X042453Y030844*
X042477Y030859*
X042499Y030876*
X042520Y030894*
X042539Y030914*
X042558Y030934*
X042574Y030957*
X042590Y030980*
X042603Y031004*
X042615Y031029*
X042625Y031055*
X042633Y031081*
X042640Y031109*
X042644Y031136*
X042646Y031164*
X042647Y031187*
X041974Y031726D02*
D01*
X041955Y031706*
X041938Y031684*
X041922Y031662*
X041908Y031639*
X041896Y031614*
X041885Y031589*
X041876Y031564*
X041869Y031537*
X041864Y031511*
X041861Y031484*
X041859Y031456*
X041860Y031450*
X041974Y031726D02*
D01*
X041955Y031706*
X041938Y031684*
X041922Y031662*
X041908Y031639*
X041896Y031614*
X041885Y031589*
X041876Y031564*
X041869Y031537*
X041864Y031511*
X041861Y031484*
X041859Y031456*
X041860Y031450*
X041920Y032378D02*
D01*
X041936Y032355*
X041954Y032334*
X041973Y032314*
X041993Y032295*
X042015Y032278*
X042038Y032262*
X042062Y032249*
X042087Y032236*
X042113Y032226*
X042139Y032217*
X042166Y032211*
X042194Y032206*
X042221Y032203*
X042249Y032202*
X042277Y032203*
X042304Y032206*
X042332Y032210*
X042359Y032217*
X042385Y032226*
X042411Y032236*
X042436Y032248*
X042460Y032262*
X042483Y032277*
X042505Y032295*
X042525Y032313*
X042545Y032333*
X042563Y032354*
X042579Y032377*
X042594Y032400*
X042607Y032425*
X042618Y032450*
X042628Y032476*
X042635Y032503*
X042641Y032530*
X042645Y032557*
X042647Y032585*
X042647Y032600*
Y031187D02*
D01*
X042646Y031214*
X042643Y031242*
X042640Y031263*
X042810Y031459D02*
D01*
X042791Y031438*
X042774Y031415*
X042759Y031392*
X042746Y031368*
X042734Y031343*
X042724Y031317*
X042716Y031291*
X042709Y031263*
X042705Y031236*
X042703Y031208*
X042702Y031181*
X042703Y031153*
X042707Y031125*
X042712Y031098*
X042719Y031071*
X042728Y031045*
X042739Y031020*
X042751Y030995*
X042765Y030971*
X042781Y030948*
X042799Y030927*
X042818Y030906*
X042838Y030887*
X042859Y030870*
X042882Y030854*
X042906Y030839*
X042930Y030827*
X042956Y030816*
X042982Y030807*
X043009Y030799*
X043036Y030794*
X043064Y030791*
X043091Y030789*
X043119Y030789*
X043147Y030792*
X043174Y030796*
X043201Y030802*
X043228Y030810*
X043254Y030820*
X043279Y030832*
X043303Y030845*
X043327Y030860*
X043349Y030877*
X043370Y030895*
X043390Y030915*
X043408Y030935*
X043425Y030958*
X043440Y030981*
X043453Y031005*
X043465Y031030*
X043475Y031056*
X043483Y031082*
X043490Y031110*
X043494Y031137*
X043496Y031165*
X043497Y031174*
X043087Y031584D02*
D01*
X043059Y031582*
X043031Y031578*
X043004Y031572*
X042978Y031565*
X042952Y031555*
X042926Y031544*
X042902Y031531*
X042878Y031516*
X042856Y031500*
X042834Y031482*
X042828Y031476*
X043326Y031974D02*
D01*
X043344Y031993*
X043361Y032015*
X043377Y032037*
X043391Y032060*
X043403Y032085*
X043414Y032110*
X043423Y032135*
X043430Y032162*
X043435Y032188*
X043438Y032215*
X043440Y032243*
X043440Y032250*
X043326Y031974D02*
D01*
X043344Y031993*
X043361Y032015*
X043377Y032037*
X043391Y032060*
X043403Y032085*
X043414Y032110*
X043423Y032135*
X043430Y032162*
X043435Y032188*
X043438Y032215*
X043440Y032243*
X043440Y032250*
X042647Y032600D02*
D01*
X042646Y032627*
X042643Y032655*
X042638Y032682*
X042631Y032709*
X042623Y032735*
X042612Y032761*
X042600Y032786*
X042586Y032810*
X042571Y032833*
X042554Y032855*
X042535Y032875*
X042515Y032895*
X042494Y032912*
X042471Y032929*
X042471Y032930*
X040947Y034020D02*
D01*
X040946Y034040*
X040944Y034061*
X040940Y034081*
X040935Y034101*
X040929Y034121*
X040921Y034140*
X040912Y034159*
X040901Y034177*
X040890Y034194*
X040877Y034210*
X040863Y034226*
X040848Y034240*
X040832Y034254*
X040816Y034266*
X040798Y034277*
X040780Y034286*
X040761Y034295*
X040741Y034302*
X040721Y034308*
X040701Y034312*
X040681Y034315*
X040660Y034316*
X040639*
X040618Y034315*
X040598Y034312*
X040578Y034308*
X040558Y034302*
X040538Y034295*
X040519Y034286*
X040501Y034277*
X040483Y034266*
X040467Y034254*
X040451Y034240*
X040436Y034226*
X040422Y034210*
X040409Y034194*
X040398Y034177*
X040387Y034159*
X040378Y034140*
X040370Y034121*
X040364Y034101*
X040359Y034081*
X040355Y034061*
X040353Y034040*
X040353Y034020*
X040353Y033999*
X040355Y033978*
X040359Y033958*
X040364Y033938*
X040370Y033918*
X040378Y033899*
X040387Y033880*
X040398Y033862*
X040409Y033845*
X040422Y033829*
X040436Y033813*
X040451Y033799*
X040467Y033785*
X040483Y033773*
X040501Y033762*
X040519Y033753*
X040538Y033744*
X040558Y033737*
X040578Y033731*
X040598Y033727*
X040618Y033724*
X040639Y033723*
X040660*
X040681Y033724*
X040701Y033727*
X040721Y033731*
X040741Y033737*
X040761Y033744*
X040780Y033753*
X040798Y033762*
X040816Y033773*
X040832Y033785*
X040848Y033799*
X040863Y033813*
X040877Y033829*
X040890Y033845*
X040901Y033862*
X040912Y033880*
X040921Y033899*
X040929Y033918*
X040935Y033938*
X040940Y033958*
X040944Y033978*
X040946Y033999*
X040947Y034020*
X042774Y036326D02*
D01*
X042755Y036306*
X042738Y036284*
X042722Y036262*
X042708Y036239*
X042696Y036214*
X042685Y036189*
X042676Y036164*
X042669Y036137*
X042664Y036111*
X042661Y036084*
X042659Y036056*
X042660Y036050*
X041774Y036626D02*
D01*
X041755Y036606*
X041738Y036584*
X041722Y036562*
X041708Y036539*
X041696Y036514*
X041685Y036489*
X041676Y036464*
X041669Y036437*
X041664Y036411*
X041661Y036384*
X041659Y036356*
X041660Y036350*
X041774Y036626D02*
D01*
X041755Y036606*
X041738Y036584*
X041722Y036562*
X041708Y036539*
X041696Y036514*
X041685Y036489*
X041676Y036464*
X041669Y036437*
X041664Y036411*
X041661Y036384*
X041659Y036356*
X041660Y036350*
X042774Y036326D02*
D01*
X042755Y036306*
X042738Y036284*
X042722Y036262*
X042708Y036239*
X042696Y036214*
X042685Y036189*
X042676Y036164*
X042669Y036137*
X042664Y036111*
X042661Y036084*
X042659Y036056*
X042660Y036050*
X044005Y031682D02*
D01*
X044018Y031696*
X044031Y031712*
X044043Y031729*
X044053Y031746*
X044062Y031764*
X044070Y031783*
X044077Y031802*
X044082Y031821*
X044086Y031841*
X044088Y031861*
X044089Y031881*
X044090Y031887*
X044005Y031682D02*
D01*
X044018Y031696*
X044031Y031712*
X044043Y031729*
X044053Y031746*
X044062Y031764*
X044070Y031783*
X044077Y031802*
X044082Y031821*
X044086Y031841*
X044088Y031861*
X044089Y031881*
X044090Y031887*
X044436Y032346D02*
D01*
X044422Y032331*
X044409Y032315*
X044397Y032298*
X044387Y032281*
X044378Y032263*
X044370Y032244*
X044363Y032225*
X044358Y032206*
X044354Y032186*
X044352Y032166*
X044351Y032146*
X044351Y032141*
X044436Y032346D02*
D01*
X044422Y032331*
X044409Y032315*
X044397Y032298*
X044387Y032281*
X044378Y032263*
X044370Y032244*
X044363Y032225*
X044358Y032206*
X044354Y032186*
X044352Y032166*
X044351Y032146*
X044351Y032141*
X043595Y034805D02*
D01*
X043581Y034790*
X043568Y034774*
X043556Y034757*
X043546Y034740*
X043537Y034722*
X043529Y034703*
X043522Y034684*
X043517Y034665*
X043513Y034645*
X043511Y034625*
X043510Y034605*
X043510Y034600*
X043595Y034805D02*
D01*
X043581Y034790*
X043568Y034774*
X043556Y034757*
X043546Y034740*
X043537Y034722*
X043529Y034703*
X043522Y034684*
X043517Y034665*
X043513Y034645*
X043511Y034625*
X043510Y034605*
X043510Y034600*
X045798Y038671D02*
D01*
X045214Y038649*
X044633Y038587*
X044057Y038485*
X043491Y038342*
X042935Y038161*
X042394Y037941*
X041869Y037684*
X041364Y037391*
X040880Y037064*
X040420Y036703*
X039986Y036311*
X039581Y035890*
X039206Y035442*
X038864Y034969*
X038555Y034473*
X038282Y033957*
X038045Y033422*
X037884Y032991*
X043530Y038220D02*
D01*
X043502Y038219*
X043475Y038216*
X043448Y038211*
X043422Y038204*
X043396Y038196*
X043371Y038186*
X043346Y038174*
X043323Y038160*
X043300Y038145*
X043279Y038128*
X043259Y038110*
X043254Y038106*
X043530Y038220D02*
D01*
X043502Y038219*
X043475Y038216*
X043448Y038211*
X043422Y038204*
X043396Y038196*
X043371Y038186*
X043346Y038174*
X043323Y038160*
X043300Y038145*
X043279Y038128*
X043259Y038110*
X043254Y038106*
X043755Y037213D02*
D01*
X043728Y037206*
X043702Y037198*
X043677Y037189*
X043652Y037177*
X043628Y037164*
X043605Y037149*
X043583Y037132*
X043563Y037115*
X043554Y037106*
X043755Y037213D02*
D01*
X043728Y037206*
X043702Y037198*
X043677Y037189*
X043652Y037177*
X043628Y037164*
X043605Y037149*
X043583Y037132*
X043563Y037115*
X043554Y037106*
X044825Y036564D02*
D01*
X044844Y036532*
X044866Y036501*
X044890Y036473*
X044916Y036446*
X044944Y036421*
X044973Y036397*
X045000Y036380*
X045099Y037330D02*
D01*
X045064Y037315*
X045031Y037298*
X044999Y037279*
X044968Y037257*
X044939Y037234*
X044912Y037209*
X044886Y037181*
X044863Y037152*
X044841Y037122*
X044825Y037096*
X043923Y037440D02*
D01*
X043951Y037415*
X043980Y037392*
X044012Y037372*
X044024Y037365*
X044790Y038021D02*
D01*
X044775Y038055*
X044758Y038088*
X044739Y038120*
X044717Y038151*
X044694Y038180*
X044669Y038207*
X044641Y038233*
X044612Y038256*
X044582Y038278*
X044550Y038297*
X044516Y038314*
X044482Y038329*
X044447Y038341*
X044411Y038351*
X044374Y038358*
X044337Y038363*
X044300Y038365*
X044262Y038364*
X044225Y038361*
X044188Y038355*
X044152Y038347*
X044116Y038336*
X044081Y038323*
X044047Y038307*
X044015Y038289*
X043983Y038268*
X043953Y038246*
X043925Y038222*
X043923Y038220*
X044556Y037365D02*
D01*
X044587Y037384*
X044618Y037406*
X044646Y037430*
X044673Y037456*
X044698Y037484*
X044722Y037513*
X044743Y037544*
X044761Y037576*
X044778Y037610*
X044790Y037639*
D01*
X044804Y037604*
X044821Y037571*
X044840Y037539*
X044862Y037508*
X044885Y037479*
X044910Y037452*
X044938Y037426*
X044967Y037403*
X044997Y037381*
X045029Y037362*
X045063Y037345*
X045097Y037330*
X045099Y037330*
X045511Y038318D02*
D01*
X045476Y038332*
X045440Y038344*
X045404Y038353*
X045367Y038360*
X045330Y038364*
X045293Y038365*
X045256Y038364*
X045218Y038360*
X045181Y038354*
X045145Y038345*
X045109Y038334*
X045075Y038320*
X045041Y038304*
X045009Y038286*
X044977Y038265*
X044948Y038242*
X044920Y038217*
X044894Y038190*
X044869Y038162*
X044847Y038132*
X044827Y038100*
X044810Y038067*
X044794Y038033*
X044790Y038021*
X046520Y022370D02*
D01*
X046540Y022370*
X046560Y022372*
X046580Y022376*
X046599Y022381*
X046619Y022387*
X046637Y022395*
X046656Y022403*
X046673Y022414*
X046690Y022425*
X046706Y022437*
X046721Y022451*
X046725Y022455*
X046520Y022370D02*
D01*
X046540Y022370*
X046560Y022372*
X046580Y022376*
X046599Y022381*
X046619Y022387*
X046637Y022395*
X046656Y022403*
X046673Y022414*
X046690Y022425*
X046706Y022437*
X046721Y022451*
X046725Y022455*
X045132Y024245D02*
D01*
X045112Y024253*
X045091Y024260*
X045091Y024260*
X045174D02*
D01*
X045153Y024253*
X045133Y024245*
X045132Y024245*
X045388D02*
D01*
X045368Y024253*
X045347Y024260*
X045346Y024260*
X047257Y022987D02*
D01*
X047270Y023001*
X047283Y023017*
X047295Y023034*
X047305Y023051*
X047314Y023069*
X047322Y023088*
X047329Y023107*
X047334Y023126*
X047338Y023146*
X047340Y023166*
X047341Y023186*
X047342Y023192*
X047257Y022987D02*
D01*
X047270Y023001*
X047283Y023017*
X047295Y023034*
X047305Y023051*
X047314Y023069*
X047322Y023088*
X047329Y023107*
X047334Y023126*
X047338Y023146*
X047340Y023166*
X047341Y023186*
X047342Y023192*
Y023286D02*
D01*
X047348Y023306*
X047353Y023327*
X047357Y023348*
X047359Y023370*
X047360Y023391*
X047360Y023393*
Y023963D02*
D01*
X047359Y023984*
X047356Y024006*
X047357Y024010*
X047950Y022340D02*
D01*
X047929Y022339*
X047909Y022337*
X047889Y022333*
X047870Y022328*
X047850Y022322*
X047832Y022314*
X047813Y022306*
X047796Y022295*
X047779Y022284*
X047763Y022272*
X047748Y022258*
X047745Y022255*
X047950Y022340D02*
D01*
X047929Y022339*
X047909Y022337*
X047889Y022333*
X047870Y022328*
X047850Y022322*
X047832Y022314*
X047813Y022306*
X047796Y022295*
X047779Y022284*
X047763Y022272*
X047748Y022258*
X047745Y022255*
X048147Y023070D02*
D01*
X048146Y023090*
X048144Y023111*
X048140Y023131*
X048135Y023151*
X048129Y023171*
X048121Y023190*
X048112Y023209*
X048101Y023227*
X048090Y023244*
X048077Y023260*
X048063Y023276*
X048048Y023290*
X048032Y023304*
X048016Y023316*
X047998Y023327*
X047980Y023336*
X047961Y023345*
X047941Y023352*
X047921Y023358*
X047901Y023362*
X047881Y023365*
X047860Y023366*
X047839*
X047818Y023365*
X047798Y023362*
X047778Y023358*
X047758Y023352*
X047738Y023345*
X047719Y023336*
X047701Y023327*
X047683Y023316*
X047667Y023304*
X047651Y023290*
X047636Y023276*
X047622Y023260*
X047609Y023244*
X047598Y023227*
X047587Y023209*
X047578Y023190*
X047570Y023171*
X047564Y023151*
X047559Y023131*
X047555Y023111*
X047553Y023090*
X047553Y023070*
X047553Y023049*
X047555Y023028*
X047559Y023008*
X047564Y022988*
X047570Y022968*
X047578Y022949*
X047587Y022930*
X047598Y022912*
X047609Y022895*
X047622Y022879*
X047636Y022863*
X047651Y022849*
X047667Y022835*
X047683Y022823*
X047701Y022812*
X047719Y022803*
X047738Y022794*
X047758Y022787*
X047778Y022781*
X047798Y022777*
X047818Y022774*
X047839Y022773*
X047860*
X047881Y022774*
X047901Y022777*
X047921Y022781*
X047941Y022787*
X047961Y022794*
X047980Y022803*
X047998Y022812*
X048016Y022823*
X048032Y022835*
X048048Y022849*
X048063Y022863*
X048077Y022879*
X048090Y022895*
X048101Y022912*
X048112Y022930*
X048121Y022949*
X048129Y022968*
X048135Y022988*
X048140Y023008*
X048144Y023028*
X048146Y023049*
X048147Y023070*
X048360Y022700D02*
D01*
X048360Y022679*
X048362Y022659*
X048366Y022639*
X048371Y022620*
X048377Y022600*
X048385Y022582*
X048393Y022563*
X048404Y022546*
X048415Y022529*
X048427Y022513*
X048441Y022498*
X048445Y022495*
X048360Y022700D02*
D01*
X048360Y022679*
X048362Y022659*
X048366Y022639*
X048371Y022620*
X048377Y022600*
X048385Y022582*
X048393Y022563*
X048404Y022546*
X048415Y022529*
X048427Y022513*
X048441Y022498*
X048445Y022495*
X045430Y024260D02*
D01*
X045409Y024253*
X045389Y024245*
X045388Y024245*
X045738Y024178D02*
D01*
X045722Y024192*
X045705Y024206*
X045688Y024219*
X045670Y024230*
X045651Y024240*
X045631Y024249*
X045611Y024257*
X045602Y024260*
X047025Y026415D02*
D01*
X047010Y026430*
X046993Y026444*
X046976Y026458*
X046959Y026470*
X046940Y026480*
X046921Y026490*
X046901Y026498*
X046880Y026504*
X046859Y026510*
X046838Y026513*
X046830Y026514*
X047260Y026207D02*
D01*
X047259Y026221*
X047257Y026236*
X047255Y026250*
X047251Y026264*
X047247Y026278*
X047241Y026292*
X047235Y026305*
X047228Y026317*
X047220Y026329*
X047211Y026341*
X047201Y026352*
X047190Y026362*
X047179Y026371*
X047167Y026380*
X047155Y026387*
X047142Y026394*
X047129Y026400*
X047115Y026405*
X047101Y026409*
X047087Y026412*
X047072Y026414*
X047058Y026415*
X047043*
X047029Y026414*
X047025Y026415*
X045516Y029006D02*
D01*
X045529Y029020*
X045542Y029036*
X045554Y029053*
X045564Y029070*
X045573Y029088*
X045581Y029107*
X045588Y029126*
X045593Y029145*
X045597Y029165*
X045599Y029185*
X045600Y029205*
X045601Y029211*
X045516Y029006D02*
D01*
X045529Y029020*
X045542Y029036*
X045554Y029053*
X045564Y029070*
X045573Y029088*
X045581Y029107*
X045588Y029126*
X045593Y029145*
X045597Y029165*
X045599Y029185*
X045600Y029205*
X045601Y029211*
X046830Y027019D02*
D01*
X046848Y027039*
X046866Y027060*
X046882Y027083*
X046896Y027107*
X046909Y027132*
X046919Y027157*
X046929Y027183*
X046936Y027210*
X046941Y027237*
X046944Y027265*
X046946Y027293*
X046946Y027300*
D01*
X046945Y027327*
X046942Y027355*
X046937Y027382*
X046930Y027409*
X046922Y027435*
X046911Y027461*
X046899Y027486*
X046885Y027510*
X046870Y027533*
X046853Y027555*
X046849Y027560*
X047050D02*
D01*
X047070Y027560*
X047090Y027562*
X047110Y027566*
X047129Y027571*
X047149Y027577*
X047167Y027585*
X047186Y027593*
X047203Y027604*
X047220Y027615*
X047236Y027627*
X047251Y027641*
X047255Y027645*
X047050Y027560D02*
D01*
X047070Y027560*
X047090Y027562*
X047110Y027566*
X047129Y027571*
X047149Y027577*
X047167Y027585*
X047186Y027593*
X047203Y027604*
X047220Y027615*
X047236Y027627*
X047251Y027641*
X047255Y027645*
X048434Y024588D02*
D01*
X048455Y024605*
X048475Y024623*
X048476Y024624*
X048434Y024588D02*
D01*
X048455Y024605*
X048475Y024623*
X048476Y024624*
X048605Y024505D02*
D01*
X048590Y024518*
X048574Y024531*
X048557Y024543*
X048540Y024553*
X048522Y024562*
X048503Y024570*
X048484Y024577*
X048465Y024582*
X048445Y024586*
X048434Y024588*
X048605Y024505D02*
D01*
X048590Y024518*
X048574Y024531*
X048557Y024543*
X048540Y024553*
X048522Y024562*
X048503Y024570*
X048484Y024577*
X048465Y024582*
X048445Y024586*
X048434Y024588*
X048576Y024724D02*
D01*
X048594Y024743*
X048611Y024765*
X048627Y024787*
X048641Y024810*
X048653Y024835*
X048664Y024860*
X048673Y024885*
X048680Y024912*
X048685Y024938*
X048688Y024965*
X048690Y024993*
X048690Y025000*
X048576Y024724D02*
D01*
X048594Y024743*
X048611Y024765*
X048627Y024787*
X048641Y024810*
X048653Y024835*
X048664Y024860*
X048673Y024885*
X048680Y024912*
X048685Y024938*
X048688Y024965*
X048690Y024993*
X048690Y025000*
X048655Y029045D02*
D01*
X048668Y029059*
X048681Y029075*
X048693Y029092*
X048703Y029109*
X048712Y029127*
X048720Y029146*
X048727Y029165*
X048732Y029184*
X048736Y029204*
X048738Y029224*
X048739Y029244*
X048740Y029250*
X048655Y029045D02*
D01*
X048668Y029059*
X048681Y029075*
X048693Y029092*
X048703Y029109*
X048712Y029127*
X048720Y029146*
X048727Y029165*
X048732Y029184*
X048736Y029204*
X048738Y029224*
X048739Y029244*
X048740Y029250*
X049581Y022840D02*
D01*
X049594Y022867*
X049606Y022895*
X049616Y022923*
X049624Y022953*
X049629Y022982*
X049633Y023013*
X049634Y023043*
X049635Y023050*
X049905Y022755D02*
D01*
X049890Y022768*
X049874Y022781*
X049857Y022793*
X049840Y022803*
X049822Y022812*
X049803Y022820*
X049784Y022827*
X049765Y022832*
X049745Y022836*
X049725Y022838*
X049705Y022839*
X049700Y022840*
X049905Y022755D02*
D01*
X049890Y022768*
X049874Y022781*
X049857Y022793*
X049840Y022803*
X049822Y022812*
X049803Y022820*
X049784Y022827*
X049765Y022832*
X049745Y022836*
X049725Y022838*
X049705Y022839*
X049700Y022840*
X049635Y023050D02*
D01*
X049633Y023080*
X049630Y023110*
X049625Y023140*
X049618Y023169*
X049608Y023198*
X049597Y023226*
X049584Y023254*
X049568Y023280*
X049551Y023305*
X049533Y023329*
X049512Y023352*
X049491Y023373*
X049467Y023392*
X049443Y023410*
X049417Y023426*
X049390Y023440*
X049362Y023453*
X049334Y023463*
X049305Y023472*
X049275Y023478*
X049245Y023482*
X049215Y023484*
X049184*
X049154Y023482*
X049124Y023478*
X049094Y023472*
X049065Y023463*
X049037Y023453*
X049009Y023440*
X048982Y023426*
X048956Y023410*
X048940Y023399*
X049735Y024050D02*
D01*
X049733Y024087*
X049729Y024124*
X049723Y024161*
X049714Y024197*
X049702Y024232*
X049688Y024267*
X049672Y024301*
X049653Y024333*
X049632Y024364*
X049609Y024393*
X049584Y024421*
X049557Y024447*
X049529Y024471*
X049499Y024493*
X049467Y024513*
X049434Y024530*
X049400Y024546*
X049365Y024558*
X049329Y024569*
X049292Y024576*
X049255Y024582*
X049218Y024584*
X049181*
X049144Y024582*
X049107Y024576*
X049070Y024569*
X049034Y024558*
X048999Y024546*
X048965Y024530*
X048932Y024513*
X048900Y024493*
X048870Y024471*
X048842Y024447*
X048815Y024421*
X048790Y024393*
X048767Y024364*
X048758Y024352*
X048940Y023582D02*
D01*
X048973Y023565*
X049007Y023550*
X049042Y023538*
X049079Y023528*
X049115Y023521*
X049152Y023516*
X049190Y023514*
X049227Y023515*
X049264Y023518*
X049301Y023524*
X049338Y023532*
X049373Y023543*
X049408Y023556*
X049442Y023572*
X049475Y023590*
X049506Y023611*
X049536Y023633*
X049564Y023658*
X049591Y023684*
X049615Y023712*
X049638Y023742*
X049658Y023773*
X049676Y023806*
X049692Y023840*
X049706Y023875*
X049716Y023910*
X049725Y023947*
X049731Y023984*
X049734Y024021*
X049735Y024050*
X050090Y022450D02*
D01*
X050089Y022470*
X050087Y022490*
X050083Y022510*
X050078Y022529*
X050072Y022549*
X050064Y022567*
X050056Y022586*
X050045Y022603*
X050034Y022620*
X050022Y022636*
X050008Y022651*
X050005Y022655*
X050090Y022450D02*
D01*
X050089Y022470*
X050087Y022490*
X050083Y022510*
X050078Y022529*
X050072Y022549*
X050064Y022567*
X050056Y022586*
X050045Y022603*
X050034Y022620*
X050022Y022636*
X050008Y022651*
X050005Y022655*
X050237Y019969D02*
D01*
X050263Y019962*
X050291Y019956*
X050318Y019953*
X050346Y019952*
X050374Y019953*
X050401Y019955*
X050429Y019960*
X050456Y019967*
X050482Y019975*
X050508Y019985*
X050533Y019997*
X050557Y020011*
X050580Y020026*
X050602Y020043*
X050623Y020061*
X050642Y020081*
X050660Y020102*
X050677Y020124*
X050692Y020148*
X050705Y020172*
X050717Y020197*
X050726Y020223*
X050734Y020250*
X050740Y020277*
X050744Y020304*
X050747Y020332*
X050747Y020350*
D01*
X050746Y020377*
X050743Y020405*
X050738Y020432*
X050731Y020459*
X050723Y020485*
X050712Y020511*
X050700Y020536*
X050686Y020560*
X050671Y020583*
X050654Y020605*
X050635Y020625*
X050615Y020645*
X050594Y020662*
X050571Y020679*
X050548Y020693*
X050524Y020706*
X050498Y020718*
X050472Y020727*
X050446Y020735*
X050418Y020740*
X050391Y020744*
X050363Y020746*
X050336*
X050308Y020744*
X050281Y020740*
X050253Y020735*
X050237Y020731*
X051497Y023050D02*
D01*
X051496Y023070*
X051494Y023091*
X051490Y023111*
X051485Y023131*
X051479Y023151*
X051471Y023170*
X051462Y023189*
X051451Y023207*
X051440Y023224*
X051427Y023240*
X051413Y023256*
X051398Y023270*
X051382Y023284*
X051366Y023296*
X051348Y023307*
X051330Y023316*
X051311Y023325*
X051291Y023332*
X051271Y023338*
X051251Y023342*
X051231Y023345*
X051210Y023346*
X051189*
X051168Y023345*
X051148Y023342*
X051128Y023338*
X051108Y023332*
X051088Y023325*
X051069Y023316*
X051051Y023307*
X051033Y023296*
X051017Y023284*
X051001Y023270*
X050986Y023256*
X050972Y023240*
X050959Y023224*
X050948Y023207*
X050937Y023189*
X050928Y023170*
X050920Y023151*
X050914Y023131*
X050909Y023111*
X050905Y023091*
X050903Y023070*
X050903Y023050*
X050903Y023029*
X050905Y023008*
X050909Y022988*
X050914Y022968*
X050920Y022948*
X050928Y022929*
X050937Y022910*
X050948Y022892*
X050959Y022875*
X050972Y022859*
X050986Y022843*
X051001Y022829*
X051017Y022815*
X051033Y022803*
X051051Y022792*
X051069Y022783*
X051088Y022774*
X051108Y022767*
X051128Y022761*
X051148Y022757*
X051168Y022754*
X051189Y022753*
X051210*
X051231Y022754*
X051251Y022757*
X051271Y022761*
X051291Y022767*
X051311Y022774*
X051330Y022783*
X051348Y022792*
X051366Y022803*
X051382Y022815*
X051398Y022829*
X051413Y022843*
X051427Y022859*
X051440Y022875*
X051451Y022892*
X051462Y022910*
X051471Y022929*
X051479Y022948*
X051485Y022968*
X051490Y022988*
X051494Y023008*
X051496Y023029*
X051497Y023050*
X048262Y018752D02*
D01*
X048814Y018942*
X049352Y019171*
X049872Y019436*
X050373Y019737*
X050852Y020073*
X051306Y020440*
X051733Y020839*
X052131Y021267*
X052499Y021721*
X052834Y022200*
X053134Y022701*
X053399Y023222*
X053628Y023760*
X053818Y024312*
X053969Y024877*
X054080Y025450*
X054151Y026030*
X054181Y026614*
X054183Y026709*
X051497Y028350D02*
D01*
X051496Y028370*
X051494Y028391*
X051490Y028411*
X051485Y028431*
X051479Y028451*
X051471Y028470*
X051462Y028489*
X051451Y028507*
X051440Y028524*
X051427Y028540*
X051413Y028556*
X051398Y028570*
X051382Y028584*
X051366Y028596*
X051348Y028607*
X051330Y028616*
X051311Y028625*
X051291Y028632*
X051271Y028638*
X051251Y028642*
X051231Y028645*
X051210Y028646*
X051189*
X051168Y028645*
X051148Y028642*
X051128Y028638*
X051108Y028632*
X051088Y028625*
X051069Y028616*
X051051Y028607*
X051033Y028596*
X051017Y028584*
X051001Y028570*
X050986Y028556*
X050972Y028540*
X050959Y028524*
X050948Y028507*
X050937Y028489*
X050928Y028470*
X050920Y028451*
X050914Y028431*
X050909Y028411*
X050905Y028391*
X050903Y028370*
X050903Y028350*
X050903Y028329*
X050905Y028308*
X050909Y028288*
X050914Y028268*
X050920Y028248*
X050928Y028229*
X050937Y028210*
X050948Y028192*
X050959Y028175*
X050972Y028159*
X050986Y028143*
X051001Y028129*
X051017Y028115*
X051033Y028103*
X051051Y028092*
X051069Y028083*
X051088Y028074*
X051108Y028067*
X051128Y028061*
X051148Y028057*
X051168Y028054*
X051189Y028053*
X051210*
X051231Y028054*
X051251Y028057*
X051271Y028061*
X051291Y028067*
X051311Y028074*
X051330Y028083*
X051348Y028092*
X051366Y028103*
X051382Y028115*
X051398Y028129*
X051413Y028143*
X051427Y028159*
X051440Y028175*
X051451Y028192*
X051462Y028210*
X051471Y028229*
X051479Y028248*
X051485Y028268*
X051490Y028288*
X051494Y028308*
X051496Y028329*
X051497Y028350*
X054313Y026950D02*
D01*
X054296Y026938*
X054280Y026925*
X054266Y026911*
X054252Y026896*
X054239Y026880*
X054228Y026864*
X054218Y026846*
X054209Y026828*
X054201Y026809*
X054194Y026790*
X054189Y026770*
X054186Y026751*
X054183Y026730*
X054182Y026710*
X054183Y026709*
X054313Y026950D02*
D01*
X054296Y026938*
X054280Y026925*
X054266Y026911*
X054252Y026896*
X054239Y026880*
X054228Y026864*
X054218Y026846*
X054209Y026828*
X054201Y026809*
X054194Y026790*
X054189Y026770*
X054186Y026751*
X054183Y026730*
X054182Y026710*
X054183Y026710*
X054392Y027200D02*
D01*
X054375Y027174*
X054360Y027147*
X054347Y027120*
X054336Y027091*
X054328Y027062*
X054321Y027032*
X054316Y027002*
X054313Y026972*
X054313Y026950*
X054392Y028200D02*
D01*
X054375Y028174*
X054360Y028147*
X054347Y028120*
X054336Y028091*
X054328Y028062*
X054321Y028032*
X054316Y028002*
X054313Y027972*
X054313Y027941*
X054315Y027911*
X054318Y027881*
X054324Y027851*
X054332Y027821*
X054342Y027793*
X054354Y027764*
X054368Y027737*
X054384Y027711*
X054392Y027700*
D01*
X054375Y027674*
X054360Y027647*
X054347Y027620*
X054336Y027591*
X054328Y027562*
X054321Y027532*
X054316Y027502*
X054313Y027472*
X054313Y027441*
X054315Y027411*
X054318Y027381*
X054324Y027351*
X054332Y027321*
X054342Y027293*
X054354Y027264*
X054368Y027237*
X054384Y027211*
X054392Y027200*
Y028700D02*
D01*
X054375Y028674*
X054360Y028647*
X054347Y028620*
X054336Y028591*
X054328Y028562*
X054321Y028532*
X054316Y028502*
X054313Y028472*
X054313Y028441*
X054315Y028411*
X054318Y028381*
X054324Y028351*
X054332Y028321*
X054342Y028293*
X054354Y028264*
X054368Y028237*
X054384Y028211*
X054392Y028200*
Y029700D02*
D01*
X054375Y029674*
X054360Y029647*
X054347Y029620*
X054336Y029591*
X054328Y029562*
X054321Y029532*
X054316Y029502*
X054313Y029472*
X054313Y029441*
X054315Y029411*
X054318Y029381*
X054324Y029351*
X054332Y029321*
X054342Y029293*
X054354Y029264*
X054368Y029237*
X054384Y029211*
X054392Y029200*
D01*
X054375Y029174*
X054360Y029147*
X054347Y029120*
X054336Y029091*
X054328Y029062*
X054321Y029032*
X054316Y029002*
X054313Y028972*
X054313Y028941*
X054315Y028911*
X054318Y028881*
X054324Y028851*
X054332Y028821*
X054342Y028793*
X054354Y028764*
X054368Y028737*
X054384Y028711*
X054392Y028700*
X046050Y029340D02*
D01*
X046029Y029339*
X046009Y029337*
X045989Y029333*
X045970Y029328*
X045950Y029322*
X045932Y029314*
X045913Y029306*
X045896Y029295*
X045879Y029284*
X045863Y029272*
X045848Y029258*
X045845Y029255*
X045334Y033765D02*
D01*
X045349Y033751*
X045365Y033739*
X045382Y033729*
X045400Y033719*
X045419Y033711*
X045438Y033704*
X045457Y033698*
X045477Y033694*
X045497Y033691*
X045517Y033689*
X045529Y033689*
X045334Y033765D02*
D01*
X045349Y033751*
X045365Y033739*
X045382Y033729*
X045400Y033719*
X045419Y033711*
X045438Y033704*
X045457Y033698*
X045477Y033694*
X045497Y033691*
X045517Y033689*
X045529Y033689*
X046050Y029340D02*
D01*
X046029Y029339*
X046009Y029337*
X045989Y029333*
X045970Y029328*
X045950Y029322*
X045932Y029314*
X045913Y029306*
X045896Y029295*
X045879Y029284*
X045863Y029272*
X045848Y029258*
X045845Y029255*
X046892Y029252D02*
D01*
X046877Y029275*
X046860Y029297*
X046842Y029318*
X046823Y029338*
X046802Y029356*
X046780Y029373*
X046757Y029388*
X046732Y029402*
X046707Y029414*
X046682Y029424*
X046655Y029432*
X046628Y029439*
X046601Y029443*
X046573Y029446*
X046546Y029447*
X046518Y029445*
X046490Y029442*
X046463Y029437*
X046436Y029430*
X046410Y029421*
X046384Y029411*
X046360Y029398*
X046336Y029384*
X046313Y029369*
X046291Y029351*
X046278Y029340*
X046747Y029900D02*
D01*
X046746Y029920*
X046744Y029941*
X046740Y029961*
X046735Y029981*
X046729Y030001*
X046721Y030020*
X046712Y030039*
X046701Y030057*
X046690Y030074*
X046677Y030090*
X046663Y030106*
X046648Y030120*
X046632Y030134*
X046616Y030146*
X046598Y030157*
X046580Y030166*
X046561Y030175*
X046541Y030182*
X046521Y030188*
X046501Y030192*
X046481Y030195*
X046460Y030196*
X046439*
X046418Y030195*
X046398Y030192*
X046378Y030188*
X046358Y030182*
X046338Y030175*
X046319Y030166*
X046301Y030157*
X046283Y030146*
X046267Y030134*
X046251Y030120*
X046236Y030106*
X046222Y030090*
X046209Y030074*
X046198Y030057*
X046187Y030039*
X046178Y030020*
X046170Y030001*
X046164Y029981*
X046159Y029961*
X046155Y029941*
X046153Y029920*
X046153Y029900*
X046153Y029879*
X046155Y029858*
X046159Y029838*
X046164Y029818*
X046170Y029798*
X046178Y029779*
X046187Y029760*
X046198Y029742*
X046209Y029725*
X046222Y029709*
X046236Y029693*
X046251Y029679*
X046267Y029665*
X046283Y029653*
X046301Y029642*
X046319Y029633*
X046338Y029624*
X046358Y029617*
X046378Y029611*
X046398Y029607*
X046418Y029604*
X046439Y029603*
X046460*
X046481Y029604*
X046501Y029607*
X046521Y029611*
X046541Y029617*
X046561Y029624*
X046580Y029633*
X046598Y029642*
X046616Y029653*
X046632Y029665*
X046648Y029679*
X046663Y029693*
X046677Y029709*
X046690Y029725*
X046701Y029742*
X046712Y029760*
X046721Y029779*
X046729Y029798*
X046735Y029818*
X046740Y029838*
X046744Y029858*
X046746Y029879*
X046747Y029900*
X047365Y033028D02*
D01*
X047355Y033049*
X047344Y033070*
X047331Y033090*
X047317Y033109*
X047302Y033128*
X047290Y033141*
X047365Y033028D02*
D01*
X047355Y033049*
X047344Y033070*
X047331Y033090*
X047317Y033109*
X047302Y033128*
X047290Y033140*
X046428Y035280D02*
D01*
X046414Y035295*
X046407Y035303*
X046491Y035115D02*
D01*
X046504Y035099*
X046519Y035084*
X046534Y035070*
X046551Y035057*
X046568Y035046*
X046586Y035036*
X046605Y035027*
X046624Y035019*
X046644Y035013*
X046664Y035008*
X046684Y035005*
X046705Y035003*
X046726Y035002*
X046747Y035003*
X046767Y035005*
X046788Y035009*
X046808Y035014*
X046827Y035021*
X046847Y035029*
X046865Y035038*
X046883Y035048*
X046900Y035060*
X046917Y035073*
X046932Y035087*
X046946Y035102*
X046959Y035118*
X046971Y035135*
X046982Y035153*
X046992Y035171*
X047000Y035190*
X047007Y035210*
X047013Y035230*
X047017Y035250*
X047020Y035271*
X047021Y035291*
X047022Y035300*
X046428Y035280D02*
D01*
X046414Y035295*
X046407Y035303*
X046305Y035405D02*
D01*
X046290Y035418*
X046274Y035431*
X046257Y035443*
X046240Y035453*
X046237Y035456*
X046305Y035405D02*
D01*
X046290Y035418*
X046274Y035431*
X046257Y035443*
X046240Y035453*
X046237Y035456*
X047022Y035300D02*
D01*
X047021Y035320*
X047019Y035341*
X047015Y035361*
X047010Y035381*
X047004Y035401*
X046996Y035420*
X046987Y035439*
X046976Y035457*
X046965Y035474*
X046952Y035490*
X046938Y035506*
X046923Y035520*
X046907Y035534*
X046891Y035546*
X046873Y035557*
X046855Y035566*
X046836Y035575*
X046816Y035582*
X046796Y035588*
X046776Y035592*
X046756Y035595*
X046735Y035596*
X046714*
X046693Y035595*
X046673Y035592*
X046653Y035588*
X046633Y035582*
X046613Y035575*
X046594Y035566*
X046576Y035557*
X046558Y035546*
X046542Y035534*
X046526Y035520*
X046511Y035506*
X046497Y035490*
X046484Y035474*
X046473Y035457*
X046462Y035439*
X046453Y035420*
X046445Y035401*
X046439Y035381*
X046434Y035361*
X046430Y035341*
X046428Y035320*
X046428Y035300*
Y035280*
X045595Y038505D02*
D01*
X045581Y038490*
X045568Y038474*
X045556Y038457*
X045546Y038440*
X045537Y038422*
X045529Y038403*
X045522Y038384*
X045517Y038365*
X045513Y038345*
X045511Y038325*
X045511Y038318*
X045595Y038505D02*
D01*
X045581Y038490*
X045568Y038474*
X045556Y038457*
X045546Y038440*
X045537Y038422*
X045529Y038403*
X045522Y038384*
X045517Y038365*
X045513Y038345*
X045511Y038325*
X045511Y038318*
X045798Y038671D02*
D01*
X045779Y038663*
X045761Y038654*
X045743Y038643*
X045727Y038632*
X045711Y038619*
X045696Y038606*
X045695Y038605*
X046090Y036333D02*
D01*
X046125Y036320*
X046161Y036310*
X046197Y036302*
X046234Y036297*
X046237Y036297*
X045798Y038671D02*
D01*
X045779Y038663*
X045761Y038654*
X045743Y038643*
X045727Y038632*
X045711Y038619*
X045696Y038606*
X045695Y038605*
X046237Y036297D02*
D01*
X046274Y036294*
X046311Y036294*
X046348Y036297*
X046385Y036303*
X046422Y036311*
X046458Y036321*
X046493Y036334*
X046510Y036342*
Y036100D02*
D01*
X046510Y036079*
X046512Y036059*
X046516Y036039*
X046521Y036020*
X046527Y036000*
X046535Y035982*
X046543Y035963*
X046554Y035946*
X046565Y035929*
X046577Y035913*
X046591Y035898*
X046595Y035895*
X046510Y036100D02*
D01*
X046510Y036079*
X046512Y036059*
X046516Y036039*
X046521Y036020*
X046527Y036000*
X046535Y035982*
X046543Y035963*
X046554Y035946*
X046565Y035929*
X046577Y035913*
X046591Y035898*
X046595Y035895*
X046825Y037830D02*
D01*
X046823Y037867*
X046819Y037904*
X046813Y037941*
X046804Y037977*
X046792Y038012*
X046778Y038047*
X046762Y038081*
X046746Y038110*
X046755Y037565D02*
D01*
X046772Y037598*
X046787Y037632*
X046799Y037667*
X046810Y037703*
X046817Y037740*
X046822Y037777*
X046824Y037814*
X046825Y037830*
X047123Y030797D02*
D01*
X047150Y030792*
X047178Y030790*
X047205Y030789*
X047233Y030790*
X047261Y030794*
X047288Y030799*
X047315Y030806*
X047341Y030815*
X047366Y030826*
X047391Y030838*
X047415Y030852*
X047438Y030868*
X047459Y030886*
X047480Y030905*
X047499Y030925*
X047516Y030946*
X047532Y030969*
X047547Y030993*
X047559Y031017*
X047570Y031043*
X047579Y031069*
X047587Y031096*
X047592Y031123*
X047595Y031151*
X047597Y031178*
X047597Y031187*
D01*
X047596Y031214*
X047593Y031242*
X047588Y031269*
X047581Y031296*
X047573Y031322*
X047562Y031348*
X047550Y031373*
X047536Y031397*
X047521Y031420*
X047504Y031442*
X047485Y031462*
X047465Y031482*
X047463Y031485*
Y032227D02*
D01*
X047489Y032218*
X047516Y032211*
X047543Y032206*
X047571Y032203*
X047598Y032202*
X047626Y032203*
X047654Y032206*
X047681Y032211*
X047708Y032217*
X047710Y032218*
Y032982D02*
D01*
X047683Y032988*
X047655Y032993*
X047628Y032996*
X047600Y032997*
X047572Y032996*
X047545Y032993*
X047517Y032988*
X047490Y032982*
X047464Y032973*
X047463Y032973*
X054337Y030092D02*
D01*
X054328Y030062*
X054321Y030033*
X054316Y030003*
X054313Y029972*
X054313Y029942*
X054314Y029911*
X054318Y029881*
X054324Y029851*
X054332Y029822*
X054342Y029793*
X054354Y029765*
X054368Y029738*
X054383Y029711*
X054392Y029700*
X054183Y030348D02*
D01*
X054183Y030327*
X054185Y030307*
X054189Y030287*
X054194Y030268*
X054200Y030248*
X054208Y030230*
X054217Y030211*
X054227Y030194*
X054238Y030177*
X054251Y030161*
X054265Y030146*
X054279Y030132*
X054295Y030119*
X054311Y030108*
X054328Y030097*
X054337Y030092*
X054183Y030347D02*
D01*
X054183Y030326*
X054186Y030306*
X054189Y030286*
X054194Y030267*
X054201Y030247*
X054208Y030229*
X054217Y030211*
X054228Y030193*
X054239Y030176*
X054252Y030161*
X054265Y030146*
X054280Y030132*
X054296Y030119*
X054312Y030107*
X054329Y030096*
X054337Y030092*
X051497Y034000D02*
D01*
X051496Y034020*
X051494Y034041*
X051490Y034061*
X051485Y034081*
X051479Y034101*
X051471Y034120*
X051462Y034139*
X051451Y034157*
X051440Y034174*
X051427Y034190*
X051413Y034206*
X051398Y034220*
X051382Y034234*
X051366Y034246*
X051348Y034257*
X051330Y034266*
X051311Y034275*
X051291Y034282*
X051271Y034288*
X051251Y034292*
X051231Y034295*
X051210Y034296*
X051189*
X051168Y034295*
X051148Y034292*
X051128Y034288*
X051108Y034282*
X051088Y034275*
X051069Y034266*
X051051Y034257*
X051033Y034246*
X051017Y034234*
X051001Y034220*
X050986Y034206*
X050972Y034190*
X050959Y034174*
X050948Y034157*
X050937Y034139*
X050928Y034120*
X050920Y034101*
X050914Y034081*
X050909Y034061*
X050905Y034041*
X050903Y034020*
X050903Y034000*
X050903Y033979*
X050905Y033958*
X050909Y033938*
X050914Y033918*
X050920Y033898*
X050928Y033879*
X050937Y033860*
X050948Y033842*
X050959Y033825*
X050972Y033809*
X050986Y033793*
X051001Y033779*
X051017Y033765*
X051033Y033753*
X051051Y033742*
X051069Y033733*
X051088Y033724*
X051108Y033717*
X051128Y033711*
X051148Y033707*
X051168Y033704*
X051189Y033703*
X051210*
X051231Y033704*
X051251Y033707*
X051271Y033711*
X051291Y033717*
X051311Y033724*
X051330Y033733*
X051348Y033742*
X051366Y033753*
X051382Y033765*
X051398Y033779*
X051413Y033793*
X051427Y033809*
X051440Y033825*
X051451Y033842*
X051462Y033860*
X051471Y033879*
X051479Y033898*
X051485Y033918*
X051490Y033938*
X051494Y033958*
X051496Y033979*
X051497Y034000*
X047580Y036380D02*
D01*
X047610Y036401*
X047639Y036424*
X047667Y036450*
X047692Y036477*
X047716Y036506*
X047737Y036536*
X047757Y036568*
X047774Y036602*
X047789Y036636*
X047801Y036671*
X047811Y036707*
X047818Y036744*
X047823Y036781*
X047825Y036818*
X047825Y036830*
D01*
X047823Y036867*
X047819Y036904*
X047813Y036941*
X047804Y036977*
X047792Y037012*
X047778Y037047*
X047762Y037081*
X047743Y037113*
X047722Y037144*
X047699Y037173*
X047674Y037201*
X047647Y037227*
X047619Y037251*
X047589Y037273*
X047557Y037293*
X047524Y037310*
X047490Y037326*
X047455Y037338*
X047419Y037349*
X047382Y037356*
X047345Y037362*
X047308Y037364*
X047271*
X047234Y037362*
X047197Y037356*
X047160Y037349*
X047124Y037338*
X047089Y037326*
X047055Y037310*
X047024Y037294*
X054183Y030348D02*
D01*
X054159Y030931*
X054094Y031512*
X053990Y032087*
X053845Y032653*
X053661Y033208*
X053439Y033748*
X053180Y034272*
X052885Y034776*
X052556Y035259*
X052193Y035717*
X051800Y036149*
X051377Y036552*
X050927Y036925*
X050453Y037266*
X049955Y037573*
X049438Y037844*
X048903Y038079*
X048353Y038276*
X048253Y038308*
X046957Y038110D02*
D01*
X046938Y038086*
X046921Y038060*
X046906Y038034*
X046892Y038007*
X046881Y037979*
X046871Y037950*
X046864Y037920*
X046859Y037890*
X046856Y037860*
X046854Y037830*
X046855Y037800*
X046859Y037769*
X046864Y037739*
X046871Y037710*
X046881Y037681*
X046892Y037653*
X046905Y037626*
X046920Y037599*
X046937Y037574*
X046956Y037550*
X046976Y037528*
X046998Y037506*
X047021Y037487*
X047046Y037469*
X047072Y037453*
X047098Y037439*
X047126Y037426*
X047155Y037416*
X047184Y037407*
X047214Y037401*
X047244Y037397*
X047274Y037395*
X047304Y037395*
X047335Y037397*
X047365Y037401*
X047394Y037407*
X047424Y037416*
X047452Y037426*
X047480Y037438*
X047507Y037452*
X047532Y037469*
X047557Y037486*
X047580Y037506*
X047602Y037527*
X047623Y037550*
X047641Y037573*
X047658Y037599*
X047673Y037625*
X047687Y037652*
X047698Y037680*
X047708Y037709*
X047715Y037739*
X047720Y037769*
X047723Y037799*
X047725Y037829*
X047725Y037830*
D01*
X047723Y037860*
X047720Y037890*
X047715Y037920*
X047708Y037949*
X047698Y037978*
X047687Y038006*
X047674Y038034*
X047658Y038060*
X047641Y038085*
X047623Y038109*
X047623Y038110*
X048885Y038005D02*
D01*
X048870Y038018*
X048854Y038031*
X048837Y038043*
X048820Y038053*
X048802Y038062*
X048783Y038070*
X048764Y038077*
X048745Y038082*
X048725Y038086*
X048705Y038088*
X048685Y038089*
X048680Y038090*
X048885Y038005D02*
D01*
X048870Y038018*
X048854Y038031*
X048837Y038043*
X048820Y038053*
X048802Y038062*
X048783Y038070*
X048764Y038077*
X048745Y038082*
X048725Y038086*
X048705Y038088*
X048685Y038089*
X048680Y038090*
X049025Y036555D02*
D01*
X049038Y036569*
X049051Y036585*
X049063Y036602*
X049073Y036619*
X049082Y036637*
X049090Y036656*
X049097Y036675*
X049102Y036694*
X049106Y036714*
X049108Y036734*
X049109Y036754*
X049110Y036760*
X049025Y036555D02*
D01*
X049038Y036569*
X049051Y036585*
X049063Y036602*
X049073Y036619*
X049082Y036637*
X049090Y036656*
X049097Y036675*
X049102Y036694*
X049106Y036714*
X049108Y036734*
X049109Y036754*
X049110Y036760*
Y037660D02*
D01*
X049109Y037680*
X049107Y037700*
X049103Y037720*
X049098Y037739*
X049092Y037759*
X049084Y037777*
X049076Y037796*
X049065Y037813*
X049054Y037830*
X049042Y037846*
X049028Y037861*
X049025Y037865*
X049110Y037660D02*
D01*
X049109Y037680*
X049107Y037700*
X049103Y037720*
X049098Y037739*
X049092Y037759*
X049084Y037777*
X049076Y037796*
X049065Y037813*
X049054Y037830*
X049042Y037846*
X049028Y037861*
X049025Y037865*
X055240Y026708D02*
D01*
X055239Y026728*
X055237Y026748*
X055233Y026768*
X055228Y026787*
X055222Y026807*
X055214Y026825*
X055206Y026844*
X055195Y026861*
X055184Y026878*
X055182Y026883*
X055240Y026708D02*
D01*
X055239Y026728*
X055237Y026748*
X055233Y026768*
X055228Y026787*
X055222Y026807*
X055214Y026825*
X055206Y026844*
X055195Y026861*
X055184Y026878*
X055182Y026883*
X055108Y027200D02*
D01*
X055124Y027225*
X055139Y027252*
X055152Y027279*
X055163Y027308*
X055171Y027337*
X055178Y027367*
X055183Y027397*
X055186Y027427*
X055187Y027450*
Y026950D02*
D01*
X055185Y026980*
X055182Y027010*
X055177Y027040*
X055170Y027070*
X055160Y027099*
X055149Y027127*
X055135Y027155*
X055120Y027181*
X055108Y027200*
X055187Y027950D02*
D01*
X055185Y027980*
X055182Y028010*
X055177Y028040*
X055170Y028070*
X055160Y028099*
X055149Y028127*
X055135Y028155*
X055120Y028181*
X055108Y028200*
X055187Y027450D02*
D01*
X055185Y027480*
X055182Y027510*
X055177Y027540*
X055170Y027570*
X055160Y027599*
X055149Y027627*
X055135Y027655*
X055120Y027681*
X055108Y027700*
D01*
X055124Y027725*
X055139Y027752*
X055152Y027779*
X055163Y027808*
X055171Y027837*
X055178Y027867*
X055183Y027897*
X055186Y027927*
X055187Y027950*
X055108Y028200D02*
D01*
X055124Y028225*
X055139Y028252*
X055152Y028279*
X055163Y028308*
X055171Y028337*
X055178Y028367*
X055183Y028397*
X055186Y028427*
X055187Y028450*
X055108Y028700D02*
D01*
X055124Y028725*
X055139Y028752*
X055152Y028779*
X055163Y028808*
X055171Y028837*
X055178Y028867*
X055183Y028897*
X055186Y028927*
X055187Y028950*
Y028450D02*
D01*
X055185Y028480*
X055182Y028510*
X055177Y028540*
X055170Y028570*
X055160Y028599*
X055149Y028627*
X055135Y028655*
X055120Y028681*
X055108Y028700*
X055187Y028950D02*
D01*
X055185Y028980*
X055182Y029010*
X055177Y029040*
X055170Y029070*
X055160Y029099*
X055149Y029127*
X055135Y029155*
X055120Y029181*
X055108Y029200*
D01*
X055124Y029225*
X055139Y029252*
X055152Y029279*
X055163Y029308*
X055171Y029337*
X055178Y029367*
X055183Y029397*
X055186Y029427*
X055187Y029450*
Y029950D02*
D01*
X055185Y029980*
X055182Y030010*
X055177Y030040*
X055170Y030070*
X055160Y030099*
X055149Y030127*
X055145Y030136*
X055187Y029450D02*
D01*
X055185Y029480*
X055182Y029510*
X055177Y029540*
X055170Y029570*
X055160Y029599*
X055149Y029627*
X055135Y029655*
X055120Y029681*
X055108Y029700*
D01*
X055124Y029725*
X055139Y029752*
X055152Y029779*
X055163Y029808*
X055171Y029837*
X055178Y029867*
X055183Y029897*
X055186Y029927*
X055187Y029950*
X055154Y030144D02*
D01*
X055167Y030158*
X055180Y030174*
X055192Y030190*
X055202Y030208*
X055212Y030226*
X055220Y030244*
X055226Y030263*
X055232Y030283*
X055236Y030303*
X055238Y030323*
X055239Y030343*
X055240Y030350*
X055182Y026883D02*
D01*
X055185Y026913*
X055187Y026943*
X055187Y026950*
X063435Y020654D02*
D01*
X063454Y020622*
X063476Y020591*
X063500Y020563*
X063526Y020536*
X063554Y020511*
X063583Y020487*
X063614Y020466*
X063646Y020448*
X063680Y020431*
X063714Y020417*
X063750Y020405*
X063786Y020396*
X063823Y020389*
X063860Y020385*
X063897Y020384*
X063935Y020385*
X063972Y020389*
X064009Y020395*
X064045Y020404*
X064081Y020415*
X064115Y020429*
X064149Y020445*
X064182Y020464*
X064213Y020485*
X064242Y020508*
X064270Y020533*
X064296Y020559*
X064320Y020588*
X064342Y020618*
X064362Y020650*
X064380Y020683*
X064395Y020717*
X064400Y020729*
D01*
X064414Y020694*
X064431Y020661*
X064450Y020629*
X064472Y020598*
X064495Y020569*
X064520Y020542*
X064548Y020516*
X064577Y020493*
X064607Y020471*
X064639Y020452*
X064673Y020435*
X064707Y020420*
X064742Y020408*
X064778Y020398*
X064815Y020391*
X064852Y020386*
X064889Y020384*
X064927Y020385*
X064964Y020388*
X065001Y020394*
X065037Y020402*
X065073Y020413*
X065108Y020426*
X065142Y020442*
X065174Y020460*
X065206Y020481*
X065236Y020503*
X065264Y020527*
X065290Y020554*
X065315Y020582*
X065337Y020612*
X065358Y020643*
X065376Y020676*
X065392Y020710*
X065400Y020729*
X058947Y021395D02*
D01*
X058946Y021415*
X058944Y021436*
X058940Y021456*
X058935Y021476*
X058929Y021496*
X058921Y021515*
X058912Y021534*
X058901Y021552*
X058890Y021569*
X058877Y021585*
X058863Y021601*
X058848Y021615*
X058832Y021629*
X058816Y021641*
X058798Y021652*
X058780Y021661*
X058761Y021670*
X058741Y021677*
X058721Y021683*
X058701Y021687*
X058681Y021690*
X058660Y021691*
X058639*
X058618Y021690*
X058598Y021687*
X058578Y021683*
X058558Y021677*
X058538Y021670*
X058519Y021661*
X058501Y021652*
X058483Y021641*
X058467Y021629*
X058451Y021615*
X058436Y021601*
X058422Y021585*
X058409Y021569*
X058398Y021552*
X058387Y021534*
X058378Y021515*
X058370Y021496*
X058364Y021476*
X058359Y021456*
X058355Y021436*
X058353Y021415*
X058353Y021395*
X058353Y021374*
X058355Y021353*
X058359Y021333*
X058364Y021313*
X058370Y021293*
X058378Y021274*
X058387Y021255*
X058398Y021237*
X058409Y021220*
X058422Y021204*
X058436Y021188*
X058451Y021174*
X058467Y021160*
X058483Y021148*
X058501Y021137*
X058519Y021128*
X058538Y021119*
X058558Y021112*
X058578Y021106*
X058598Y021102*
X058618Y021099*
X058639Y021098*
X058660*
X058681Y021099*
X058701Y021102*
X058721Y021106*
X058741Y021112*
X058761Y021119*
X058780Y021128*
X058798Y021137*
X058816Y021148*
X058832Y021160*
X058848Y021174*
X058863Y021188*
X058877Y021204*
X058890Y021220*
X058901Y021237*
X058912Y021255*
X058921Y021274*
X058929Y021293*
X058935Y021313*
X058940Y021333*
X058944Y021353*
X058946Y021374*
X058947Y021395*
X062366Y021950D02*
D01*
X062365Y021912*
X062367Y021875*
X062371Y021838*
X062378Y021801*
X062387Y021765*
X062399Y021730*
X062414Y021695*
X062431Y021662*
X062450Y021630*
X062471Y021599*
X062495Y021570*
X062520Y021543*
X062547Y021517*
X062576Y021494*
X062607Y021472*
X062634Y021455*
X055847Y036300D02*
D01*
X055846Y036320*
X055844Y036341*
X055840Y036361*
X055835Y036381*
X055829Y036401*
X055821Y036420*
X055812Y036439*
X055801Y036457*
X055790Y036474*
X055777Y036490*
X055763Y036506*
X055748Y036520*
X055732Y036534*
X055716Y036546*
X055698Y036557*
X055680Y036566*
X055661Y036575*
X055641Y036582*
X055621Y036588*
X055601Y036592*
X055581Y036595*
X055560Y036596*
X055539*
X055518Y036595*
X055498Y036592*
X055478Y036588*
X055458Y036582*
X055438Y036575*
X055419Y036566*
X055401Y036557*
X055383Y036546*
X055367Y036534*
X055351Y036520*
X055336Y036506*
X055322Y036490*
X055309Y036474*
X055298Y036457*
X055287Y036439*
X055278Y036420*
X055270Y036401*
X055264Y036381*
X055259Y036361*
X055255Y036341*
X055253Y036320*
X055253Y036300*
X055253Y036279*
X055255Y036258*
X055259Y036238*
X055264Y036218*
X055270Y036198*
X055278Y036179*
X055287Y036160*
X055298Y036142*
X055309Y036125*
X055322Y036109*
X055336Y036093*
X055351Y036079*
X055367Y036065*
X055383Y036053*
X055401Y036042*
X055419Y036033*
X055438Y036024*
X055458Y036017*
X055478Y036011*
X055498Y036007*
X055518Y036004*
X055539Y036003*
X055560*
X055581Y036004*
X055601Y036007*
X055621Y036011*
X055641Y036017*
X055661Y036024*
X055680Y036033*
X055698Y036042*
X055716Y036053*
X055732Y036065*
X055748Y036079*
X055763Y036093*
X055777Y036109*
X055790Y036125*
X055801Y036142*
X055812Y036160*
X055821Y036179*
X055829Y036198*
X055835Y036218*
X055840Y036238*
X055844Y036258*
X055846Y036279*
X055847Y036300*
X055960Y036350D02*
D01*
X055960Y036322*
X055963Y036295*
X055968Y036268*
X055975Y036242*
X055983Y036216*
X055993Y036191*
X056005Y036166*
X056019Y036143*
X056034Y036120*
X056051Y036099*
X056069Y036079*
X056074Y036074*
X055960Y036350D02*
D01*
X055960Y036322*
X055963Y036295*
X055968Y036268*
X055975Y036242*
X055983Y036216*
X055993Y036191*
X056005Y036166*
X056019Y036143*
X056034Y036120*
X056051Y036099*
X056069Y036079*
X056074Y036074*
Y040126D02*
D01*
X056055Y040106*
X056038Y040084*
X056022Y040062*
X056008Y040039*
X055996Y040014*
X055985Y039989*
X055976Y039964*
X055969Y039937*
X055964Y039911*
X055961Y039884*
X055959Y039856*
X055960Y039850*
X056074Y040126D02*
D01*
X056055Y040106*
X056038Y040084*
X056022Y040062*
X056008Y040039*
X055996Y040014*
X055985Y039989*
X055976Y039964*
X055969Y039937*
X055964Y039911*
X055961Y039884*
X055959Y039856*
X055960Y039850*
X056750Y040640D02*
D01*
X056722Y040639*
X056695Y040636*
X056668Y040631*
X056642Y040624*
X056616Y040616*
X056591Y040606*
X056566Y040594*
X056543Y040580*
X056520Y040565*
X056499Y040548*
X056479Y040530*
X056474Y040526*
X056747Y041050D02*
D01*
X056746Y041070*
X056744Y041091*
X056740Y041111*
X056735Y041131*
X056729Y041151*
X056721Y041170*
X056712Y041189*
X056701Y041207*
X056690Y041224*
X056677Y041240*
X056663Y041256*
X056648Y041270*
X056632Y041284*
X056616Y041296*
X056598Y041307*
X056580Y041316*
X056561Y041325*
X056541Y041332*
X056521Y041338*
X056501Y041342*
X056481Y041345*
X056460Y041346*
X056439*
X056418Y041345*
X056398Y041342*
X056378Y041338*
X056358Y041332*
X056338Y041325*
X056319Y041316*
X056301Y041307*
X056283Y041296*
X056267Y041284*
X056251Y041270*
X056236Y041256*
X056222Y041240*
X056209Y041224*
X056198Y041207*
X056187Y041189*
X056178Y041170*
X056170Y041151*
X056164Y041131*
X056159Y041111*
X056155Y041091*
X056153Y041070*
X056153Y041050*
X056153Y041029*
X056155Y041008*
X056159Y040988*
X056164Y040968*
X056170Y040948*
X056178Y040929*
X056187Y040910*
X056198Y040892*
X056209Y040875*
X056222Y040859*
X056236Y040843*
X056251Y040829*
X056267Y040815*
X056283Y040803*
X056301Y040792*
X056319Y040783*
X056338Y040774*
X056358Y040767*
X056378Y040761*
X056398Y040757*
X056418Y040754*
X056439Y040753*
X056460*
X056481Y040754*
X056501Y040757*
X056521Y040761*
X056541Y040767*
X056561Y040774*
X056580Y040783*
X056598Y040792*
X056616Y040803*
X056632Y040815*
X056648Y040829*
X056663Y040843*
X056677Y040859*
X056690Y040875*
X056701Y040892*
X056712Y040910*
X056721Y040929*
X056729Y040948*
X056735Y040968*
X056740Y040988*
X056744Y041008*
X056746Y041029*
X056747Y041050*
X059540Y039750D02*
D01*
X059539Y039777*
X059536Y039804*
X059531Y039831*
X059524Y039857*
X059516Y039883*
X059506Y039908*
X059494Y039933*
X059480Y039956*
X059465Y039979*
X059448Y040000*
X059430Y040020*
X059426Y040026*
X056750Y040640D02*
D01*
X056722Y040639*
X056695Y040636*
X056668Y040631*
X056642Y040624*
X056616Y040616*
X056591Y040606*
X056566Y040594*
X056543Y040580*
X056520Y040565*
X056499Y040548*
X056479Y040530*
X056474Y040526*
X058926D02*
D01*
X058906Y040544*
X058884Y040561*
X058862Y040577*
X058839Y040591*
X058814Y040603*
X058789Y040614*
X058764Y040623*
X058737Y040630*
X058711Y040635*
X058684Y040638*
X058656Y040640*
X058650Y040640*
X058926Y040526D02*
D01*
X058906Y040544*
X058884Y040561*
X058862Y040577*
X058839Y040591*
X058814Y040603*
X058789Y040614*
X058764Y040623*
X058737Y040630*
X058711Y040635*
X058684Y040638*
X058656Y040640*
X058650Y040640*
X059540Y039750D02*
D01*
X059539Y039777*
X059536Y039804*
X059531Y039831*
X059524Y039857*
X059516Y039883*
X059506Y039908*
X059494Y039933*
X059480Y039956*
X059465Y039979*
X059448Y040000*
X059430Y040020*
X059426Y040026*
X065380Y038861D02*
D01*
X065365Y038895*
X065348Y038928*
X065329Y038960*
X065307Y038991*
X065284Y039020*
X065259Y039047*
X065231Y039073*
X065202Y039096*
X065172Y039118*
X065140Y039137*
X065106Y039154*
X065072Y039169*
X065071Y039170*
D01*
X065105Y039184*
X065138Y039201*
X065170Y039220*
X065201Y039242*
X065230Y039265*
X065257Y039290*
X065283Y039318*
X065306Y039347*
X065328Y039377*
X065347Y039409*
X065364Y039443*
X065379Y039477*
X065391Y039512*
X065401Y039548*
X065408Y039585*
X065413Y039622*
X065415Y039659*
X065415Y039670*
X063380Y039861D02*
D01*
X063365Y039895*
X063348Y039928*
X063329Y039960*
X063307Y039991*
X063284Y040020*
X063259Y040047*
X063231Y040073*
X063202Y040096*
X063172Y040118*
X063140Y040137*
X063106Y040154*
X063072Y040169*
X063037Y040181*
X063001Y040191*
X062964Y040198*
X062927Y040203*
X062890Y040205*
X062852Y040204*
X062815Y040201*
X062778Y040195*
X062742Y040187*
X062706Y040176*
X062671Y040163*
X062637Y040147*
X062605Y040129*
X062573Y040108*
X062543Y040086*
X062515Y040062*
X062489Y040035*
X062464Y040007*
X062442Y039977*
X062421Y039946*
X062403Y039913*
X062387Y039879*
X062374Y039845*
X062363Y039809*
X062354Y039772*
X062348Y039736*
X062345Y039698*
X062344Y039661*
X062346Y039624*
X062351Y039587*
X062358Y039550*
X062367Y039514*
X062380Y039479*
X062394Y039444*
X062411Y039411*
X062430Y039379*
X062452Y039348*
X062475Y039319*
X062500Y039292*
X062528Y039266*
X062557Y039243*
X062587Y039221*
X062614Y039205*
X064380Y039861D02*
D01*
X064365Y039895*
X064348Y039928*
X064329Y039960*
X064307Y039991*
X064284Y040020*
X064259Y040047*
X064231Y040073*
X064202Y040096*
X064172Y040118*
X064140Y040137*
X064106Y040154*
X064072Y040169*
X064037Y040181*
X064001Y040191*
X063964Y040198*
X063927Y040203*
X063890Y040205*
X063852Y040204*
X063815Y040201*
X063778Y040195*
X063742Y040187*
X063706Y040176*
X063671Y040163*
X063637Y040147*
X063605Y040129*
X063573Y040108*
X063543Y040086*
X063515Y040062*
X063489Y040035*
X063464Y040007*
X063442Y039977*
X063421Y039946*
X063403Y039913*
X063387Y039879*
X063380Y039861*
X065415Y039670D02*
D01*
X065413Y039707*
X065409Y039744*
X065403Y039781*
X065394Y039817*
X065382Y039852*
X065368Y039887*
X065352Y039921*
X065333Y039953*
X065312Y039984*
X065289Y040013*
X065264Y040041*
X065237Y040067*
X065209Y040091*
X065179Y040113*
X065147Y040133*
X065114Y040150*
X065080Y040166*
X065045Y040178*
X065009Y040189*
X064972Y040196*
X064935Y040202*
X064898Y040204*
X064861*
X064824Y040202*
X064787Y040196*
X064750Y040189*
X064714Y040178*
X064679Y040166*
X064645Y040150*
X064612Y040133*
X064580Y040113*
X064550Y040091*
X064522Y040067*
X064495Y040041*
X064470Y040013*
X064447Y039984*
X064426Y039953*
X064407Y039921*
X064391Y039887*
X064380Y039861*
X065400Y020729D02*
D01*
X065414Y020694*
X065431Y020661*
X065450Y020629*
X065472Y020598*
X065495Y020569*
X065520Y020542*
X065548Y020516*
X065577Y020493*
X065607Y020471*
X065639Y020452*
X065673Y020435*
X065707Y020420*
X065742Y020408*
X065778Y020398*
X065815Y020391*
X065852Y020386*
X065889Y020384*
X065927Y020385*
X065964Y020388*
X066001Y020394*
X066037Y020402*
X066073Y020413*
X066108Y020426*
X066142Y020442*
X066174Y020460*
X066206Y020481*
X066236Y020503*
X066264Y020527*
X066290Y020554*
X066315Y020582*
X066337Y020612*
X066358Y020643*
X066376Y020676*
X066392Y020710*
X066405Y020744*
X066416Y020780*
X066425Y020817*
X066431Y020853*
X066434Y020891*
X066435Y020920*
X068540Y020900D02*
D01*
X068538Y020937*
X068534Y020975*
X068528Y021012*
X068519Y021048*
X068507Y021084*
X068493Y021119*
X068476Y021153*
X068457Y021186*
X068436Y021217*
X068413Y021247*
X068388Y021275*
X068361Y021301*
X068332Y021325*
X068301Y021347*
X068270Y021367*
X068236Y021385*
X068202Y021400*
X068166Y021413*
X068130Y021423*
X068093Y021431*
X068056Y021437*
X068018Y021439*
X067981*
X067943Y021437*
X067906Y021431*
X067869Y021423*
X067833Y021413*
X067797Y021400*
X067763Y021385*
X067730Y021367*
X067698Y021347*
X067667Y021325*
X067638Y021301*
X067611Y021275*
X067586Y021247*
X067563Y021217*
X067542Y021186*
X067523Y021153*
X067506Y021119*
X067492Y021084*
X067480Y021048*
X067471Y021012*
X067465Y020975*
X067461Y020937*
X067460Y020900*
X067461Y020862*
X067465Y020824*
X067471Y020787*
X067480Y020751*
X067492Y020715*
X067506Y020680*
X067523Y020646*
X067542Y020613*
X067563Y020582*
X067586Y020552*
X067611Y020524*
X067638Y020498*
X067667Y020474*
X067698Y020452*
X067730Y020432*
X067763Y020414*
X067797Y020399*
X067833Y020386*
X067869Y020376*
X067906Y020368*
X067943Y020362*
X067981Y020360*
X068018*
X068056Y020362*
X068093Y020368*
X068130Y020376*
X068166Y020386*
X068202Y020399*
X068236Y020414*
X068270Y020432*
X068301Y020452*
X068332Y020474*
X068361Y020498*
X068388Y020524*
X068413Y020552*
X068436Y020582*
X068457Y020613*
X068476Y020646*
X068493Y020680*
X068507Y020715*
X068519Y020751*
X068528Y020787*
X068534Y020824*
X068538Y020862*
X068540Y020900*
X066435Y020920D02*
D01*
X066433Y020957*
X066429Y020994*
X066423Y021031*
X066414Y021067*
X066402Y021102*
X066388Y021137*
X066372Y021171*
X066353Y021203*
X066332Y021234*
X066309Y021263*
X066284Y021291*
X066257Y021317*
X066229Y021341*
X066199Y021363*
X066167Y021383*
X066134Y021400*
X066100Y021416*
X066091Y021420*
D01*
X066125Y021434*
X066158Y021451*
X066190Y021470*
X066221Y021492*
X066250Y021515*
X066277Y021540*
X066303Y021568*
X066326Y021597*
X066348Y021627*
X066367Y021659*
X066384Y021693*
X066399Y021727*
X066411Y021762*
X066421Y021798*
X066428Y021835*
X066433Y021872*
X066435Y021909*
X066435Y021920*
D01*
X066433Y021957*
X066429Y021994*
X066423Y022031*
X066414Y022067*
X066402Y022102*
X066388Y022137*
X066372Y022171*
X066353Y022203*
X066332Y022234*
X066309Y022263*
X066284Y022291*
X066257Y022317*
X066236Y022336*
X068440Y021900D02*
D01*
X068438Y021930*
X068435Y021961*
X068430Y021991*
X068422Y022021*
X068413Y022050*
X068401Y022078*
X068388Y022106*
X068373Y022133*
X068355Y022158*
X068337Y022182*
X068316Y022205*
X068294Y022226*
X068270Y022246*
X068246Y022264*
X068220Y022281*
X068192Y022295*
X068164Y022307*
X068135Y022318*
X068106Y022326*
X068076Y022333*
X068045Y022337*
X068015Y022339*
X067984*
X067954Y022337*
X067923Y022333*
X067893Y022326*
X067864Y022318*
X067835Y022307*
X067807Y022295*
X067780Y022281*
X067753Y022264*
X067729Y022246*
X067705Y022226*
X067683Y022205*
X067662Y022182*
X067644Y022158*
X067626Y022133*
X067611Y022106*
X067598Y022078*
X067586Y022050*
X067577Y022021*
X067569Y021991*
X067564Y021961*
X067561Y021930*
X067560Y021900*
X067561Y021869*
X067564Y021838*
X067569Y021808*
X067577Y021778*
X067586Y021749*
X067598Y021721*
X067611Y021693*
X067626Y021666*
X067644Y021641*
X067662Y021617*
X067683Y021594*
X067705Y021573*
X067729Y021553*
X067753Y021535*
X067780Y021518*
X067807Y021504*
X067835Y021492*
X067864Y021481*
X067893Y021473*
X067923Y021466*
X067954Y021462*
X067984Y021460*
X068015*
X068045Y021462*
X068076Y021466*
X068106Y021473*
X068135Y021481*
X068164Y021492*
X068192Y021504*
X068220Y021518*
X068246Y021535*
X068270Y021553*
X068294Y021573*
X068316Y021594*
X068337Y021617*
X068355Y021641*
X068373Y021666*
X068388Y021693*
X068401Y021721*
X068413Y021749*
X068422Y021778*
X068430Y021808*
X068435Y021838*
X068438Y021869*
X068440Y021900*
X067481Y023050D02*
D01*
X067471Y023013*
X067465Y022976*
X067461Y022938*
X067459Y022901*
X067460Y022863*
X067464Y022825*
X067471Y022788*
X067480Y022752*
X067491Y022716*
X067506Y022681*
X067522Y022647*
X067541Y022614*
X067562Y022583*
X067585Y022553*
X067610Y022525*
X067637Y022499*
X067666Y022474*
X067696Y022452*
X067728Y022432*
X067762Y022414*
X067796Y022399*
X067831Y022386*
X067868Y022376*
X067905Y022368*
X067942Y022362*
X067980Y022360*
X068017Y022360*
X068055Y022362*
X068092Y022367*
X068129Y022375*
X068165Y022385*
X068201Y022398*
X068235Y022413*
X068269Y022431*
X068301Y022451*
X068331Y022473*
X068360Y022497*
X068387Y022523*
X068413Y022551*
X068420Y022560*
X069335Y022384D02*
D01*
X069352Y022367*
X069370Y022352*
X069390Y022339*
X069410Y022326*
X069431Y022316*
X069453Y022306*
X069475Y022298*
X069498Y022292*
X069515Y022290*
X069336Y022384D02*
D01*
X069353Y022367*
X069371Y022352*
X069391Y022339*
X069411Y022327*
X069432Y022316*
X069454Y022307*
X069476Y022299*
X069499Y022293*
X069515Y022290*
X072547Y021950D02*
D01*
X072546Y021970*
X072544Y021991*
X072540Y022011*
X072535Y022031*
X072529Y022051*
X072521Y022070*
X072512Y022089*
X072501Y022107*
X072490Y022124*
X072477Y022140*
X072463Y022156*
X072448Y022170*
X072432Y022184*
X072416Y022196*
X072398Y022207*
X072380Y022216*
X072361Y022225*
X072341Y022232*
X072321Y022238*
X072301Y022242*
X072281Y022245*
X072260Y022246*
X072239*
X072218Y022245*
X072198Y022242*
X072178Y022238*
X072158Y022232*
X072138Y022225*
X072119Y022216*
X072101Y022207*
X072083Y022196*
X072067Y022184*
X072051Y022170*
X072036Y022156*
X072022Y022140*
X072009Y022124*
X071998Y022107*
X071987Y022089*
X071978Y022070*
X071970Y022051*
X071964Y022031*
X071959Y022011*
X071955Y021991*
X071953Y021970*
X071953Y021950*
X071953Y021929*
X071955Y021908*
X071959Y021888*
X071964Y021868*
X071970Y021848*
X071978Y021829*
X071987Y021810*
X071998Y021792*
X072009Y021775*
X072022Y021759*
X072036Y021743*
X072051Y021729*
X072067Y021715*
X072083Y021703*
X072101Y021692*
X072119Y021683*
X072138Y021674*
X072158Y021667*
X072178Y021661*
X072198Y021657*
X072218Y021654*
X072239Y021653*
X072260*
X072281Y021654*
X072301Y021657*
X072321Y021661*
X072341Y021667*
X072361Y021674*
X072380Y021683*
X072398Y021692*
X072416Y021703*
X072432Y021715*
X072448Y021729*
X072463Y021743*
X072477Y021759*
X072490Y021775*
X072501Y021792*
X072512Y021810*
X072521Y021829*
X072529Y021848*
X072535Y021868*
X072540Y021888*
X072544Y021908*
X072546Y021929*
X072547Y021950*
X072200Y022310D02*
D01*
X072227Y022310*
X072254Y022313*
X072281Y022318*
X072307Y022325*
X072333Y022333*
X072358Y022343*
X072383Y022355*
X072406Y022369*
X072429Y022384*
X072450Y022401*
X072470Y022419*
X072476Y022424*
X072200Y022310D02*
D01*
X072227Y022310*
X072254Y022313*
X072281Y022318*
X072307Y022325*
X072333Y022333*
X072358Y022343*
X072383Y022355*
X072406Y022369*
X072429Y022384*
X072450Y022401*
X072470Y022419*
X072476Y022424*
X073226Y023174D02*
D01*
X073244Y023193*
X073261Y023215*
X073277Y023237*
X073291Y023260*
X073303Y023285*
X073314Y023310*
X073323Y023335*
X073330Y023362*
X073335Y023388*
X073338Y023415*
X073340Y023443*
X073340Y023450*
X073226Y023174D02*
D01*
X073244Y023193*
X073261Y023215*
X073277Y023237*
X073291Y023260*
X073303Y023285*
X073314Y023310*
X073323Y023335*
X073330Y023362*
X073335Y023388*
X073338Y023415*
X073340Y023443*
X073340Y023450*
X066257Y038290D02*
D01*
X066282Y038317*
X066306Y038346*
X066327Y038376*
X066347Y038408*
X066364Y038441*
X066378Y038476*
X066391Y038511*
X066401Y038547*
X066408Y038584*
X066413Y038621*
X066415Y038658*
X066415Y038670*
D01*
X066413Y038707*
X066409Y038744*
X066403Y038781*
X066394Y038817*
X066382Y038852*
X066368Y038887*
X066352Y038921*
X066333Y038953*
X066312Y038984*
X066289Y039013*
X066264Y039041*
X066237Y039067*
X066209Y039091*
X066179Y039113*
X066147Y039133*
X066114Y039150*
X066080Y039166*
X066045Y039178*
X066009Y039189*
X065972Y039196*
X065935Y039202*
X065898Y039204*
X065861*
X065824Y039202*
X065787Y039196*
X065750Y039189*
X065714Y039178*
X065679Y039166*
X065645Y039150*
X065612Y039133*
X065580Y039113*
X065550Y039091*
X065522Y039067*
X065495Y039041*
X065470Y039013*
X065447Y038984*
X065426Y038953*
X065407Y038921*
X065391Y038887*
X065380Y038861*
X066315Y039670D02*
D01*
X066313Y039700*
X066310Y039730*
X066305Y039760*
X066298Y039789*
X066288Y039818*
X066277Y039846*
X066264Y039874*
X066248Y039900*
X066231Y039925*
X066213Y039949*
X066192Y039972*
X066171Y039993*
X066147Y040012*
X066123Y040030*
X066097Y040046*
X066070Y040060*
X066042Y040073*
X066014Y040083*
X065985Y040092*
X065955Y040098*
X065925Y040102*
X065895Y040104*
X065864*
X065834Y040102*
X065804Y040098*
X065774Y040092*
X065745Y040083*
X065717Y040073*
X065689Y040060*
X065662Y040046*
X065636Y040030*
X065612Y040012*
X065588Y039993*
X065567Y039972*
X065546Y039949*
X065528Y039925*
X065511Y039900*
X065495Y039874*
X065482Y039846*
X065471Y039818*
X065461Y039789*
X065454Y039760*
X065449Y039730*
X065446Y039700*
X065445Y039670*
X065446Y039639*
X065449Y039609*
X065454Y039579*
X065461Y039550*
X065471Y039521*
X065482Y039493*
X065495Y039465*
X065511Y039439*
X065528Y039414*
X065546Y039390*
X065567Y039367*
X065588Y039346*
X065612Y039327*
X065636Y039309*
X065662Y039293*
X065689Y039279*
X065717Y039266*
X065745Y039256*
X065774Y039247*
X065804Y039241*
X065834Y039237*
X065864Y039235*
X065895*
X065925Y039237*
X065955Y039241*
X065985Y039247*
X066014Y039256*
X066042Y039266*
X066070Y039279*
X066097Y039293*
X066123Y039309*
X066147Y039327*
X066171Y039346*
X066192Y039367*
X066213Y039390*
X066231Y039414*
X066248Y039439*
X066264Y039465*
X066277Y039493*
X066288Y039521*
X066298Y039550*
X066305Y039579*
X066310Y039609*
X066313Y039639*
X066315Y039670*
X068185Y039650D02*
D01*
X068183Y039680*
X068180Y039710*
X068175Y039740*
X068168Y039769*
X068158Y039798*
X068147Y039826*
X068134Y039854*
X068118Y039880*
X068101Y039905*
X068083Y039929*
X068062Y039952*
X068041Y039973*
X068017Y039992*
X067993Y040010*
X067967Y040026*
X067940Y040040*
X067912Y040053*
X067884Y040063*
X067855Y040072*
X067825Y040078*
X067795Y040082*
X067765Y040084*
X067734*
X067704Y040082*
X067674Y040078*
X067644Y040072*
X067615Y040063*
X067587Y040053*
X067559Y040040*
X067532Y040026*
X067506Y040010*
X067482Y039992*
X067458Y039973*
X067437Y039952*
X067416Y039929*
X067398Y039905*
X067381Y039880*
X067365Y039854*
X067352Y039826*
X067341Y039798*
X067331Y039769*
X067324Y039740*
X067319Y039710*
X067316Y039680*
X067315Y039650*
X067316Y039619*
X067319Y039589*
X067324Y039559*
X067331Y039530*
X067341Y039501*
X067352Y039473*
X067365Y039445*
X067381Y039419*
X067398Y039394*
X067416Y039370*
X067437Y039347*
X067458Y039326*
X067482Y039307*
X067506Y039289*
X067532Y039273*
X067559Y039259*
X067587Y039246*
X067615Y039236*
X067644Y039227*
X067674Y039221*
X067704Y039217*
X067734Y039215*
X067765*
X067795Y039217*
X067825Y039221*
X067855Y039227*
X067884Y039236*
X067912Y039246*
X067940Y039259*
X067967Y039273*
X067993Y039289*
X068017Y039307*
X068041Y039326*
X068062Y039347*
X068083Y039370*
X068101Y039394*
X068118Y039419*
X068134Y039445*
X068147Y039473*
X068158Y039501*
X068168Y039530*
X068175Y039559*
X068180Y039589*
X068183Y039619*
X068185Y039650*
X071577Y039670D02*
D01*
X071576Y039690*
X071574Y039711*
X071570Y039731*
X071565Y039751*
X071559Y039771*
X071551Y039790*
X071542Y039809*
X071531Y039827*
X071520Y039844*
X071507Y039860*
X071493Y039876*
X071478Y039890*
X071462Y039904*
X071446Y039916*
X071428Y039927*
X071410Y039936*
X071391Y039945*
X071371Y039952*
X071351Y039958*
X071331Y039962*
X071311Y039965*
X071290Y039966*
X071269*
X071248Y039965*
X071228Y039962*
X071208Y039958*
X071188Y039952*
X071168Y039945*
X071149Y039936*
X071131Y039927*
X071113Y039916*
X071097Y039904*
X071081Y039890*
X071066Y039876*
X071052Y039860*
X071039Y039844*
X071028Y039827*
X071017Y039809*
X071008Y039790*
X071000Y039771*
X070994Y039751*
X070989Y039731*
X070985Y039711*
X070983Y039690*
X070983Y039670*
X070983Y039649*
X070985Y039628*
X070989Y039608*
X070994Y039588*
X071000Y039568*
X071008Y039549*
X071017Y039530*
X071028Y039512*
X071039Y039495*
X071052Y039479*
X071066Y039463*
X071081Y039449*
X071097Y039435*
X071113Y039423*
X071131Y039412*
X071149Y039403*
X071168Y039394*
X071188Y039387*
X071208Y039381*
X071228Y039377*
X071248Y039374*
X071269Y039373*
X071290*
X071311Y039374*
X071331Y039377*
X071351Y039381*
X071371Y039387*
X071391Y039394*
X071410Y039403*
X071428Y039412*
X071446Y039423*
X071462Y039435*
X071478Y039449*
X071493Y039463*
X071507Y039479*
X071520Y039495*
X071531Y039512*
X071542Y039530*
X071551Y039549*
X071559Y039568*
X071565Y039588*
X071570Y039608*
X071574Y039628*
X071576Y039649*
X071577Y039670*
X073340Y037450D02*
D01*
X073339Y037477*
X073336Y037504*
X073331Y037531*
X073324Y037557*
X073316Y037583*
X073306Y037608*
X073294Y037633*
X073280Y037656*
X073265Y037679*
X073248Y037700*
X073230Y037720*
X073226Y037726*
X073340Y037450D02*
D01*
X073339Y037477*
X073336Y037504*
X073331Y037531*
X073324Y037557*
X073316Y037583*
X073306Y037608*
X073294Y037633*
X073280Y037656*
X073265Y037679*
X073248Y037700*
X073230Y037720*
X073226Y037726*
X072026Y038926D02*
D01*
X072006Y038944*
X071984Y038961*
X071962Y038977*
X071939Y038991*
X071914Y039003*
X071889Y039014*
X071864Y039023*
X071837Y039030*
X071811Y039035*
X071784Y039038*
X071756Y039040*
X071750Y039040*
X072026Y038926D02*
D01*
X072006Y038944*
X071984Y038961*
X071962Y038977*
X071939Y038991*
X071914Y039003*
X071889Y039014*
X071864Y039023*
X071837Y039030*
X071811Y039035*
X071784Y039038*
X071756Y039040*
X071750Y039040*
X026974Y036100D02*
X027050Y036024D01*
Y036050D02*
Y036100D01*
X026758Y035809D02*
X027049Y036100D01*
X025497D02*
X027050D01*
X026408D02*
X026699Y035809D01*
X026475D02*
X026766Y036100D01*
X026691D02*
X026982Y035809D01*
X026138D02*
X027048D01*
X026193D02*
X026483Y036100D01*
X026125D02*
X026416Y035809D01*
X025843Y036100D02*
X026138Y035805D01*
X025497Y035962D02*
X025635Y036100D01*
X026138Y035755D02*
X026193Y035809D01*
X024855Y035779D02*
X025497D01*
Y036100*
X027048Y034250D02*
Y035809D01*
X026982D02*
X027048Y035743D01*
X027050Y034250D02*
Y036050D01*
X025560Y036100D02*
X026138Y035522D01*
X025497Y035880D02*
X026138Y035239D01*
X025315Y035779D02*
X026138Y034956D01*
X025032Y035779D02*
X026138Y034673D01*
Y034250D02*
Y035809D01*
X024855Y035700D02*
Y035779D01*
X024916Y034250D02*
X026138Y035472D01*
X025765Y034250D02*
X026138Y034623D01*
X026048Y034250D02*
X026138Y034340D01*
X025199Y034250D02*
X026138Y035189D01*
X025482Y034250D02*
X026138Y034906D01*
X024351Y034250D02*
X026201Y036100D01*
X023640Y036040D02*
X025430Y034250D01*
X023785D02*
X025314Y035779D01*
X024828Y035700D02*
X026138Y034390D01*
X024633Y034250D02*
X026138Y035755D01*
X023985Y035700D02*
X024855D01*
X024545D02*
X025996Y034250D01*
X023863Y036100D02*
X023985Y035978D01*
Y035700D02*
Y036100D01*
X023700D02*
X023985D01*
X022750Y035150D02*
X023700Y036100D01*
X022750Y034347D02*
X024104Y035700D01*
X022750Y034347D02*
X024104Y035700D01*
X022750Y034912D02*
X023938Y036100D01*
X022750Y034629D02*
X023985Y035864D01*
X023502Y034250D02*
X025031Y035779D01*
X024068Y034250D02*
X025918Y036100D01*
X023357Y035757D02*
X024864Y034250D01*
X023498Y035898D02*
X025147Y034250D01*
X023219D02*
X024669Y035700D01*
X024263D02*
X025713Y034250D01*
X022750D02*
X026138D01*
X023216Y035616D02*
X024581Y034250D01*
X022936D02*
X024386Y035700D01*
X023074Y035474D02*
X024298Y034250D01*
X022791Y035191D02*
X023733Y034250D01*
X022933Y035333D02*
X024016Y034250D01*
X022750Y034667D02*
X023167Y034250D01*
X022750Y034384D02*
X022884Y034250D01*
X022750Y035150D02*
Y034250D01*
Y034950D02*
X023450Y034250D01*
X044810Y036553D02*
Y037390D01*
Y036553D02*
X044924Y036439D01*
X044800Y037365D02*
Y038200D01*
X044024Y037365D02*
X044040Y037350D01*
X044800*
X038057Y023603D02*
X042658Y019002D01*
X038285Y023092D02*
X042147Y019230D01*
X038616Y022478D02*
X041533Y019561D01*
X039237Y021574D02*
X040629Y020183D01*
X039182Y021645D02*
X042155Y024619D01*
X038610Y022488D02*
X040545Y024423D01*
X039702Y021034D02*
X042815Y024147D01*
X039306Y021487D02*
X042135Y024316D01*
X039435Y021333D02*
X042280Y024178D01*
X039982Y020749D02*
X042915Y023681D01*
X039840Y020890D02*
X042829Y023878D01*
X040127Y020611D02*
X042915Y023399D01*
X039982Y020749D02*
X042915Y023681D01*
X038828Y022140D02*
X042859Y026171D01*
X038717Y022312D02*
X042925Y026520D01*
X039566Y021182D02*
X042815Y024430D01*
X038942Y021972D02*
X042859Y025888D01*
X039060Y021807D02*
X042859Y025605D01*
X038311Y023038D02*
X039696Y024423D01*
X038220Y023229D02*
X039414Y024423D01*
X038507Y022668D02*
X040262Y024423D01*
X038407Y022851D02*
X039979Y024423D01*
X037895Y024035D02*
X038282Y024423D01*
X037825Y024248D02*
X037999Y024423D01*
X038132Y023424D02*
X039131Y024423D01*
X037969Y023827D02*
X038565Y024423D01*
X038048Y023623D02*
X038848Y024423D01*
X040682D02*
X041050Y024791D01*
X037772Y024423D02*
X040682D01*
X041222Y024963D02*
X042915Y023270D01*
X041050Y024791D02*
X041350Y025091D01*
Y025684D02*
X042303Y024731D01*
X041350Y026249D02*
X042815Y024785D01*
X041350Y026532D02*
X042859Y025023D01*
X041350Y025967D02*
X042815Y024502D01*
X041350Y025228D02*
X042531Y026409D01*
X041350Y026815D02*
X042859Y025306D01*
X042555Y024196D02*
X042815Y023936D01*
X041350Y025118D02*
X042121Y024347D01*
X041350Y025401D02*
X042146Y024605D01*
X042815Y023878D02*
Y024870D01*
X042297Y024171D02*
X042915Y023553D01*
X042815Y023878D02*
X042915D01*
Y023230D02*
Y023878D01*
X042815Y023936D02*
X042873Y023878D01*
X042915Y023836*
X042231Y024695D02*
X042859Y025323D01*
X042534Y024715D02*
X042859Y025040D01*
X042681Y024353D02*
X042815Y024219D01*
X042672Y024570D02*
X042815Y024713D01*
Y024870D02*
X042859D01*
X041350Y025511D02*
X042248Y026409D01*
X041350Y025794D02*
X042063Y026507D01*
Y026409D02*
X042737D01*
X041350Y026077D02*
X042063Y026790D01*
X042036Y026978D02*
X042063Y026950D01*
Y026409D02*
Y026978D01*
X042859Y025637D02*
Y026337D01*
X042322Y026409D02*
X042859Y025872D01*
Y024870D02*
Y025463D01*
Y025637*
Y025463D02*
Y025637D01*
X042605Y026409D02*
X042859Y026155D01*
X042737Y026560D02*
X042925Y026371D01*
X042737Y026409D02*
Y026978D01*
Y026898D02*
X042817Y026978D01*
X042737Y026615D02*
X042921Y026799D01*
X040832Y028181D02*
X041111Y027903D01*
X040832Y028104D02*
X041111Y028383D01*
X040999Y027706D02*
X041111Y027817D01*
X040858Y027847D02*
X041111Y028100D01*
X040832Y027873D02*
Y032408D01*
Y028670D02*
X041122Y028960D01*
X041111Y027690D02*
Y028410D01*
X040832Y028464D02*
X041111Y028186D01*
X040832Y028747D02*
X041123Y028456D01*
X040832Y027873D02*
X041350Y027355D01*
X041111Y027690D02*
X041850D01*
X041324D02*
X041963Y027050D01*
X041141Y027564D02*
X041266Y027690D01*
X041282Y027423D02*
X041549Y027690D01*
X040832Y027898D02*
X042063Y026668D01*
X040832Y028387D02*
X041142Y028697D01*
X041111Y028383D02*
X041138Y028410D01*
X040832Y029030D02*
X041150Y028713D01*
X040832Y028953D02*
X041267Y029388D01*
X040832Y029313D02*
X041111Y029034D01*
X040832Y029596D02*
X041174Y029254D01*
X040832Y029236D02*
X041222Y029625D01*
X040832Y029878D02*
X041217Y029494D01*
X040832Y030161D02*
X041274Y029720D01*
X040832Y030444D02*
X041466Y029810D01*
X040832Y029519D02*
X042123Y030810D01*
X040832Y029801D02*
X041953Y030922D01*
X040832Y030727D02*
X041749Y029810D01*
X040832Y031010D02*
X042141Y029701D01*
X040832Y031293D02*
X042141Y029984D01*
X040832Y030084D02*
X041860Y031112D01*
X040832Y031575D02*
X042350Y030058D01*
X040832Y030367D02*
X041860Y031395D01*
X040832Y031858D02*
X042632Y030058D01*
X041350Y027355D02*
Y025091D01*
Y026642D02*
X041963Y027255D01*
X041350Y026925D02*
X041963Y027538D01*
Y026978D02*
Y027662D01*
X041350Y027208D02*
X041832Y027690D01*
X041607D02*
X041963Y027333D01*
X041908Y027671D02*
X041963Y027616D01*
X041350Y026359D02*
X041969Y026978D01*
X041963D02*
X042063D01*
X042837Y027025D02*
X042925Y026937D01*
X042737Y026978D02*
X042837D01*
Y026998D02*
X042869Y027030D01*
X041350Y027098D02*
X042859Y025589D01*
X042854Y027045D02*
X042925Y026973D01*
X041963Y027050D02*
X042036Y026978D01*
X042837D02*
Y027045D01*
X042076Y029631D02*
X042141Y029696D01*
X041395Y029799D02*
X042428Y030831D01*
X041471Y029810D02*
X041829D01*
X042141Y029619D02*
Y030058D01*
X041945Y029783D02*
X042141Y029978D01*
X042220Y030058*
X042141D02*
X042666D01*
X042745Y030205D02*
X042867Y030328D01*
X041689Y029810D02*
X042802Y030923D01*
X042178Y030796D02*
X042757Y030217D01*
X042503Y030058D02*
X042867Y030422D01*
X042426Y030830D02*
X042867Y030389D01*
Y030328D02*
Y030532D01*
X043146Y018821D02*
X043775Y019450D01*
X037888Y024054D02*
X043109Y018833D01*
X043579Y018689D02*
X043775Y018885D01*
X043360Y018752D02*
X043775Y019167D01*
X037802Y024423D02*
X043521Y018705D01*
X038085Y024423D02*
X043775Y018734D01*
X038651Y024423D02*
X043775Y019299D01*
X038368Y024423D02*
X043775Y019016D01*
X042335Y019141D02*
X044714Y021521D01*
X042142Y019232D02*
X044714Y021804D01*
X042936Y018895D02*
X043865Y019823D01*
X042731Y018973D02*
X043783Y020025D01*
X042531Y019055D02*
X043827Y020351D01*
X038934Y024423D02*
X043775Y019582D01*
X041413Y019634D02*
X044059Y022280D01*
X041954Y019327D02*
X044714Y022087D01*
X041590Y019528D02*
X044232Y022170D01*
X041770Y019425D02*
X044553Y022208D01*
X040428Y020346D02*
X043312Y023230D01*
X040276Y020477D02*
X043029Y023230D01*
X040583Y020219D02*
X043595Y023230D01*
X042915D02*
X043785D01*
X039499Y024423D02*
X043775Y020147D01*
X039782Y024423D02*
X043836Y020369D01*
X042915Y023270D02*
X042955Y023230D01*
X041240Y019744D02*
X043962Y022466D01*
X042955Y023230D02*
X044714Y021471D01*
X043775Y019655D02*
X044044D01*
X043238Y023230D02*
X043954Y022514D01*
X043521Y023230D02*
X044004Y022746D01*
X040348Y024423D02*
X044143Y020628D01*
X040631Y024423D02*
X044408Y020646D01*
X041070Y019857D02*
X044458Y023245D01*
X040742Y020095D02*
X044041Y023393D01*
X040905Y019974D02*
X044324Y023393D01*
X043775Y018637D02*
Y019655D01*
X043980D02*
X044005Y019680D01*
X044337Y022947D02*
X044458Y023069D01*
X043785Y023248D02*
X044144Y022890D01*
X043785Y023230D02*
Y023393D01*
X043923D02*
X044353Y022963D01*
X044206Y023393D02*
X044458Y023141D01*
X044079Y020603D02*
X044714Y021238D01*
X044314Y022154D02*
X044714Y021754D01*
X044423Y020643D02*
X044714Y020934D01*
X044546Y022204D02*
X044714Y022037D01*
X044405Y020647D02*
X044714Y020956D01*
X044458Y023069D02*
Y023286D01*
X044714Y020934D02*
Y022391D01*
X044692Y022347D02*
X044714Y022370D01*
X044690Y022344D02*
X044714Y022319D01*
X043785Y023393D02*
X044387D01*
X044324D02*
X044387Y023456D01*
X044440Y023509*
X044387Y023778D02*
X044440Y023726D01*
Y023393D02*
Y023963D01*
X044387Y023393D02*
Y023963D01*
Y023739D02*
X044440Y023792D01*
X044387Y023495D02*
X044440Y023443D01*
X044387Y023963D02*
X044440D01*
X044577Y024220D02*
X044617Y024260D01*
X044598Y024233D02*
X044625Y024260D01*
X044617D02*
X044662D01*
X044835D02*
X044918D01*
X042859Y026337D02*
X042925D01*
X042737Y026842D02*
X042925Y026654D01*
Y026337D02*
Y026673D01*
Y026827D02*
Y026973D01*
X043890Y028051D02*
X043954Y028115D01*
X043890Y027690D02*
Y028150D01*
Y028630*
Y028235D02*
X043953Y028172D01*
X039217Y024423D02*
X043984Y019655D01*
X040065Y024423D02*
X043962Y020526D01*
X040798Y024539D02*
X044558Y020778D01*
X040939Y024680D02*
X044700Y020920D01*
X041081Y024822D02*
X044714Y021188D01*
X043890Y027690D02*
X044190Y027390D01*
X043890Y027768D02*
X044033Y027911D01*
X043890Y027952D02*
X044458Y027384D01*
X043993Y027588D02*
X044191Y027786D01*
X043890Y028518D02*
X044027Y028381D01*
X043890Y028630D02*
X044005Y028745D01*
X042220Y030058D02*
X042972Y030810D01*
X042578Y030962D02*
X043007Y030532D01*
X043881Y030379D02*
X044005Y030255D01*
X042867Y030422D02*
X042977Y030532D01*
X043859Y030399D02*
Y030532D01*
X043890Y028334D02*
X045021Y029464D01*
X043890Y028616D02*
X045021Y029747D01*
X043975Y028715D02*
X044181Y028510D01*
X043497Y031173D02*
X045021Y029650D01*
X043543Y030532D02*
X044185Y031174D01*
X043859Y030528D02*
X045021Y029367D01*
X043918Y030342D02*
X044326Y030750D01*
X044052Y030193D02*
X044609Y030750D01*
X044374Y026337D02*
X044441Y026270D01*
X044275Y026337D02*
X044441D01*
Y026239D02*
Y026337D01*
X044134Y027446D02*
X044454Y027766D01*
X044275Y026436D02*
X044374Y026337D01*
X044275D02*
Y027185D01*
Y026738D02*
X044458Y026922D01*
X044275Y027002D02*
X044458Y026818D01*
X044275Y026719D02*
X044458Y026535D01*
X044275Y026456D02*
X044458Y026639D01*
X044244Y027315D02*
X044458Y027101D01*
X044257Y027286D02*
X044458Y027488D01*
Y026314D02*
Y027748D01*
X044372Y027753D02*
X044458Y027666D01*
X044275Y027021D02*
X044458Y027205D01*
X044084Y028890D02*
X044332Y028642D01*
X044090Y029166D02*
X044473Y028783D01*
X044742Y028232D02*
X044782Y028192D01*
X044090Y028950D02*
Y030050D01*
Y029948D02*
X044892Y030750D01*
X044090Y029449D02*
X044614Y028925D01*
X044090Y029732D02*
X044756Y029066D01*
X044090Y030015D02*
X044897Y029207D01*
X044213Y028523D02*
X045021Y029331D01*
X044090Y029099D02*
X045021Y030030D01*
X044747Y028158D02*
X045845Y029255D01*
X044883Y028373D02*
X044923Y028333D01*
X044739Y028229D02*
X045516Y029006D01*
X044090Y029382D02*
X045021Y030313D01*
X044090Y029665D02*
X045021Y030596D01*
X044204Y030750D02*
X045021Y029933D01*
X044769Y030750D02*
X045021Y030498D01*
X044486Y030750D02*
X045021Y030216D01*
X040832Y032141D02*
X041859Y031114D01*
X040832Y031498D02*
X041816Y032482D01*
X040832Y031781D02*
X041693Y032642D01*
X040250Y032991D02*
X040832Y032408D01*
X040722Y032519D02*
X041660Y033458D01*
X040832Y032064D02*
X041660Y032892D01*
X040832Y032347D02*
X041660Y033175D01*
X041860Y031263D02*
Y031450D01*
X040832Y030650D02*
X042426Y032244D01*
X040832Y030933D02*
X042123Y032223D01*
X040832Y031216D02*
X041953Y032336D01*
X041774Y032524D02*
X041920Y032378D01*
X037915Y033079D02*
X038003Y032991D01*
X037884D02*
X040250D01*
X038071Y033488D02*
X038569Y032991D01*
X037991Y033286D02*
X038286Y032991D01*
X038244Y033881D02*
X039134Y032991D01*
X038156Y033687D02*
X038851Y032991D01*
X039496D02*
X040387Y033882D01*
X038337Y034071D02*
X039417Y032991D01*
X038434Y034257D02*
X039700Y032991D01*
X040580Y032661D02*
X041660Y033740D01*
X039779Y032991D02*
X040535Y033746D01*
X040664Y033723D02*
X041668Y032719D01*
X040947Y034006D02*
X041660Y033293D01*
X040860Y033810D02*
X041660Y033010D01*
X039213Y032991D02*
X040393Y034171D01*
X040439Y032802D02*
X041660Y034023D01*
X042606Y031009D02*
X042709Y031113D01*
X042647Y031175D02*
X042709Y031112D01*
X042640Y031288D02*
X042810Y031459D01*
X041974Y031726D02*
X042660Y032412D01*
X042179Y032209D02*
X042318Y032070D01*
X043011Y031659D02*
X043087Y031584D01*
X042427Y032244D02*
X042459Y032211D01*
X042578Y032375D02*
X042601Y032352D01*
X042977Y030532D02*
X043275Y030830D01*
X043152Y031801D02*
X043228Y031725D01*
X043026Y030796D02*
X043290Y030532D01*
X042828Y031476D02*
X043326Y031974D01*
X043294Y031942D02*
X043370Y031866D01*
X043440Y032362D02*
X043510Y032292D01*
X042440Y032962D02*
X042471Y032930D01*
X042627Y032727D02*
X042660Y032761D01*
X042514Y032897D02*
X042660Y033043D01*
X042440Y033389D02*
X042660Y033609D01*
X042440Y033928D02*
X042660Y033708D01*
X042440Y033079D02*
X042660Y032859D01*
X042440Y033362D02*
X042660Y033142D01*
X042440Y033106D02*
X042660Y033326D01*
X043440Y032409D02*
X043510Y032479D01*
X042606Y032424D02*
X042660Y032478D01*
X043440Y032928D02*
X043510Y032858D01*
X043440Y033493D02*
X043510Y033423D01*
X043440Y033210D02*
X043510Y033140D01*
X042440Y033645D02*
X042660Y033425D01*
X042440Y033672D02*
X042660Y033892D01*
X042440Y033955D02*
X042660Y034175D01*
X042440Y034210D02*
X042660Y033990D01*
X043440Y034059D02*
X043510Y033989D01*
X040062Y032991D02*
X041660Y034589D01*
X038535Y034439D02*
X039983Y032991D01*
X038647D02*
X041660Y036003D01*
X038365Y032991D02*
X041660Y036286D01*
X038930Y032991D02*
X041660Y035720D01*
X039093Y035295D02*
X040353Y034035D01*
X039603Y035916D02*
X041660Y033859D01*
X038639Y034617D02*
X041860Y031396D01*
X038747Y034792D02*
X041906Y031633D01*
X038859Y034963D02*
X042035Y031787D01*
X040297Y032943D02*
X041660Y034306D01*
X038974Y035131D02*
X042177Y031928D01*
X038082Y032991D02*
X043411Y038320D01*
X037930Y033121D02*
X042990Y038182D01*
X039471Y035766D02*
X041660Y033576D01*
X038362Y034119D02*
X041992Y037749D01*
X038112Y033587D02*
X042525Y037999D01*
X039215Y035455D02*
X040440Y034231D01*
X039341Y035612D02*
X040636Y034318D01*
X040924Y034136D02*
X041660Y034872D01*
X040789Y034284D02*
X041660Y035155D01*
X038739Y034780D02*
X041332Y037372D01*
X039731Y036054D02*
X040057Y036380D01*
X039739Y036063D02*
X041660Y034142D01*
X040021Y036346D02*
X041660Y034708D01*
X039879Y036206D02*
X041660Y034425D01*
X040168Y036483D02*
X041660Y034990D01*
X040317Y036616D02*
X041660Y035273D01*
X040500Y034277D02*
X041660Y035437D01*
X040626Y036872D02*
X041660Y035839D01*
X040470Y036746D02*
X041660Y035556D01*
X040786Y036995D02*
X041660Y036122D01*
X040950Y037115D02*
X041663Y036401D01*
X041116Y037231D02*
X041749Y036598D01*
X041287Y037343D02*
X041889Y036741D01*
X041461Y037452D02*
X042031Y036882D01*
X042440Y034520D02*
X042660Y034740D01*
X042440Y034776D02*
X042660Y034556D01*
X042440Y034238D02*
X042660Y034458D01*
X042440Y034493D02*
X042660Y034273D01*
X041660Y032800D02*
Y036350D01*
X042440Y035059D02*
X042660Y034839D01*
Y032412D02*
Y036050D01*
X042440Y032962D02*
Y036188D01*
Y034803D02*
X042660Y035023D01*
X042440Y035625D02*
X042660Y035405D01*
X042440Y035652D02*
X042660Y035872D01*
X042440Y035086D02*
X042660Y035306D01*
X042440Y035369D02*
X042660Y035589D01*
X042440Y035342D02*
X042660Y035122D01*
X042440Y035907D02*
X042660Y035687D01*
X042440Y035935D02*
X042681Y036175D01*
X043440Y032250D02*
Y035888D01*
X042441Y036189D02*
X042660Y035970D01*
X042582Y036331D02*
X042697Y036216D01*
X041639Y037557D02*
X042172Y037024D01*
X041820Y037659D02*
X042314Y037165D01*
X042005Y037756D02*
X042455Y037307D01*
X042195Y037850D02*
X042596Y037448D01*
X042388Y037939D02*
X042738Y037589D01*
X042724Y036472D02*
X042822Y036374D01*
X042865Y036614D02*
X042964Y036515D01*
X043007Y036755D02*
X043105Y036657D01*
X043148Y036896D02*
X043246Y036798D01*
X043289Y037038D02*
X043388Y036939D01*
X041774Y036626D02*
X043254Y038106D01*
X042585Y038025D02*
X042879Y037731D01*
X042787Y038106D02*
X043021Y037872D01*
X042993Y038183D02*
X043162Y038014D01*
X043204Y038255D02*
X043308Y038151D01*
X043275Y030830D02*
X043573Y030532D01*
X042867D02*
X043859D01*
X043427Y030961D02*
X043856Y030532D01*
X043497Y031174D02*
X044005Y031682D01*
X043087Y031584D02*
X043510Y032007D01*
X043407Y032094D02*
X043510Y032196D01*
X043413Y032106D02*
X043510Y032009D01*
X044090Y031887D02*
Y034480D01*
X043260Y030532D02*
X044185Y031457D01*
X043638Y031315D02*
X044185Y030769D01*
X043826Y030532D02*
X044185Y030891D01*
X043921Y031598D02*
X044185Y031334D01*
X043780Y031456D02*
X044185Y031051D01*
X043457Y031012D02*
X044351Y031906D01*
X044054Y031747D02*
X044185Y031617D01*
X044090Y031995D02*
X044351Y031733D01*
X044090Y031928D02*
X044356Y032194D01*
X043440Y032975D02*
X043510Y033045D01*
X043440Y033258D02*
X043510Y033328D01*
X043440Y032645D02*
X043510Y032575D01*
X043440Y032692D02*
X043510Y032762D01*
X043440Y034342D02*
X043510Y034272D01*
X043440Y034389D02*
X043510Y034459D01*
X043440Y033541D02*
X043510Y033611D01*
X043440Y034106D02*
X043510Y034176D01*
X043440Y033776D02*
X043510Y033706D01*
X044090Y032776D02*
X044444Y033130D01*
X044090Y033692D02*
X044636Y033146D01*
X044090Y032843D02*
X044444Y032489D01*
X044090Y033126D02*
X044444Y032772D01*
X044090Y032493D02*
X044444Y032847D01*
X044090Y033625D02*
X044369Y033904D01*
X043440Y033823D02*
X043510Y033893D01*
X044090Y033975D02*
X044818Y033247D01*
X044090Y034257D02*
X044344Y034004D01*
X044090Y033342D02*
X044652Y033904D01*
X044185Y030750D02*
Y031623D01*
X044090Y032278D02*
X044351Y032016D01*
Y031623D02*
Y032141D01*
X044185Y031623D02*
X044351D01*
X044090Y032211D02*
X044444Y032564D01*
X044090Y032560D02*
X044381Y032269D01*
X044444Y032354D02*
Y033146D01*
X044185Y030750D02*
X044854D01*
X045021*
X044854D02*
X045021D01*
X044960Y032634D02*
X045092D01*
X044960D02*
Y033146D01*
Y032798D02*
X045092Y032930D01*
X044960Y032822D02*
X045092Y032690D01*
X044090Y033409D02*
X044444Y033055D01*
X044090Y033059D02*
X044818Y033787D01*
X044742Y033146D02*
X044818Y033221D01*
X044460Y033146D02*
X044818Y033504D01*
X044090Y033908D02*
X044344Y034162D01*
X044090Y034191D02*
X044344Y034444D01*
X044818Y033177D02*
Y033904D01*
X044344Y034004D02*
X044443Y033904D01*
X044726D02*
X044818Y033812D01*
X044444Y033146D02*
X044960D01*
X044818Y033177D02*
X045092D01*
X044960Y033105D02*
X045092Y032973D01*
X044887Y033177D02*
X044919Y033146D01*
X044960Y033105*
X044443Y033904D02*
X044818Y033530D01*
X044344Y033904D02*
X044818D01*
X044960Y033081D02*
X045057Y033177D01*
X044818Y033247D02*
X044887Y033177D01*
X043510Y032007D02*
Y034600D01*
X043440Y034625D02*
X043510Y034555D01*
X043440Y035803D02*
X043931Y036295D01*
X043440Y035888D02*
X043846Y036295D01*
X043440Y034907D02*
X043570Y034777D01*
X043440Y035190D02*
X043710Y034920D01*
X043440Y035473D02*
X043851Y035062D01*
X043440Y034672D02*
X045000Y036232D01*
X043440Y035756D02*
X043993Y035203D01*
X043595Y034805D02*
X045000Y036210D01*
X043515Y035964D02*
X044134Y035344D01*
X043657Y036105D02*
X044276Y035486D01*
X043440Y035238D02*
X044497Y036295D01*
X043440Y034955D02*
X044780Y036295D01*
X043440Y035520D02*
X044214Y036295D01*
X043798Y036246D02*
X044417Y035627D01*
X042774Y036326D02*
X043554Y037106D01*
X043431Y037179D02*
X043529Y037081D01*
X043572Y037321D02*
X043697Y037196D01*
X043705Y037199D02*
X043755Y037249D01*
X042440Y036188D02*
X043692Y037440D01*
X043755Y037213D02*
Y037365D01*
X043419Y038322D02*
X043522Y038220D01*
X043846Y036295D02*
X044825D01*
X043755Y037249D02*
X043871Y037365D01*
X043755D02*
X044024D01*
X043594Y038220D02*
X043800Y038426D01*
X043530Y038220D02*
X043923D01*
X043736Y037440D02*
X043811Y037365D01*
X043640Y038385D02*
X043804Y038220D01*
X043692Y037440D02*
X043923D01*
X044090Y034473D02*
X044344Y034727D01*
X044090Y034480D02*
X044344Y034734D01*
X044120Y034510D02*
X044344Y034286D01*
X044262Y034652D02*
X044344Y034569D01*
X044033Y036295D02*
X044559Y035769D01*
X044315Y036295D02*
X044700Y035910D01*
X044344Y033904D02*
Y034734D01*
X044825Y037096D02*
Y037365D01*
X044780Y036295D02*
X044825Y036340D01*
X044598Y036295D02*
X044841Y036052D01*
X044825Y036351D02*
X044983Y036193D01*
X045000Y036210D02*
Y036380D01*
X044825Y036295D02*
Y036564D01*
Y036340D02*
X044924Y036439D01*
X044825Y037189D02*
X045010Y037374D01*
X044750Y037557D02*
X045017Y037290D01*
X044825Y037199D02*
X044867Y037158D01*
X043871Y037365D02*
X043935Y037429D01*
X044618Y037407D02*
X044659Y037365D01*
X043877Y038220D02*
X044165Y038508D01*
X043865Y038442D02*
X044017Y038290D01*
X044333Y038540D02*
X044627Y038246D01*
X044096Y038494D02*
X044228Y038362D01*
X044305Y038365D02*
X044509Y038570D01*
X044556Y037365D02*
X044825D01*
X044706Y038167D02*
X044809Y038064D01*
X044719Y037365D02*
X044862Y037508D01*
X044576Y038580D02*
X044930Y038226D01*
X044531Y038308D02*
X044837Y038615D01*
X044825Y038613D02*
X045106Y038333D01*
X044690Y038185D02*
X045151Y038645D01*
X046420Y021770D02*
Y022030D01*
Y022311D02*
X046961Y021770D01*
X046420D02*
X047260D01*
X046420Y022028D02*
X046678Y021770D01*
X046420Y022030D02*
Y022370D01*
X046520*
X046624Y022389D02*
X047244Y021770D01*
X046783Y022513D02*
X047393Y021903D01*
X046925Y022655D02*
X047535Y022045D01*
X046943Y021770D02*
X047971Y022798D01*
X046660Y021770D02*
X047702Y022812D01*
X047260Y021770D02*
X047745Y022255D01*
X047066Y022796D02*
X047676Y022186D01*
X046420Y021813D02*
X047572Y022965D01*
X046420Y022096D02*
X048307Y023983D01*
X047226Y021770D02*
X048360Y022904D01*
X047208Y022937D02*
X047831Y022314D01*
X047327Y023101D02*
X048088Y022340D01*
X045704Y024208D02*
X045738Y024242D01*
X046725Y022455D02*
X047257Y022987D01*
X045091Y024260D02*
X045174D01*
X045346D02*
X045430D01*
X047358Y023353D02*
X047563Y023148D01*
X047342Y023192D02*
Y023286D01*
X047348Y023307D02*
X048052Y024010D01*
X047357D02*
X048280D01*
X047360Y023633D02*
X047680Y023314D01*
X047360Y023916D02*
X047916Y023360D01*
X048079Y022340D02*
X048369Y022630D01*
X047928Y022783D02*
X048371Y022340D01*
X048094Y022900D02*
X048370Y022623D01*
X048140Y023136D02*
X048360Y022916D01*
Y022700D02*
Y023930D01*
X048413Y018903D02*
X048491Y018826D01*
X048555Y019045D02*
X048700Y018899D01*
X048696Y019186D02*
X048905Y018978D01*
X048838Y019327D02*
X049105Y019060D01*
X048979Y019469D02*
X049301Y019147D01*
X047950Y022340D02*
X048600D01*
X048362D02*
X048481Y022459D01*
X048445Y022495D02*
X048595Y022345D01*
X048108Y023218D02*
X048360Y023470D01*
X047360Y023393D02*
Y023963D01*
Y023885D02*
X047486Y024010D01*
X047955Y023348D02*
X048360Y023753D01*
X047360Y023602D02*
X047769Y024010D01*
X048280D02*
X048360Y023930D01*
X048122Y022949D02*
X048360Y023187D01*
X048940Y023468D02*
X048981Y023426D01*
X049175Y023515D02*
X049205Y023485D01*
X049223D02*
X049256Y023518D01*
X047549Y024010D02*
X048360Y023199D01*
X047832Y024010D02*
X048360Y023482D01*
X048940Y023399D02*
Y023582D01*
X048115Y024010D02*
X048360Y023765D01*
X048940Y023484D02*
X049007Y023551D01*
X045602Y024260D02*
X045738D01*
Y024178D02*
Y024260D01*
X046830Y026709D02*
X047145Y026395D01*
X047260Y025671D02*
Y026207D01*
X047263Y025673D02*
Y025922D01*
X047239Y026300D02*
X047363Y026176D01*
X047236Y026306D02*
X047363Y026433D01*
X047263Y025922D02*
X047363D01*
X047260Y025996D02*
X047334Y025922D01*
X047260Y026047D02*
X047363Y026150D01*
X046830Y026992D02*
X047363Y026459D01*
X046898Y027490D02*
X047896Y026491D01*
X047363Y026433D02*
X047422Y026491D01*
X047105Y027565D02*
X048179Y026491D01*
X047282Y027672D02*
X048462Y026491D01*
X045025Y028514D02*
X045064Y028475D01*
X045166Y028656D02*
X045206Y028616D01*
X045307Y028797D02*
X045347Y028757D01*
X045449Y028939D02*
X045489Y028899D01*
X045576Y029094D02*
X045630Y029040D01*
X045601Y029211D02*
Y030750D01*
Y029353D02*
X045772Y029182D01*
X046830Y026514D02*
Y027019D01*
X046927Y027178D02*
X047614Y026491D01*
X046849Y027560D02*
X047050D01*
X046930Y027413D02*
X047077Y027561D01*
X045600Y029195D02*
X046180Y029775D01*
X047255Y027645D02*
X048655Y029045D01*
X048476Y024624D02*
X048576Y024724D01*
X048690Y025009D02*
X048737D01*
X048690D02*
X048737D01*
X048554Y024702D02*
X048825Y024432D01*
X048574Y024532D02*
X049050Y025009D01*
X048605Y024505D02*
X048758Y024352D01*
X048682Y024924D02*
X048768Y025009D01*
X048668Y024871D02*
X048995Y024544D01*
X048717Y024393D02*
X049333Y025009D01*
X048737D02*
X049337D01*
X048813D02*
X049238Y024584D01*
X049314Y025922D02*
X049337Y025899D01*
Y025009D02*
Y025922D01*
X047363Y026491D02*
X047963D01*
X047363Y025922D02*
Y026491D01*
X047963D02*
X048037D01*
X048563D02*
X048637D01*
X047963D02*
X048037D01*
X048563*
X048637*
X049237Y025922D02*
Y026491D01*
Y025999D02*
X049314Y025922D01*
X047565Y027954D02*
X049028Y026491D01*
X047423Y027813D02*
X048745Y026491D01*
X048637D02*
X049237D01*
X048262Y018752D02*
X049405Y019895D01*
X049120Y019610D02*
X049493Y019238D01*
X049262Y019752D02*
X049681Y019333D01*
X049403Y019893D02*
X049865Y019432D01*
X048541Y018843D02*
X049607Y019909D01*
X048996Y019015D02*
X049890Y019909D01*
X049671D02*
X050045Y019535D01*
X049418Y019909D02*
X049637D01*
X049418D02*
X049637D01*
X049512Y019247D02*
X050173Y019909D01*
X049637D02*
X050237D01*
X049953D02*
X050221Y019641D01*
X050090Y021491D02*
Y022450D01*
Y022318D02*
X051650Y020758D01*
X049414Y023559D02*
X051930Y021043D01*
X049582Y023675D02*
X052065Y021191D01*
X049635Y023055D02*
X051792Y020899D01*
X049694Y023845D02*
X052196Y021343D01*
X049734Y024088D02*
X052325Y021497D01*
X049581Y022840D02*
X049700D01*
X049237Y025922D02*
X049337D01*
X049905Y022755D02*
X050005Y022655D01*
X049096Y025009D02*
X050930Y023175D01*
X050090Y022089D02*
X050929Y022927D01*
X049337Y025899D02*
X052913Y022324D01*
X049237Y026282D02*
X053020Y022499D01*
X049337Y025616D02*
X052802Y022151D01*
X049337Y025051D02*
X051070Y023318D01*
X049337Y025334D02*
X051403Y023267D01*
X050136Y019589D02*
X050559Y020012D01*
X050236Y019909D02*
X050394Y019751D01*
X050460Y019968D02*
X050563Y019865D01*
X050237Y019909D02*
Y019969D01*
Y020731D02*
Y020822D01*
Y020731D02*
Y020822D01*
X050636Y020074D02*
X050729Y019982D01*
X050237Y021040D02*
X051050Y020227D01*
X050090Y021752D02*
X051357Y020485D01*
X050736Y020257D02*
X050891Y020103D01*
X050237Y021322D02*
X051205Y020354D01*
X051085Y020255D02*
X052313Y021483D01*
X050090Y022035D02*
X051505Y020620D01*
X050436Y020738D02*
X053725Y024027D01*
X050688Y020141D02*
X052980Y022433D01*
X050730Y020466D02*
X053321Y023057D01*
X050622Y020640D02*
X053553Y023572D01*
X050090Y021523D02*
X051381Y022814D01*
X050090Y021806D02*
X051068Y022784D01*
X050237Y020822D02*
Y021491D01*
X050090D02*
X050237D01*
Y020821D02*
X053856Y024440D01*
X050237Y021104D02*
X053957Y024824D01*
X051325Y022780D02*
X052449Y021656D01*
X051468Y022920D02*
X052570Y021817D01*
X051417Y023253D02*
X052688Y021982D01*
X050237Y021387D02*
X054034Y025184D01*
X050090Y022371D02*
X054178Y026459D01*
X051436Y022869D02*
X054092Y025525D01*
X051466Y023182D02*
X054134Y025849D01*
X051323Y023321D02*
X054162Y026160D01*
X047706Y028096D02*
X053123Y022679D01*
X047847Y028237D02*
X053222Y022863D01*
X047989Y028379D02*
X053317Y023050D01*
X048130Y028520D02*
X053409Y023241D01*
X048272Y028662D02*
X053496Y023437D01*
X047064Y026416D02*
X053713Y033065D01*
X048413Y028803D02*
X053580Y023636D01*
X048555Y028944D02*
X053658Y023840D01*
X048692Y029090D02*
X053733Y024049D01*
X048740Y029325D02*
X053803Y024262D01*
X048740Y029607D02*
X053867Y024480D01*
X048740Y029890D02*
X053927Y024703D01*
X048740Y030173D02*
X053981Y024932D01*
X048553Y026491D02*
X054017Y031956D01*
X048270Y026491D02*
X053967Y032188D01*
X048740Y031305D02*
X054139Y025905D01*
X048740Y031587D02*
X054162Y026165D01*
X048740Y031870D02*
X054177Y026434D01*
X047987Y026491D02*
X053911Y032415D01*
X048740Y031022D02*
X051124Y028638D01*
X048740Y030456D02*
X050909Y028287D01*
X048740Y030739D02*
X050957Y028522D01*
X046872Y026507D02*
X053637Y033273D01*
X046830Y026748D02*
X053557Y033475D01*
X047704Y026491D02*
X053850Y032637D01*
X046881Y027082D02*
X053473Y033674D01*
X047422Y026491D02*
X053784Y032854D01*
X048740Y033002D02*
X054314Y027428D01*
X048740Y033284D02*
X054366Y027658D01*
X048740Y032153D02*
X054183Y026710D01*
X048740Y032436D02*
X054265Y026911D01*
X048740Y032719D02*
X054345Y027114D01*
X048740Y034416D02*
X054332Y028824D01*
X048740Y034699D02*
X054339Y029099D01*
X048740Y033567D02*
X054315Y027992D01*
X048740Y034133D02*
X054324Y028549D01*
X048740Y033850D02*
X054391Y028199D01*
X049710Y022840D02*
X054313Y027443D01*
X049237Y026044D02*
X051250Y028057D01*
X050043Y022608D02*
X054186Y026750D01*
X051137Y028059D02*
X054030Y025166D01*
X049337Y025295D02*
X054231Y030189D01*
X049337Y025578D02*
X054182Y030423D01*
X051372Y028107D02*
X054073Y025406D01*
X051488Y028274D02*
X054110Y025652D01*
X049337Y025861D02*
X054173Y030697D01*
X049575Y023271D02*
X054318Y028013D01*
X049437Y023415D02*
X054335Y028313D01*
X049907Y022754D02*
X054376Y027224D01*
X049732Y023994D02*
X054340Y028602D01*
X049635Y023048D02*
X054354Y027766D01*
X049193Y024585D02*
X054360Y029753D01*
X049337Y025012D02*
X054315Y029991D01*
X049699Y024243D02*
X054321Y028866D01*
X049426Y024535D02*
X054314Y029424D01*
X049590Y024417D02*
X054384Y029211D01*
X049237Y026327D02*
X051022Y028112D01*
X049119Y026491D02*
X050910Y028283D01*
X048836Y026491D02*
X054062Y031717D01*
X051267Y028640D02*
X054100Y031473D01*
X051493Y028300D02*
X054157Y030963D01*
X051438Y028528D02*
X054132Y031222D01*
X045601Y029636D02*
X045925Y029312D01*
X045021Y029331D02*
Y030750D01*
X045601Y030610D02*
X045740Y030750D01*
X045601D02*
X045767D01*
X045092Y032634D02*
Y033177D01*
X045601Y030750D02*
X045767D01*
X045334Y033296D02*
X045384Y033246D01*
X045334D02*
X045560D01*
X045601Y030484D02*
X046154Y029931D01*
X045601Y030327D02*
X046023Y030750D01*
X045601Y029918D02*
X046179Y029340D01*
X045601Y030201D02*
X046389Y029413D01*
X045601Y029479D02*
X046872Y030750D01*
X045601Y029761D02*
X046589Y030750D01*
X045601Y030044D02*
X046306Y030750D01*
X045767D02*
X046204D01*
X045618D02*
X046249Y030119D01*
X045060Y034029D02*
X045092Y034061D01*
X045060Y034136D02*
X045092Y034104D01*
X045060Y033969D02*
X045092D01*
X045060Y034702D02*
X045092Y034670D01*
X045006Y034896D02*
X045060D01*
Y034312D02*
X045092Y034344D01*
X045060Y034595D02*
X045092Y034627D01*
X045060Y034419D02*
X045092Y034387D01*
X045334Y033579D02*
X045560Y033353D01*
X045408Y033246D02*
X045560Y033398D01*
X045334Y033455D02*
X045560Y033681D01*
Y033250D02*
Y033689D01*
X045334Y033246D02*
Y033765D01*
X045529Y033689D02*
X045560D01*
X045506Y033690D02*
X045560Y033636D01*
X046027Y029339D02*
X046320Y029632D01*
X046050Y029340D02*
X046278D01*
X046481Y029604D02*
X046650Y029435D01*
X045901Y030750D02*
X046453Y030197D01*
X046380Y029409D02*
X046655Y029684D01*
X046669Y029699D02*
X047004Y029364D01*
X046747Y029903D02*
X047145Y029505D01*
X046183Y030750D02*
X047287Y029647D01*
X046448Y030750D02*
X047117D01*
X046466D02*
X047428Y029788D01*
X046575Y030170D02*
X047194Y030789D01*
X046749Y030750D02*
X047569Y029930D01*
X046204Y030750D02*
X046448D01*
X046204D02*
X046448D01*
X047117D02*
Y030797D01*
X046934Y033497D02*
X047290Y033141D01*
X046560Y034616D02*
X046592Y034584D01*
X046560Y034681D02*
X046592Y034713D01*
X046934Y033497D02*
Y033904D01*
X046560Y034420D02*
X046592Y034452D01*
X046934Y033640D02*
X047198Y033904D01*
X047463Y032115D02*
Y032227D01*
X047365Y033028D02*
X047463D01*
Y031485D02*
Y032115D01*
Y032227*
Y032189D02*
X047491Y032218D01*
X047198Y033904D02*
X047308Y034015D01*
X046934Y033904D02*
X047308D01*
X047463Y032973D02*
Y033028D01*
X045060Y033969D02*
Y034896D01*
Y034878D02*
X045108Y034925D01*
X045092Y033969D02*
Y034896D01*
X045363*
X045006D02*
X045035Y034925D01*
X045363*
X045119D02*
X045149Y034896D01*
X046237Y035456D02*
Y035672D01*
Y035456D02*
Y035672D01*
X046305Y035405D02*
X046407Y035303D01*
X046237Y035505D02*
X046427Y035314D01*
X046370Y035340D02*
X046453Y035422D01*
X045082Y038640D02*
X045361Y038361D01*
X045595Y038505D02*
X045695Y038605D01*
X045129Y038340D02*
X045452Y038664D01*
X045346Y038658D02*
X045553Y038452D01*
X045420Y038349D02*
X045742Y038671D01*
X045618Y038669D02*
X045689Y038599D01*
X046237Y035489D02*
X046619Y035871D01*
X046237Y035788D02*
X046514Y035510D01*
X046237Y036070D02*
X046710Y035597D01*
X046295Y036295D02*
X046511Y036079D01*
X046237Y035772D02*
X046514Y036049D01*
X046237Y035672D02*
Y036297D01*
Y036055D02*
X046510Y036328D01*
X046492Y034967D02*
X046592Y034867D01*
X046492Y034896D02*
X046560D01*
Y034420D02*
Y034896D01*
X046592Y034452D02*
Y034896D01*
X046492D02*
X046619Y035022D01*
X046492Y034896D02*
Y035098D01*
X046602Y035571D02*
X046760Y035730D01*
X046739Y035003D02*
X046846Y034896D01*
X046592D02*
X047308D01*
Y033904D02*
Y034896D01*
X046935Y035090D02*
X047128Y034896D01*
X047308Y034863D02*
X047467Y035022D01*
X046775Y034896D02*
X047185Y035305D01*
X047058Y034896D02*
X047326Y035164D01*
X046872Y035558D02*
X046902Y035588D01*
X047002Y035406D02*
X047043Y035447D01*
X046510Y036100D02*
Y036342D01*
X046819Y037751D02*
X046877Y037693D01*
X046751Y038102D02*
X046879Y037974D01*
X046822Y037771D02*
X046855Y037805D01*
X046790Y038022D02*
X046878Y038110D01*
X046968Y037352D02*
X047071Y037454D01*
X047153Y037417D02*
X047211Y037359D01*
X047580Y036330D02*
Y036380D01*
X047264Y037365D02*
X047294Y037395D01*
X047434Y037419D02*
X047562Y037291D01*
X046755Y037565D02*
X047005Y037315D01*
X046746Y038110D02*
X046957D01*
X046827Y037493D02*
X046926Y037592D01*
X046849Y029312D02*
X047710Y030174D01*
X046666Y029695D02*
X047710Y030739D01*
X046892Y029252D02*
X047710Y030070D01*
X047032Y030750D02*
X047710Y030072D01*
X046718Y030030D02*
X047710Y031022D01*
Y030070D02*
Y032218D01*
X047269Y030795D02*
X047710Y030355D01*
X046679Y029426D02*
X047710Y030457D01*
X047461Y030887D02*
X047710Y030637D01*
X047575Y031055D02*
X047710Y030920D01*
X047562Y031351D02*
X047710Y031203D01*
X047597Y031193D02*
X047710Y031305D01*
X047463Y032016D02*
X047710Y031769D01*
X047463Y031906D02*
X047710Y032154D01*
X047530Y031408D02*
X047710Y031588D01*
X047463Y031624D02*
X047710Y031871D01*
X047463Y031733D02*
X047710Y031486D01*
X047453Y033028D02*
X047710Y033285D01*
X047286Y033144D02*
X047710Y033568D01*
X047557Y032205D02*
X047710Y032052D01*
X046934Y033676D02*
X047613Y032997D01*
X046989Y033904D02*
X047710Y033183D01*
Y032982D02*
Y034780D01*
X047308Y034580D02*
X047609Y034881D01*
X047145Y033286D02*
X047710Y033851D01*
X047004Y033427D02*
X047710Y034134D01*
X047272Y033904D02*
X047710Y033466D01*
X047308Y034015D02*
X047710Y034416D01*
X047308Y034151D02*
X047710Y033749D01*
X047022Y035286D02*
X047710Y034597D01*
X046595Y035895D02*
X047710Y034780D01*
X047308Y034433D02*
X047710Y034032D01*
X047308Y034716D02*
X047710Y034314D01*
X047308Y034297D02*
X047710Y034699D01*
X048739Y029223D02*
X053384Y033868D01*
X048740Y031204D02*
X051242Y033705D01*
X048740Y029507D02*
X053292Y034058D01*
X048740Y029507D02*
X053292Y034058D01*
X048740Y030638D02*
X052883Y034781D01*
X048740Y030921D02*
X052771Y034952D01*
X048740Y029790D02*
X053195Y034245D01*
X048740Y030355D02*
X052991Y034606D01*
X048740Y030072D02*
X053095Y034427D01*
X051145Y033708D02*
X054174Y030679D01*
X051376Y033760D02*
X054155Y030981D01*
X048740Y035547D02*
X054314Y029973D01*
X048740Y035830D02*
X054182Y030388D01*
X048740Y034981D02*
X054315Y029406D01*
X051489Y033930D02*
X054123Y031295D01*
X048740Y035264D02*
X054359Y029645D01*
X048740Y031487D02*
X051018Y033765D01*
X048740Y031769D02*
X050909Y033938D01*
X047895Y036015D02*
X048038Y036159D01*
X048013D02*
X048160D01*
X048740Y036113D02*
X050908Y033945D01*
X048128Y036159D02*
X048160Y036127D01*
X048036Y035874D02*
X048160Y035998D01*
X051495Y033958D02*
X052656Y035120D01*
X051435Y034182D02*
X052537Y035284D01*
X048740Y032618D02*
X052028Y035906D01*
X048740Y032901D02*
X051893Y036053D01*
X048740Y032052D02*
X052290Y035602D01*
X048740Y032335D02*
X052161Y035756D01*
X051262Y034291D02*
X052415Y035445D01*
X047743Y036544D02*
X048013Y036274D01*
X047612Y036298D02*
X048013Y036699D01*
X047753Y036157D02*
X048013Y036417D01*
X047819Y036751D02*
X048013Y036557D01*
Y036159D02*
Y037072D01*
X047751Y037102D02*
X048013Y036840D01*
X047824Y036793D02*
X048013Y036982D01*
X047580Y036330D02*
X048160Y035750D01*
X047606Y036398D02*
X048160Y035844D01*
X048740Y034598D02*
X051007Y036864D01*
X048013Y036274D02*
X048128Y036159D01*
X048160Y035750D02*
Y036159D01*
X047784Y037036D02*
X048113Y037365D01*
X047606Y037530D02*
X048064Y037072D01*
X048013Y036982D02*
X048103Y037072D01*
X048113D02*
Y037627D01*
X047671Y037206D02*
X048103Y037637D01*
X047503Y037321D02*
X047961Y037779D01*
X048013Y037072D02*
X048113D01*
X047708Y037710D02*
X048113Y037305D01*
X047630Y038110D02*
X048113Y037627D01*
X047725Y037826D02*
X047820Y037920D01*
X047682Y038019D02*
X048113Y037588D01*
Y037627D02*
X048145Y037595D01*
X048470Y038090D02*
X048680D01*
X048253Y038308D02*
X048470Y038090D01*
X048371Y038189D02*
X048433Y038250D01*
X048555Y038090D02*
X048643Y038178D01*
X048661Y038171D02*
X048752Y038081D01*
X048740Y029250D02*
Y036159D01*
Y033749D02*
X051465Y036474D01*
X048887Y036249D02*
X050960Y034176D01*
X048944Y036474D02*
X051129Y034289D01*
X048740Y035164D02*
X050684Y037107D01*
X048740Y035446D02*
X050517Y037224D01*
X048740Y034032D02*
X051315Y036608D01*
X048740Y034881D02*
X050847Y036988D01*
X048740Y034315D02*
X051163Y036738D01*
X048740Y033184D02*
X051753Y036197D01*
X048740Y033466D02*
X051611Y036337D01*
X049077Y036625D02*
X054077Y031624D01*
X049110Y037157D02*
X053932Y032335D01*
X049110Y036874D02*
X054015Y031970D01*
X049110Y037440D02*
X053823Y032726D01*
X049101Y037732D02*
X053683Y033150D01*
X049130Y037986D02*
X053497Y033619D01*
X050341Y037340D02*
X052851Y034830D01*
X049669Y037730D02*
X053241Y034157D01*
X048740Y036012D02*
X048887Y036159D01*
X048740D02*
X048887D01*
Y036417*
X049025Y036555*
X048885Y038005D02*
X049025Y037865D01*
X048808Y038060D02*
X048849Y038101D01*
X048960Y037930D02*
X049050Y038019D01*
X048740Y035729D02*
X050347Y037336D01*
X048887Y036159D02*
X050173Y037445D01*
X049083Y036638D02*
X049996Y037551D01*
X049110Y036760D02*
Y037660D01*
Y036948D02*
X049815Y037652D01*
X049110Y037231D02*
X049629Y037750D01*
X049087Y037773D02*
X049247Y037934D01*
X049110Y037513D02*
X049440Y037844D01*
X055240Y018390D02*
Y022650D01*
X055650*
X055240Y023200D02*
X055650D01*
X055240Y022800D02*
X055650D01*
X055240Y023000D02*
X055650D01*
X055240Y022200D02*
X056100D01*
X055240Y022000D02*
X056300D01*
X055240Y022650D02*
X055650D01*
X055240Y022400D02*
X055900D01*
X055240Y022600D02*
X055700D01*
X055240Y023800D02*
X055650D01*
X055240Y023400D02*
X055650D01*
X055240Y024000D02*
X055650D01*
X055240Y025600D02*
X055650D01*
X055240Y023600D02*
X055650D01*
X055225Y026800D02*
X055650D01*
X055240Y025800D02*
X055650D01*
X055240Y026400D02*
X055650D01*
X056000Y018390D02*
Y022300D01*
X056200Y018390D02*
Y022100D01*
X055400Y018390D02*
Y022650D01*
X055800Y018390D02*
Y022500D01*
X055600Y018390D02*
Y022650D01*
X056800Y018390D02*
Y021950D01*
X057000Y018390D02*
Y021950D01*
X055650Y022650D02*
X056350Y021950D01*
X056600Y018390D02*
Y021950D01*
X056400Y018390D02*
Y021950D01*
X055240Y024400D02*
X055650D01*
X055240Y024200D02*
X055650D01*
X055240Y022650D02*
Y026708D01*
Y024600D02*
X055650D01*
X055240Y024800D02*
X055650D01*
X055240Y025400D02*
X055650D01*
X055240Y025000D02*
X055650D01*
X055240Y025200D02*
X055650D01*
X055240Y026600D02*
X055650D01*
X055240Y026000D02*
X055650D01*
X055240Y026200D02*
X055650D01*
X055108Y027200D02*
X055650D01*
X055160Y027600D02*
X055650D01*
X055160Y027800D02*
X055650D01*
X055108Y028200D02*
X055650D01*
X055108Y029200D02*
X055650D01*
X055160Y028600D02*
X055650D01*
X055160Y028800D02*
X055650D01*
X055200Y026855D02*
Y030203D01*
X055400Y022650D02*
Y036043D01*
X055650Y022650D02*
Y035650D01*
X055600Y022650D02*
Y035700D01*
X055184Y027400D02*
X055650D01*
X055184Y027000D02*
X055650D01*
X055184Y029000D02*
X055650D01*
X055184Y028000D02*
X055650D01*
X055184Y028400D02*
X055650D01*
X055160Y029800D02*
X055650D01*
X055184Y029400D02*
X055650D01*
X055184Y030000D02*
X055650D01*
X055198Y030200D02*
X055650D01*
X055240Y030350D02*
Y042219D01*
X055160Y029600D02*
X055650D01*
X055240Y030400D02*
X055650D01*
X055240Y030600D02*
X055650D01*
X055240Y031200D02*
X055650D01*
X055240Y030800D02*
X055650D01*
X055240Y031000D02*
X055650D01*
X055240Y018400D02*
X073558D01*
X055240Y018390D02*
X073558D01*
X058600D02*
Y021101D01*
X062400Y018390D02*
Y020385D01*
X058800Y018390D02*
Y021138D01*
X055240Y018800D02*
X073558D01*
X055240Y018600D02*
X073558D01*
X055240Y019400D02*
X073558D01*
X055240Y019000D02*
X073558D01*
X055240Y019200D02*
X073558D01*
X055240Y020600D02*
X062365D01*
X055240Y020400D02*
X062365D01*
X055240Y020800D02*
X062365D01*
X058875Y021200D02*
X062365D01*
X055240D02*
X058425D01*
X055240Y020000D02*
X073558D01*
X055240Y019600D02*
X073558D01*
X055240Y019800D02*
X073558D01*
X055240Y020200D02*
X073558D01*
X062365Y020385D02*
X063435D01*
X055240Y021000D02*
X062365D01*
X063200Y018390D02*
Y020385D01*
X063400Y018390D02*
Y020385D01*
X062600Y018390D02*
Y020385D01*
X063000Y018390D02*
Y020385D01*
X062800Y018390D02*
Y020385D01*
X063800Y018390D02*
Y020394D01*
X064000Y018390D02*
Y020394D01*
X063600Y018390D02*
Y020477D01*
X065000Y018390D02*
Y020394D01*
X064400Y018390D02*
Y020729D01*
X063435Y020400D02*
X063773D01*
X064200Y018390D02*
Y020477D01*
X063435Y020385D02*
Y020654D01*
Y020600D02*
X063471D01*
X064027Y020400D02*
X064773D01*
X064800Y018390D02*
Y020394D01*
X065027Y020400D02*
X065773D01*
X064329Y020600D02*
X064471D01*
X064600Y018390D02*
Y020477D01*
X057800Y018390D02*
Y021950D01*
X058000Y018390D02*
Y021950D01*
X057200Y018390D02*
Y021950D01*
X057600Y018390D02*
Y021950D01*
X057400Y018390D02*
Y021950D01*
X058400Y018390D02*
Y021233D01*
X058200Y018390D02*
Y021950D01*
X055240Y021400D02*
X058353D01*
X055240Y021600D02*
X058435D01*
X058400Y021556D02*
Y021950D01*
X058600Y021688D02*
Y021950D01*
X058947Y021400D02*
X062365D01*
X058865Y021600D02*
X062471D01*
X055240Y021800D02*
X062378D01*
X058800Y021651D02*
Y021950D01*
X056350D02*
X062366D01*
X059000Y018390D02*
Y021950D01*
X059200Y018390D02*
Y021950D01*
X059400Y018390D02*
Y021950D01*
X059800Y018390D02*
Y021950D01*
X059600Y018390D02*
Y021950D01*
X060600Y018390D02*
Y021950D01*
X060800Y018390D02*
Y021950D01*
X060000Y018390D02*
Y021950D01*
X060400Y018390D02*
Y021950D01*
X060200Y018390D02*
Y021950D01*
X061600Y018390D02*
Y021950D01*
X061800Y018390D02*
Y021950D01*
X061000Y018390D02*
Y021950D01*
X061400Y018390D02*
Y021950D01*
X061200Y018390D02*
Y021950D01*
X062365Y020385D02*
Y021455D01*
X062400D02*
Y021729D01*
X062365Y021455D02*
X062634D01*
X062000Y018390D02*
Y021950D01*
X062200Y018390D02*
Y021950D01*
X055240Y032600D02*
X055650D01*
X055240Y032400D02*
X055650D01*
X055240Y033200D02*
X055650D01*
X055240Y032800D02*
X055650D01*
X055240Y033000D02*
X055650D01*
X055240Y031600D02*
X055650D01*
X055240Y031400D02*
X055650D01*
X055240Y032200D02*
X055650D01*
X055240Y031800D02*
X055650D01*
X055240Y032000D02*
X055650D01*
X055240Y034800D02*
X055650D01*
X055240Y034600D02*
X055650D01*
X055240Y035400D02*
X055650D01*
X055240Y035000D02*
X055650D01*
X055240Y035200D02*
X055650D01*
X055240Y033800D02*
X055650D01*
X055240Y033400D02*
X055650D01*
X055240Y033600D02*
X055650D01*
X055240Y034400D02*
X055650D01*
X055240Y034000D02*
X055650D01*
X055240Y034200D02*
X055650D01*
X055240Y035600D02*
X055650D01*
X055550Y035750D02*
X055650Y035650D01*
X055600Y035750D02*
Y036007D01*
X056000Y035750D02*
Y036178D01*
X055800Y035750D02*
Y036139D01*
X055240Y035800D02*
X056348D01*
X055550Y035750D02*
X056398D01*
X055240Y036000D02*
X056148D01*
X056200Y035750D02*
Y035948D01*
X056074Y036074D02*
X056398Y035750D01*
X055830Y036200D02*
X055990D01*
X055240Y036800D02*
X055960D01*
X055830Y036400D02*
X055960D01*
X055240Y036600D02*
X055960D01*
X055240Y038200D02*
X055960D01*
X055240Y038000D02*
X055960D01*
X055240Y038800D02*
X055960D01*
X055240Y038400D02*
X055960D01*
X055240Y038600D02*
X055960D01*
X055240Y037200D02*
X055960D01*
X055240Y037000D02*
X055960D01*
X055240Y037800D02*
X055960D01*
X055240Y037400D02*
X055960D01*
X055240Y037600D02*
X055960D01*
X055240Y039200D02*
X055960D01*
X055240Y039000D02*
X055960D01*
X055240Y039800D02*
X055960D01*
X055240Y039400D02*
X055960D01*
X055240Y039600D02*
X055960D01*
X055240Y040400D02*
X056348D01*
X055240Y040000D02*
X055990D01*
X055240Y040200D02*
X056148D01*
X055240Y041000D02*
X056157D01*
X055240Y040600D02*
X056578D01*
X055240Y040800D02*
X056289D01*
X055600Y036593D02*
Y042219D01*
X055960Y036350D02*
Y039850D01*
X055400Y036557D02*
Y042219D01*
X055800Y036461D02*
Y042219D01*
X056000Y040022D02*
Y042219D01*
X056074Y040126D02*
X056474Y040526D01*
X056200Y040252D02*
Y040889D01*
X056400Y040452D02*
Y040757D01*
X055240Y041200D02*
X056193D01*
X056200Y041211D02*
Y042219D01*
X056400Y041343D02*
Y042219D01*
X056600Y040610D02*
Y040793D01*
Y041307D02*
Y042219D01*
X058926Y040526D02*
X059426Y040026D01*
X059449Y040000D02*
X062459D01*
X059537Y039800D02*
X062361D01*
X059052Y040400D02*
X073558D01*
X059252Y040200D02*
X062805D01*
X056750Y040640D02*
X058650D01*
X058822Y040600D02*
X073558D01*
X056611Y040800D02*
X073558D01*
X056743Y041000D02*
X073558D01*
X056707Y041200D02*
X073558D01*
X055240Y041800D02*
X073558D01*
X055240Y041400D02*
X073558D01*
X055240Y041600D02*
X073558D01*
X055240Y042219D02*
X073558D01*
X055240Y042000D02*
X073558D01*
X055240Y042200D02*
X073558D01*
X059540Y039162D02*
X059642Y039060D01*
X062345*
X059540Y039200D02*
X062345D01*
Y039060D02*
Y039205D01*
X059540Y039162D02*
Y039750D01*
X065136Y039200D02*
X065805D01*
X062345Y039205D02*
X062614D01*
X059540Y039400D02*
X062418D01*
X062400Y039205D02*
Y039433D01*
X059540Y039600D02*
X062349D01*
X063301Y040000D02*
X063459D01*
X062955Y040200D02*
X063805D01*
X063955D02*
X064805D01*
X064301Y040000D02*
X064459D01*
X064955Y040200D02*
X073558D01*
X064800Y040199D02*
Y042219D01*
X059600Y039102D02*
Y042219D01*
X059800Y039060D02*
Y042219D01*
X059000Y040452D02*
Y042219D01*
X059400Y040052D02*
Y042219D01*
X059200Y040252D02*
Y042219D01*
X060600Y039060D02*
Y042219D01*
X060800Y039060D02*
Y042219D01*
X060000Y039060D02*
Y042219D01*
X060400Y039060D02*
Y042219D01*
X060200Y039060D02*
Y042219D01*
X057400Y040640D02*
Y042219D01*
X057600Y040640D02*
Y042219D01*
X056800Y040640D02*
Y042219D01*
X057200Y040640D02*
Y042219D01*
X057000Y040640D02*
Y042219D01*
X058400Y040640D02*
Y042219D01*
X058800Y040610D02*
Y042219D01*
X058600Y040640D02*
Y042219D01*
X057800Y040640D02*
Y042219D01*
X058200Y040640D02*
Y042219D01*
X058000Y040640D02*
Y042219D01*
X061600Y039060D02*
Y042219D01*
X061800Y039060D02*
Y042219D01*
X061000Y039060D02*
Y042219D01*
X061400Y039060D02*
Y042219D01*
X061200Y039060D02*
Y042219D01*
X063400Y039907D02*
Y042219D01*
X064400Y039907D02*
Y042219D01*
X062000Y039060D02*
Y042219D01*
X062200Y039060D02*
Y042219D01*
X062400Y039907D02*
Y042219D01*
X063200Y040099D02*
Y042219D01*
X063600Y040126D02*
Y042219D01*
X062600Y040126D02*
Y042219D01*
X063000Y040192D02*
Y042219D01*
X062800Y040199D02*
Y042219D01*
X064600Y040126D02*
Y042219D01*
X065200Y040099D02*
Y042219D01*
X065000Y040192D02*
Y042219D01*
X063800Y040199D02*
Y042219D01*
X064200Y040099D02*
Y042219D01*
X064000Y040192D02*
Y042219D01*
X065800Y018390D02*
Y020394D01*
X066000Y018390D02*
Y020394D01*
X065200Y018390D02*
Y020477D01*
X065600Y018390D02*
Y020477D01*
X065400Y018390D02*
Y020729D01*
X066027Y020400D02*
X067796D01*
X066200Y018390D02*
Y020477D01*
X066400Y018390D02*
Y020729D01*
X065329Y020600D02*
X065471D01*
X066429Y021000D02*
X067469D01*
X066400Y021111D02*
Y021729D01*
X066200Y021363D02*
Y021477D01*
X066329Y020600D02*
X067551D01*
X066422Y020800D02*
X067469D01*
X066356Y021200D02*
X067551D01*
X066137Y021400D02*
X067796D01*
X066329Y021600D02*
X067678D01*
X066422Y021800D02*
X067572D01*
X067800Y018390D02*
Y020398D01*
X068000Y018390D02*
Y020360D01*
X067600Y018390D02*
Y020537D01*
X068200Y018390D02*
Y020398D01*
X068400Y021263D02*
Y021717D01*
Y018390D02*
Y020537D01*
X069800Y018390D02*
Y021480D01*
X070000Y018390D02*
Y021480D01*
X070400Y018390D02*
Y021480D01*
X070200Y018390D02*
Y021480D01*
X067800Y021402D02*
Y021508D01*
X068200Y021402D02*
Y021508D01*
X067600Y021263D02*
Y021717D01*
X068322Y021600D02*
X069615D01*
Y021480D02*
X070485D01*
X068428Y021800D02*
X069615D01*
X066600Y018390D02*
Y022700D01*
X067000Y018390D02*
Y023050D01*
X066800Y018390D02*
Y022900D01*
X066429Y022000D02*
X067572D01*
X067200Y018390D02*
Y023050D01*
X067400Y018390D02*
Y023050D01*
X066400Y022111D02*
Y022500D01*
X066700Y022800D02*
X067469D01*
X066236Y022336D02*
X066950Y023050D01*
X066900Y023000D02*
X067469D01*
X066950Y023050D02*
X067481D01*
X066300Y022400D02*
X067796D01*
X066356Y022200D02*
X067678D01*
X067800Y022292D02*
Y022398D01*
X066500Y022600D02*
X067551D01*
X067600Y022083D02*
Y022537D01*
X069200Y018390D02*
Y022519D01*
X068600Y018390D02*
Y022560D01*
X069000Y018390D02*
Y022560D01*
X068800Y018390D02*
Y022560D01*
X068428Y022000D02*
X069615D01*
X069600Y018390D02*
Y022128D01*
X069400Y018390D02*
Y022333D01*
X070485Y021480D02*
Y022128D01*
X069615Y021480D02*
Y022128D01*
X068200Y022292D02*
Y022398D01*
X068204Y022400D02*
X069319D01*
X068400Y022083D02*
Y022537D01*
X069159Y022560D02*
X069335Y022384D01*
X068420Y022560D02*
X069159D01*
X068322Y022200D02*
X069515D01*
X070485Y022128D02*
X070585D01*
X069515D02*
X069615D01*
X069515D02*
Y022290D01*
X071200Y018390D02*
Y022263D01*
X071400Y018390D02*
Y022263D01*
X070600Y018390D02*
Y022263D01*
X071000Y018390D02*
Y022263D01*
X070800Y018390D02*
Y022263D01*
X068204Y020400D02*
X073558D01*
X068449Y020600D02*
X073558D01*
X068531Y020800D02*
X073558D01*
X071600Y018390D02*
Y022263D01*
X068531Y021000D02*
X073558D01*
X070485Y022000D02*
X071957D01*
X071078Y022263D02*
X071322D01*
X070585Y022128D02*
Y022263D01*
X071078D02*
X071322D01*
X070585D02*
X071078D01*
X068204Y021400D02*
X073558D01*
X068449Y021200D02*
X073558D01*
X070485Y021600D02*
X073558D01*
X070485Y021800D02*
X071993D01*
X070585Y022200D02*
X072089D01*
X071322Y022263D02*
X071991D01*
X072000Y018390D02*
Y021789D01*
X072200Y018390D02*
Y021657D01*
X071800Y018390D02*
Y022263D01*
X072400Y018390D02*
Y021693D01*
X072507Y021800D02*
X073558D01*
X072600Y018390D02*
Y022548D01*
X071991Y022310D02*
X072200D01*
X071991Y022263D02*
Y022310D01*
X072000Y022111D02*
Y022310D01*
X072200Y022243D02*
Y022310D01*
X072400Y022207D02*
Y022365D01*
X072543Y022000D02*
X073558D01*
X072411Y022200D02*
X073558D01*
X072449Y022400D02*
X073558D01*
X072800Y018390D02*
Y022748D01*
X073000Y018390D02*
Y022948D01*
X072476Y022424D02*
X073226Y023174D01*
X073200Y018390D02*
Y023148D01*
X072652Y022600D02*
X073558D01*
X072852Y022800D02*
X073558D01*
X073052Y023000D02*
X073558D01*
X073249Y023200D02*
X073558D01*
X073340Y024800D02*
X073558D01*
X073340Y024600D02*
X073558D01*
X073340Y025400D02*
X073558D01*
X073340Y025000D02*
X073558D01*
X073340Y025200D02*
X073558D01*
X073337Y023400D02*
X073558D01*
X073340Y023600D02*
X073558D01*
X073340Y023800D02*
X073558D01*
X073340Y024400D02*
X073558D01*
X073340Y024000D02*
X073558D01*
X073340Y024200D02*
X073558D01*
X073340Y025800D02*
X073558D01*
X073340Y025600D02*
X073558D01*
X073340Y023450D02*
Y037450D01*
X073558Y018390D02*
Y042219D01*
X073400Y018390D02*
Y042219D01*
X073340Y026200D02*
X073558D01*
X073340Y026000D02*
X073558D01*
X073340Y026800D02*
X073558D01*
X073340Y026400D02*
X073558D01*
X073340Y026600D02*
X073558D01*
X073340Y028400D02*
X073558D01*
X073340Y028200D02*
X073558D01*
X073340Y029000D02*
X073558D01*
X073340Y028600D02*
X073558D01*
X073340Y028800D02*
X073558D01*
X073340Y027400D02*
X073558D01*
X073340Y027000D02*
X073558D01*
X073340Y027200D02*
X073558D01*
X073340Y028000D02*
X073558D01*
X073340Y027600D02*
X073558D01*
X073340Y027800D02*
X073558D01*
X066400Y038290D02*
Y038543D01*
X065301Y039000D02*
X065459D01*
X065400Y038907D02*
Y039543D01*
X066257Y038290D02*
X067215D01*
X066342Y038400D02*
X067215D01*
X066399Y038800D02*
X067215D01*
Y038290D02*
Y039185D01*
X066411Y038600D02*
X067215D01*
X065200Y039099D02*
Y039241D01*
X065800Y039199D02*
Y039242D01*
X065342Y039400D02*
X065539D01*
X065600Y039126D02*
Y039337D01*
X065411Y039600D02*
X065450D01*
X065955Y039200D02*
X068359D01*
X066301Y039000D02*
X067215D01*
X066000Y039192D02*
Y039252D01*
X066200Y039099D02*
Y039375D01*
X066221Y039400D02*
X067394D01*
X066310Y039600D02*
X067318D01*
X068285Y039000D02*
X068359D01*
Y038990D02*
Y039087D01*
X067600Y039185D02*
Y039241D01*
X068285Y038990D02*
Y039185D01*
X068000D02*
Y039294D01*
X068285Y038990D02*
X068359D01*
Y039087D01*
X069841D02*
Y039587D01*
X069941Y039040D02*
Y039087D01*
X069841D02*
X069941D01*
X067400Y039185D02*
Y039391D01*
X067800Y039185D02*
Y039218D01*
X067215Y039185D02*
X068285D01*
X068106Y039400D02*
X068359D01*
X068182Y039600D02*
X068359D01*
X069272Y039587D02*
X069841D01*
X066400Y038797D02*
Y042219D01*
X067200Y038290D02*
Y042219D01*
X066600Y038290D02*
Y042219D01*
X067000Y038290D02*
Y042219D01*
X066800Y038290D02*
Y042219D01*
X065301Y040000D02*
X065596D01*
X065399Y039800D02*
X065465D01*
X065400Y039797D02*
Y042219D01*
X065600Y040003D02*
Y042219D01*
X065800Y040098D02*
Y042219D01*
X066295Y039800D02*
X067341D01*
X066164Y040000D02*
X067491D01*
X066000Y040088D02*
Y042219D01*
X067400Y039909D02*
Y042219D01*
X066200Y039965D02*
Y042219D01*
X068359Y039087D02*
Y039687D01*
X069272Y039587D02*
Y039687D01*
X068200Y039185D02*
Y042219D01*
X069800Y039587D02*
Y042219D01*
X069600Y039587D02*
Y042219D01*
X070600Y039040D02*
Y042219D01*
X070800Y039040D02*
Y042219D01*
X070000Y039040D02*
Y042219D01*
X070400Y039040D02*
Y042219D01*
X070200Y039040D02*
Y042219D01*
X067600Y040059D02*
Y042219D01*
X067800Y040082D02*
Y042219D01*
X068400Y039687D02*
Y042219D01*
X068000Y040006D02*
Y042219D01*
X068359Y039687D02*
X069272D01*
X068800D02*
Y042219D01*
X068600Y039687D02*
Y042219D01*
X069000Y039687D02*
Y042219D01*
X069400Y039587D02*
Y042219D01*
X069200Y039687D02*
Y042219D01*
X073340Y034600D02*
X073558D01*
X073340Y034400D02*
X073558D01*
X073340Y035200D02*
X073558D01*
X073340Y034800D02*
X073558D01*
X073340Y035000D02*
X073558D01*
X073340Y033600D02*
X073558D01*
X073340Y033400D02*
X073558D01*
X073340Y034200D02*
X073558D01*
X073340Y033800D02*
X073558D01*
X073340Y034000D02*
X073558D01*
X073340Y036800D02*
X073558D01*
X073340Y036600D02*
X073558D01*
X073340Y037400D02*
X073558D01*
X073340Y037000D02*
X073558D01*
X073340Y037200D02*
X073558D01*
X073340Y035800D02*
X073558D01*
X073340Y035400D02*
X073558D01*
X073340Y035600D02*
X073558D01*
X073340Y036400D02*
X073558D01*
X073340Y036000D02*
X073558D01*
X073340Y036200D02*
X073558D01*
X073340Y030400D02*
X073558D01*
X073340Y030200D02*
X073558D01*
X073340Y031000D02*
X073558D01*
X073340Y030600D02*
X073558D01*
X073340Y030800D02*
X073558D01*
X073340Y029400D02*
X073558D01*
X073340Y029200D02*
X073558D01*
X073340Y030000D02*
X073558D01*
X073340Y029600D02*
X073558D01*
X073340Y029800D02*
X073558D01*
X073340Y032600D02*
X073558D01*
X073340Y032400D02*
X073558D01*
X073340Y033200D02*
X073558D01*
X073340Y032800D02*
X073558D01*
X073340Y033000D02*
X073558D01*
X073340Y031600D02*
X073558D01*
X073340Y031200D02*
X073558D01*
X073340Y031400D02*
X073558D01*
X073340Y032200D02*
X073558D01*
X073340Y031800D02*
X073558D01*
X073340Y032000D02*
X073558D01*
X071200Y039040D02*
Y039383D01*
X071400Y039040D02*
Y039398D01*
X069841Y039400D02*
X071155D01*
X071000Y039040D02*
Y039570D01*
X069841Y039200D02*
X073558D01*
X069941Y039040D02*
X071750D01*
X071600D02*
Y042219D01*
X071405Y039400D02*
X073558D01*
X068159Y039800D02*
X071012D01*
X069272Y039600D02*
X070991D01*
X071000Y039770D02*
Y042219D01*
X071200Y039957D02*
Y042219D01*
X071569Y039600D02*
X073558D01*
X068009Y040000D02*
X073558D01*
X071548Y039800D02*
X073558D01*
X071400Y039942D02*
Y042219D01*
X072026Y038926D02*
X073226Y037726D01*
X072800Y038152D02*
Y042219D01*
X073200Y037752D02*
Y042219D01*
X073000Y037952D02*
Y042219D01*
X073310Y037600D02*
X073558D01*
X072752Y038200D02*
X073558D01*
X073152Y037800D02*
X073558D01*
X072952Y038000D02*
X073558D01*
X071800Y039037D02*
Y042219D01*
X072200Y038752D02*
Y042219D01*
X072000Y038949D02*
Y042219D01*
X072152Y038800D02*
X073558D01*
X072552Y038400D02*
X073558D01*
X072352Y038600D02*
X073558D01*
X071922Y039000D02*
X073558D01*
X072600Y038352D02*
Y042219D01*
X072400Y038552D02*
Y042219D01*
X030352Y033609D02*
X031262D01*
X030350Y033855D02*
X030596Y033609D01*
X030350Y034138D02*
X030879Y033609D01*
X030350Y032150D02*
Y035630D01*
X030352Y032150D02*
Y033609D01*
X030498D02*
X031079Y034191D01*
X031262Y032959D02*
X031400Y033097D01*
X031262Y032959D02*
X031400Y033097D01*
X031262Y032150D02*
X031400D01*
X031262Y032676D02*
X031400Y032814D01*
X031262Y032393D02*
X031400Y032531D01*
X030863Y034191D02*
X031577Y033477D01*
X030781Y033609D02*
X032802Y035630D01*
X031262Y033226D02*
X031400Y033088D01*
X031262Y033509D02*
X031435Y033335D01*
X031064Y033609D02*
X033084Y035630D01*
X030350Y034704D02*
X030452Y034602D01*
X030350Y034875D02*
X030452Y034978D01*
X030350Y034310D02*
X030452Y034412D01*
X030350Y034593D02*
X030452Y034695D01*
X030350Y034421D02*
X030452Y034319D01*
X030350Y034987D02*
X030452Y034885D01*
X030350Y035441D02*
X030452Y035543D01*
Y034191D02*
Y035630D01*
X030350D02*
X030452D01*
X030350Y035552D02*
X030452Y035450D01*
X030350Y033744D02*
X030797Y034191D01*
X030350Y034027D02*
X030514Y034191D01*
X030580D02*
X031162Y033609D01*
X030452Y034191D02*
X031362D01*
X031146D02*
X031718Y033618D01*
X030350Y035158D02*
X030452Y035260D01*
X030350Y035270D02*
X030452Y035167D01*
X031262Y032378D02*
X031400Y032240D01*
X031262Y032660D02*
X031400Y032522D01*
Y032150D02*
Y033300D01*
X031262Y032943D02*
X031400Y032805D01*
X031301Y032150D02*
X031400Y032249D01*
X031262Y032150D02*
Y033609D01*
X031362Y034257D02*
X031860Y033760D01*
X031362Y034540D02*
X032001Y033901D01*
X031362Y034191D02*
Y035630D01*
Y034823D02*
X032143Y034043D01*
X031362Y035106D02*
X032284Y034184D01*
X031362Y035389D02*
X032425Y034325D01*
X031400Y033300D02*
X032300Y034200D01*
X031362Y034473D02*
X032519Y035630D01*
X032300Y034200D02*
X032850Y034750D01*
X031262Y033242D02*
X033650Y035630D01*
X031262Y033525D02*
X033367Y035630D01*
X031404D02*
X032567Y034467D01*
X031687Y035630D02*
X032708Y034608D01*
X031969Y035630D02*
X032850Y034750D01*
X032818Y035630D02*
X033698Y034750D01*
X032535Y035630D02*
X033415Y034750D01*
X033101Y035630D02*
X033981Y034750D01*
X033053D02*
X033933Y035630D01*
X033053Y034750D02*
X033933Y035630D01*
X031362Y035322D02*
X031670Y035630D01*
X031362Y035605D02*
X031387Y035630D01*
X032252D02*
X033132Y034750D01*
X031362Y035039D02*
X031953Y035630D01*
X031362Y034756D02*
X032236Y035630D01*
X033336Y034750D02*
X034216Y035630D01*
X032850Y034750D02*
X034250D01*
X034184D02*
X034250Y034816D01*
X033619Y034750D02*
X034250Y035381D01*
X033901Y034750D02*
X034250Y035099D01*
X033384Y035630D02*
X034250Y034764D01*
X031362Y035630D02*
X034250D01*
Y034750D02*
Y035630D01*
X033949D02*
X034250Y035329D01*
X033666Y035630D02*
X034250Y035046D01*
G54D12*
X025500Y027099D03*
Y028201D03*
G54D13*
X027385Y022400D03*
X026715D03*
X028105Y024920D03*
X027435D03*
X045991Y031187D03*
X046661D03*
X045311D03*
X044641D03*
X047985Y021050D03*
X047315D03*
X043315Y025900D03*
X043985D03*
X043085Y028150D03*
X042415D03*
Y028750D03*
X043085D03*
X043315Y025200D03*
X043985D03*
X031405Y037550D03*
X030735D03*
X068815Y038650D03*
X069485D03*
X068815Y039250D03*
X069485D03*
X070865Y022700D03*
X071535D03*
G54D14*
X027500Y023015D03*
Y023685D03*
X042400Y026765D03*
Y027435D03*
X039250Y026515D03*
Y027185D03*
X047700Y025465D03*
Y026135D03*
X044050Y024419D03*
Y023750D03*
X048900Y025465D03*
Y026135D03*
X048300Y025465D03*
Y026135D03*
X027080Y026495D03*
Y025825D03*
X047026Y031902D03*
Y032571D03*
X026440Y026495D03*
Y025825D03*
X025160Y036135D03*
Y036805D03*
X046176Y031902D03*
Y032571D03*
X045800Y035885D03*
Y035215D03*
X049800Y021035D03*
Y020365D03*
X049200Y021035D03*
Y020365D03*
X048600Y021035D03*
Y020365D03*
X040250Y027335D03*
Y026665D03*
X039950Y030715D03*
Y031385D03*
X048450Y036615D03*
Y037285D03*
G54D15*
X040024Y025750D03*
X039276D03*
G54D16*
X043350Y024374D03*
Y023626D03*
X024420Y036844D03*
Y036096D03*
X070050Y022624D03*
Y021876D03*
G54D17*
X026956Y021450D03*
X025144D03*
X033444Y028500D03*
X035256D03*
G54D18*
X026713Y024910D03*
X025787D03*
X030787Y036860D03*
X031713D03*
G54D19*
X032050Y028544D03*
Y030356D03*
G54D20*
X027095Y030700D03*
X029905D03*
G54D21*
X030850Y026263D03*
Y025337D03*
G54D22*
X057900Y031705D03*
Y032295D03*
Y030080D03*
Y030670D03*
Y028455D03*
Y029045D03*
G54D23*
X027726Y025577D03*
X028474D03*
X028100Y026403D03*
X046950Y034400D03*
X046202D03*
X046576Y033573D03*
X045450Y034400D03*
X044702D03*
X045076Y033573D03*
X045450Y032750D03*
X044702D03*
X045076Y031923D03*
X029176Y025487D03*
X029924D03*
X029550Y026313D03*
G54D24*
X043363Y029426D03*
Y030174D03*
X042537Y029800D03*
X038337Y031374D03*
Y030626D03*
X039163Y031000D03*
G54D25*
X026593Y035000D03*
X028207D03*
X029293D03*
X030907D03*
X030807Y032800D03*
X029193D03*
X028374D03*
X026760D03*
X025940D03*
X024326D03*
X023507D03*
X021893D03*
Y030700D03*
X023507D03*
X024343D03*
X025957D03*
G54D26*
X028471Y023705D03*
G54D27*
X028471Y022800D03*
Y021894D03*
G54D28*
X031129Y022800D03*
G54D29*
X047052Y025922D03*
X046796D03*
X046540D03*
X046284D03*
X046028D03*
X045772D03*
X045516D03*
X045260D03*
X045004D03*
X044748D03*
X047052Y023678D03*
X046796D03*
X046540D03*
X046284D03*
X046028D03*
X045772D03*
X045516D03*
X045260D03*
X045004D03*
X044748D03*
G54D30*
X041650Y028050D03*
G54D31*
X041650Y028550D03*
Y029050D03*
Y029550D03*
X039485Y028050D03*
Y028550D03*
Y029050D03*
Y029550D03*
G54D32*
X067972Y030255D03*
X062657Y033323D03*
Y027186D03*
G54D33*
X025160Y036135D02*
X025457D01*
X025160Y035819D02*
Y036135D01*
X026593Y035000D02*
X027008D01*
X026593D02*
Y035769D01*
X026178Y035000D02*
X026593D01*
X024420Y035740D02*
Y036096D01*
X024025D02*
X024420D01*
X025500Y023200D02*
X026150D01*
X025300Y023400D02*
X025500Y023200D01*
X025300Y023400D02*
Y025460D01*
X026150Y023200D02*
X026350Y023400D01*
Y023650*
X030413Y036860D02*
X030787D01*
X029923Y037350D02*
X030413Y036860D01*
X029000Y037350D02*
X029923D01*
X028500Y036850D02*
X029000Y037350D01*
X027000D02*
X027500Y036850D01*
X026000Y037350D02*
X027000D01*
X025455Y036805D02*
X026000Y037350D01*
X025160Y036805D02*
X025455D01*
X026350Y023650D02*
X027100Y024400D01*
X030060*
X025300Y025460D02*
X025530Y025690D01*
X055550Y032400D02*
X056800D01*
X057495Y031705*
X057900*
X055550Y030800D02*
X055600Y030750D01*
X056800*
X057470Y030080*
X057900*
X057395Y028455D02*
X057900D01*
X056795Y029055D02*
X057395Y028455D01*
X055695Y029055D02*
X056795D01*
X056300Y029415D02*
X057530D01*
X057900Y029045*
X056300Y031233D02*
X057338D01*
X057900Y030670*
X057150Y033050D02*
X057900Y032300D01*
X056300Y033050D02*
X057150D01*
X055550Y029200D02*
X055695Y029055D01*
X045260Y020170D02*
Y023678D01*
Y020170D02*
X045310Y020120D01*
X047310D02*
Y021045D01*
X046800Y019630D02*
Y020460D01*
Y019630D02*
X047310Y019120D01*
X047620*
X048600Y020100*
Y020365*
X049200Y021035D02*
Y022050D01*
X047052Y023192D02*
Y023678D01*
X047950Y022050D02*
X049200D01*
X046796Y023678D02*
Y024196D01*
X046900Y024300*
X049200Y020100D02*
Y020365D01*
X047750Y018650D02*
X049200Y020100D01*
X046780Y018650D02*
X047750D01*
X046310Y019120D02*
X046780Y018650D01*
X046284Y025366D02*
Y025922D01*
Y025366D02*
X046350Y025300D01*
X047300*
X047465Y025465*
X047700*
X046028Y024650D02*
Y025922D01*
X045772Y023678D02*
Y024128D01*
X046028Y023678D02*
Y024650D01*
X044050Y023750D02*
X044200D01*
X044450Y024000*
Y024150*
X045260Y025410D02*
Y025922D01*
X038350Y028250D02*
X038650Y028550D01*
X039485*
X039950Y030200D02*
Y030715D01*
Y030200D02*
X040150Y030000D01*
Y029250D02*
Y030000D01*
X039950Y029050D02*
X040150Y029250D01*
X039485Y029050D02*
X039950D01*
X038376Y031385D02*
X039950D01*
X038337Y031424D02*
X038376Y031385D01*
X037550Y030750D02*
X037800Y031000D01*
X040000Y028550D02*
X040100Y028450D01*
X039485Y028550D02*
X040000D01*
X037800Y031000D02*
X039150D01*
X041650Y029050D02*
X041676Y029076D01*
X041650Y028550D02*
X041950D01*
X042150Y028750*
X042415*
X041650Y029050D02*
X041950D01*
X042250Y029350*
X042750*
X042950Y029550*
Y030000*
X043124Y030174*
X043363*
X043085Y028750D02*
Y029147D01*
X043363Y029426*
Y030174D02*
X043676D01*
X043800Y030050*
Y028950D02*
Y030050D01*
X043600Y028750D02*
X043800Y028950D01*
X043085Y028150D02*
X043600D01*
X040100Y027950D02*
Y028450D01*
Y027950D02*
X040250Y027800D01*
X049800Y020365D02*
X050335D01*
X050350Y020350*
X049800Y021035D02*
Y022450D01*
X046900Y024300D02*
X048400D01*
X048650Y024050*
X049200*
X045150Y025300D02*
X045260Y025410D01*
X044550Y025300D02*
X045150D01*
X045250Y025050D02*
X045516Y025316D01*
Y025922*
X046202Y034400D02*
Y035098D01*
X046100Y035200D02*
X046202Y035098D01*
X045815Y035200D02*
X046100D01*
X045800Y035215D02*
X045815Y035200D01*
X044915Y035215D02*
X045800D01*
X044702Y035002D02*
X044915Y035215D01*
X044702Y034400D02*
Y035002D01*
X046529Y033979D02*
X046950Y034400D01*
X045450Y034058D02*
Y034400D01*
Y034058D02*
X045529Y033979D01*
X046176Y032571D02*
Y032924D01*
X045850Y033250D02*
X046176Y032924D01*
X045850Y033250D02*
Y033979D01*
X045529D02*
X045850D01*
X046529*
X045076Y031923D02*
X046155D01*
X046176Y031902*
X047026*
X045450Y032450D02*
Y032750D01*
X045344Y032344D02*
X045450Y032450D01*
X044641Y031187D02*
Y032141D01*
X044844Y032344*
X045344*
X045311Y031187D02*
X045991D01*
X047290Y036210D02*
Y036830D01*
Y036210D02*
X048250Y035250D01*
Y029700D02*
Y035250D01*
X048450Y036615D02*
X048465Y036600D01*
X045800Y038300D02*
X045900Y038400D01*
X046800Y036100D02*
X048000Y034900D01*
Y029950D02*
Y034900D01*
X046550Y028500D02*
X048000Y029950D01*
X044250Y025900D02*
X044400Y025750D01*
Y025450D02*
Y025750D01*
Y025450D02*
X044550Y025300D01*
X043985Y025900D02*
X044250D01*
X043985Y025200D02*
X044300D01*
X044450Y025050*
X045250*
X048450Y029250D02*
Y036615D01*
X045772Y025922D02*
Y027172D01*
X045900Y027300*
X045311Y029211D02*
Y031187D01*
X044350Y028250D02*
X045311Y029211D01*
X044350Y028150D02*
Y028250D01*
X044748Y022948D02*
Y023678D01*
X044350Y022550D02*
X044748Y022948D01*
X045290Y036090D02*
Y036830D01*
X040250Y027335D02*
Y027800D01*
X043100Y031187D02*
X043800Y031887D01*
Y034600*
X045290Y036090*
Y037620D02*
Y037830D01*
Y037620D02*
X045800Y037110D01*
Y035885D02*
Y037110D01*
Y037540D02*
Y038300D01*
Y037540D02*
X046290Y037050D01*
Y036830D02*
Y037050D01*
Y037620D02*
Y037830D01*
Y037620D02*
X046800Y037110D01*
Y036100D02*
Y037110D01*
X045900Y038400D02*
X047750D01*
X048350Y037800*
X048680*
X048465Y036600D02*
X048660D01*
X048820Y036760*
Y037660*
X048680Y037800D02*
X048820Y037660D01*
X044310Y020120D02*
X045004Y020814D01*
Y023678*
X046240Y021020D02*
X046800Y020460D01*
X045940Y021020D02*
X046240D01*
X045890Y023060D02*
X046190D01*
X046284Y023154*
Y023678*
X045516Y020914D02*
X046310Y020120D01*
X045516Y020914D02*
Y023678D01*
X045730Y021230D02*
X045940Y021020D01*
X045730Y021230D02*
Y022900D01*
X045890Y023060*
X046540Y023090D02*
Y023678D01*
X046310Y022860D02*
X046540Y023090D01*
X046020Y022860D02*
X046310D01*
X045930Y022770D02*
X046020Y022860D01*
X045930Y021313D02*
Y022770D01*
Y021313D02*
X046023Y021220D01*
X046323*
X046498Y021045*
X047310*
X046520Y022660D02*
X047052Y023192D01*
X046240Y022660D02*
X046520D01*
X046130Y022550D02*
X046240Y022660D01*
X046130Y022030D02*
Y022550D01*
X047380Y021480D02*
X047950Y022050D01*
X046250Y021480D02*
X047380D01*
X046130Y021600D02*
X046250Y021480D01*
X046130Y021600D02*
Y022030D01*
X049700Y022550D02*
X049800Y022450D01*
X048800Y022550D02*
X049700D01*
X048650Y022700D02*
X048800Y022550D01*
X048650Y022700D02*
Y024050D01*
X045516Y025922D02*
Y027516D01*
X045004Y025922D02*
Y027394D01*
X043600Y027570D02*
Y028750D01*
Y027570D02*
X043985Y027185D01*
Y026015D02*
Y027185D01*
X026440Y025825D02*
X027080D01*
X026205D02*
X026440D01*
X028777Y026403D02*
X029236Y025944D01*
X028100Y026403D02*
X028777D01*
X027500Y037850D02*
Y038250D01*
X027770Y038520*
X029546*
X029640Y038426*
X030180*
X030402Y038204*
X030905*
X031046Y038063*
X031237*
X031405Y037895*
Y037550D02*
Y037895D01*
Y037325D02*
Y037550D01*
Y037325D02*
X031713Y037017D01*
Y036860D02*
Y037017D01*
X027080Y026495D02*
X027475D01*
X027730Y026240*
Y025581D02*
Y026240D01*
X027726Y025577D02*
X027730Y025581D01*
X028110Y024920D02*
Y026403D01*
X025790Y024997D02*
X025850Y024937D01*
X025790Y024997D02*
Y025410D01*
X026205Y025825*
X029236Y025617D02*
Y025944D01*
X030060Y024400D02*
X030340Y024680D01*
Y025060*
X031700Y036400D02*
Y036847D01*
X031713Y036860*
X031450Y036150D02*
X031700Y036400D01*
X061350Y037000D02*
X062050D01*
X059350Y035000D02*
X061350Y037000D01*
X057850Y035000D02*
X059350D01*
X046540Y025922D02*
Y027300D01*
X044748Y025922D02*
Y027748D01*
X046050Y029050*
X046550*
X045516Y027516D02*
X045850Y027850D01*
X047050*
X048450Y029250*
X045004Y027394D02*
X045760Y028150D01*
X046700*
X048250Y029700*
X044450Y024150D02*
X044560Y024260D01*
X045640D02*
X045772Y024128D01*
X042400Y024193D02*
Y024450D01*
X042143D02*
X042400D01*
X042657*
X042400D02*
Y024707D01*
Y026765D02*
X042697D01*
X042103D02*
X042400D01*
Y026449D02*
Y026765D01*
X041251Y029550D02*
X041650D01*
Y029770*
X042181Y029800D02*
X042537D01*
Y030018*
X042955Y023626D02*
X043350D01*
Y023270D02*
Y023626D01*
X044050Y023433D02*
Y023750D01*
X044347*
X040393Y034020D02*
X040650D01*
Y033763D02*
Y034020D01*
X040907*
X040650D02*
Y034278D01*
X044702Y032750D02*
X044920D01*
X044702D02*
Y033106D01*
X044484Y032750D02*
X044702D01*
X044858Y033573D02*
X045076D01*
X047850Y022813D02*
Y023070D01*
X048107*
X047593D02*
X047850D01*
Y023327*
X049200Y023050D02*
Y023445D01*
X047403Y026135D02*
X047700D01*
X048300D02*
Y026451D01*
X047700Y026135D02*
Y026451D01*
X048900Y026135D02*
X049197D01*
X048900D02*
Y026451D01*
X049200Y023050D02*
X049595D01*
X050943D02*
X051200D01*
Y022793D02*
Y023050D01*
Y023307*
Y023050D02*
X051457D01*
X051200Y028093D02*
Y028350D01*
X051457*
X050943D02*
X051200D01*
Y028607*
X045076Y033217D02*
Y033573D01*
Y033929*
Y033573D02*
X045294D01*
X046193Y029900D02*
X046450D01*
Y030157*
Y029643D02*
Y029900D01*
X046707*
X046467Y035300D02*
X046724D01*
Y035043D02*
Y035300D01*
Y035557*
Y035300D02*
X046982D01*
X047290Y037435D02*
Y037830D01*
X046895D02*
X047290D01*
X051200Y033743D02*
Y034000D01*
Y034257*
X050943Y034000D02*
X051200D01*
X051457*
X047290Y037830D02*
X047685D01*
X048153Y037285D02*
X048450D01*
X058650Y021137D02*
Y021395D01*
Y021652*
X058393Y021395D02*
X058650D01*
X058907*
X055293Y036300D02*
X055550D01*
Y036043D02*
Y036300D01*
X055807*
X055550D02*
Y036557D01*
X056450Y040793D02*
Y041050D01*
Y041307*
X056193Y041050D02*
X056450D01*
X056707*
X067600Y021900D02*
X068000D01*
X068400*
X069655Y021876D02*
X070050D01*
Y021520D02*
Y021876D01*
X070445*
X068000Y021500D02*
Y021900D01*
Y022300*
X072250Y021693D02*
Y021950D01*
X071993D02*
X072250D01*
X072507*
X072250D02*
Y022207D01*
X067355Y039650D02*
X067750D01*
Y039255D02*
Y039650D01*
X068145*
X069485Y039250D02*
X069801D01*
X069485D02*
Y039547D01*
X065485Y039670D02*
X065880D01*
Y039275D02*
Y039670D01*
Y040065*
Y039670D02*
X066275D01*
X067750Y039650D02*
Y040045D01*
X071280Y039413D02*
Y039670D01*
Y039927*
X071023Y039670D02*
X071280D01*
X071537*
X037800Y029730D02*
X038337Y030267D01*
Y030626*
X037800Y028800D02*
Y029730D01*
Y028800D02*
X038350Y028250D01*
X030392Y032800D02*
X030807D01*
Y033569*
Y032800D02*
X031222D01*
X030907Y034231D02*
Y035000D01*
X030492D02*
X030907D01*
X031322*
G54D34*
X028610Y024990D02*
X029750D01*
X029984Y025224*
X028521Y025079D02*
Y025529D01*
X028474Y025577D02*
X028521Y025529D01*
Y025079D02*
X028610Y024990D01*
X024300Y026604D02*
X024600Y026304D01*
X024300Y026604D02*
Y028950D01*
X024250Y029000D02*
X024300Y028950D01*
X020500Y029000D02*
X024250D01*
X024600Y022845D02*
Y026304D01*
X020300Y029200D02*
X020500Y029000D01*
X020300Y029200D02*
Y029650D01*
X023800Y022045D02*
X024600Y022845D01*
X023800Y019650D02*
Y022045D01*
X021607Y034820D02*
X022670D01*
X021607Y034775D02*
Y034820D01*
X021122Y034289D02*
X021607Y034775D01*
X021122Y033922D02*
Y034289D01*
X020785Y033585D02*
X021122Y033922D01*
X020785Y033248D02*
Y033585D01*
X020600Y033063D02*
X020785Y033248D01*
X020600Y032850D02*
Y033063D01*
X026392Y018589D02*
X026551Y018430D01*
X025918Y018589D02*
X026392D01*
X025650Y018856D02*
X025918Y018589D01*
X027279Y018334D02*
X028744D01*
X029689Y018589D02*
X030200Y019100D01*
X029631Y018589D02*
X029689D01*
X029472Y018430D02*
X029631Y018589D01*
X028840Y018430D02*
X029472D01*
X028744Y018334D02*
X028840Y018430D01*
X027183D02*
X027279Y018334D01*
X026551Y018430D02*
X027183D01*
X030200Y019100D02*
Y021150D01*
X037500Y030700D02*
X037550Y030750D01*
X042200Y029800D02*
X042537D01*
X041950Y029550D02*
X042200Y029800D01*
X041650Y029550D02*
X041950D01*
X039161Y026426D02*
X039250Y026515D01*
Y025776D02*
Y026515D01*
Y025776D02*
X039276Y025750D01*
X046576Y033374D02*
Y033573D01*
Y033374D02*
X047050Y032900D01*
Y032595D02*
Y032900D01*
X045076Y033376D02*
Y033573D01*
X044702Y033002D02*
X045076Y033376D01*
X044702Y032750D02*
Y033002D01*
X047026Y032571D02*
X047050Y032595D01*
X047290Y037830D02*
X047670D01*
X048215Y037285*
X048450*
X042537Y029800D02*
Y030537D01*
X042650Y030650*
X043350*
X047026Y032571D02*
X047571D01*
X047600Y032600*
X024390Y036086D02*
X025111D01*
X025160Y036135*
X024796Y035010D02*
Y035304D01*
X024390Y035710D02*
X024796Y035304D01*
X024390Y035710D02*
Y036086D01*
X026723Y024920D02*
X027435D01*
X026713Y024910D02*
X026723Y024920D01*
X029610Y026320D02*
X030850D01*
X030527Y025580D02*
X030810Y025297D01*
X025940Y023560D02*
Y023960D01*
X026713Y024733*
Y024910*
X028474Y025577D02*
X028773D01*
X029984Y025224D02*
Y025580D01*
X030527*
X067750Y039650D02*
Y039697D01*
X069353D02*
X069485Y039565D01*
Y039250D02*
Y039565D01*
X067750Y038650D02*
X068765D01*
X070126Y022700D02*
X070865D01*
X070050Y022624D02*
X070126Y022700D01*
X069576Y022624D02*
X070050D01*
X069300Y022900D02*
X069576Y022624D01*
X068000Y022900D02*
X069300D01*
X067750Y039697D02*
X069353D01*
X068765Y038650D02*
X068815Y038700D01*
Y039250*
Y039300*
X044560Y024260D02*
X045640D01*
X037500Y025860D02*
Y030700D01*
X037634Y026426D02*
X039161D01*
X037500Y025860D02*
X037660Y025700D01*
G54D35*
X031050Y027550D02*
Y028504D01*
X030800Y027300D02*
X031050Y027550D01*
X028490Y027300D02*
X030800D01*
X031050Y028504D02*
X033290D01*
X028180Y027610D02*
X028490Y027300D01*
X025669Y028360D02*
X027180D01*
X025560Y028251D02*
X025669Y028360D01*
X022670Y034820D02*
X024330D01*
X028180Y028360D02*
Y029170D01*
X026820Y030530D02*
X028180Y029170D01*
X026820Y030530D02*
Y030670D01*
X024806Y035000D02*
X026593D01*
X030807Y032800D02*
Y035000D01*
X021893Y030670D02*
Y032800D01*
X028374D02*
X029193D01*
X025940D02*
X026760D01*
X025957Y030670D02*
X026820D01*
X023507D02*
X024343D01*
X023507Y032800D02*
X024326D01*
X035136Y028470D02*
X035300Y028306D01*
Y026200D02*
Y028306D01*
X034250Y025150D02*
X035300Y026200D01*
X033524Y031830D02*
X034250D01*
X032050Y030356D02*
X033524Y031830D01*
X029629Y029619D02*
Y030670D01*
X029180Y029170D02*
X029629Y029619D01*
X029180Y028360D02*
Y029170D01*
X033290Y028504D02*
X033324Y028470D01*
X024796Y035010D02*
X024806Y035000D01*
X028180Y027610D02*
Y028360D01*
X024520Y035010D02*
X024796D01*
X024330Y034820D02*
X024520Y035010D01*
G54D36*
X024950Y022600D02*
Y026449D01*
X024450Y022100D02*
X024950Y022600D01*
X024450Y019606D02*
Y022100D01*
X025800Y019700D02*
Y020750D01*
X025750Y019650D02*
X025800Y019700D01*
X025150Y019650D02*
X025750D01*
X025800Y020750D02*
X025950Y020900D01*
X026956Y021006D02*
Y021450D01*
X026850Y020900D02*
X026956Y021006D01*
X025950Y020900D02*
X026850D01*
X024650Y028750D02*
X024900Y029000D01*
X024650Y026749D02*
Y028750D01*
Y026749D02*
X024950Y026449D01*
X024900Y029000D02*
X025650D01*
Y029300*
X025560Y026720D02*
Y027149D01*
Y026720D02*
X025785Y026495D01*
X028750Y035000D02*
Y035450D01*
Y035000D02*
X029193D01*
X028374D02*
X028750D01*
X019700Y029650D02*
X020300D01*
X019700D02*
Y030999D01*
X019937Y031864D02*
Y032418D01*
X019779Y031706D02*
X019937Y031864D01*
X019779Y031078D02*
Y031706D01*
X019700Y030999D02*
X019779Y031078D01*
X022773Y036658D02*
X023124Y037010D01*
X023410*
X022638Y036658D02*
X022773D01*
X021608Y035628D02*
X022638Y036658D01*
X021608Y035493D02*
Y035628D01*
X021257Y035143D02*
X021608Y035493D01*
X021257Y034920D02*
Y035143D01*
X020772Y034434D02*
X021257Y034920D01*
X020772Y034124D02*
Y034434D01*
X020435Y033788D02*
X020772Y034124D01*
X020435Y033393D02*
Y033788D01*
X020156Y033114D02*
X020435Y033393D01*
X020156Y032638D02*
Y033114D01*
X019937Y032418D02*
X020156Y032638D01*
X024390Y036834D02*
X024410Y036854D01*
X024420Y037070D02*
X024650Y037300D01*
X024420Y036844D02*
Y037070D01*
X025200Y018856D02*
X025650D01*
X024450Y019606D02*
X025200Y018856D01*
X055550Y032400D02*
Y036300D01*
Y030800D02*
Y032400D01*
Y029200D02*
Y030800D01*
Y036300D02*
Y040250D01*
X056350Y041050*
X056700Y036000D02*
X057850D01*
X056350Y036350D02*
X056700Y036000D01*
X056350Y036350D02*
Y039850D01*
X056750Y040250*
X056350Y041050D02*
X065550D01*
X065880Y040720*
Y039670D02*
Y040720D01*
X046278Y024900D02*
X048200D01*
X048300Y025465D02*
X048900D01*
X047285Y026135D02*
X048300D01*
X048900*
X047150Y026000D02*
X047285Y026135D01*
X047150Y025800D02*
Y026000D01*
X043453Y024435D02*
X044035D01*
X044050Y024419*
X048200Y024900D02*
X048300Y025000D01*
Y025465*
X046028Y024650D02*
X046278Y024900D01*
X038350Y027250D02*
X039185D01*
X039250Y027700D02*
X039450Y027900D01*
X038350Y029250D02*
X038650Y029550D01*
X039150*
Y030850*
X042415Y028150D02*
D01*
X042315Y028050D02*
X042415Y028150D01*
X042000Y028050D02*
X042315D01*
X039185Y027250D02*
X039235Y027200D01*
X039250D02*
Y027700D01*
X039235Y027200D02*
X039250D01*
X042415Y027435D02*
Y028150D01*
Y027435D02*
X043015D01*
X043315Y027135*
X048000Y021035D02*
X048600D01*
X047985Y021050D02*
X048000Y021035D01*
X047985Y021050D02*
X048000Y021065D01*
Y021600*
X049200Y023050D02*
X049700D01*
X049900Y023250*
Y025750*
X048900Y026135D02*
X049515D01*
X049900Y025750*
X042400Y024050D02*
Y026765D01*
Y024050D02*
X042800Y023650D01*
X043700*
X043800Y023750*
X044050*
X043350Y030650D02*
X043500D01*
X043530Y037830D02*
X044290D01*
X043830Y036830D02*
X044290D01*
X043050Y036050D02*
X043830Y036830D01*
X046661Y031187D02*
X047200D01*
X043315Y024572D02*
Y025200D01*
Y025900*
Y026750*
Y027135*
Y024572D02*
X043453Y024435D01*
X039750Y026700D02*
X039785Y026665D01*
X039250Y027200D02*
X039550D01*
X039750Y027000*
Y026700D02*
Y027000D01*
X040024Y025750D02*
Y026641D01*
X040000Y026665D02*
X040024Y026641D01*
X039785Y026665D02*
X040000D01*
X042250Y031200D02*
Y031450D01*
X043050Y032250*
Y036050*
X042050Y032800D02*
X042250Y032600D01*
X042050Y032800D02*
Y036350D01*
X043530Y037830*
X043500Y030650D02*
X044150Y031300D01*
X044250Y032450D02*
X044600Y032800D01*
X044250Y031700D02*
Y032450D01*
X044150Y031600D02*
X044250Y031700D01*
X044150Y031300D02*
Y031600D01*
X028471Y022800D02*
X029310D01*
X029330Y022780*
X027500Y023015D02*
X027805D01*
X028020Y022800*
X028471*
X027500Y023685D02*
X028450D01*
X028471Y023705*
X028226Y021894D02*
X028471D01*
X027720Y022400D02*
X028226Y021894D01*
X027385Y022400D02*
X027720D01*
X027385Y022165D02*
Y022400D01*
X026956Y021736D02*
X027385Y022165D01*
X026956Y021450D02*
Y021736D01*
X026715Y022400D02*
X026750Y022435D01*
X025144Y021450D02*
Y022014D01*
X025530Y022400D02*
X026715D01*
X023410Y037010D02*
X023894Y037494D01*
X024142*
X024479Y037831*
X026481*
X029500Y037850D02*
X030090D01*
X030390Y037550*
X030735*
X025785Y026495D02*
X026440D01*
X026750Y023336D02*
X027099Y023685D01*
X027500*
X026750Y022435D02*
Y023336D01*
X025144Y022014D02*
X025530Y022400D01*
X026440Y026495D02*
Y026940D01*
X026550Y027050*
X027050*
X058650Y040250D02*
X059150Y039750D01*
X056750Y040250D02*
X058650D01*
X059480Y038670D02*
X062880D01*
X059150Y039000D02*
X059480Y038670D01*
X059150Y039000D02*
Y039750D01*
X065880Y039670D02*
X067730D01*
X067750Y039650*
X069250Y037900D02*
X069485Y038135D01*
Y038650*
X068000Y021900D02*
X070026D01*
X070050Y021876*
X044035Y024435D02*
X044240D01*
X044455Y024650*
X046028*
X071535Y022700D02*
X072200D01*
X069485Y038650D02*
X071750D01*
X072200Y022700D02*
X072950Y023450D01*
Y037450*
X071750Y038650D02*
X072950Y037450D01*
X062880Y038220D02*
Y038670D01*
Y038220D02*
X063200Y037900D01*
X069250*
G54D37*
X029310Y037850D02*
X029500D01*
G54D38*
X025125Y020850D03*
G54D39*
X025775Y022100D03*
G54D40*
X025600Y026350D03*
G54D41*
X025925Y026750D03*
G54D42*
X030275Y022625D03*
G54D43*
X039197Y030155D03*
G54D44*
X038420Y026010D03*
G54D45*
X025150Y019650D03*
X023800D03*
X020600Y032850D03*
X020300Y029650D03*
X024650Y037300D03*
X025650Y029300D03*
X064050Y035400D03*
X055550Y036300D03*
X062657Y033323D03*
X067972Y030255D03*
X062657Y027186D03*
X062050Y037000D03*
X056300Y033050D03*
Y031233D03*
Y029415D03*
X029700Y023675D03*
Y022900D03*
Y022125D03*
Y021350D03*
X030600D03*
Y022125D03*
Y022900D03*
Y023675D03*
X048000Y021600D03*
X050350Y020350D03*
X045900Y027300D03*
X043100Y031187D03*
X044350Y028150D03*
Y022550D03*
X042250Y032600D03*
X047600D03*
X042250Y031187D03*
X047200D03*
X043315Y026750D03*
X042400Y024450D03*
X051200Y023050D03*
Y028350D03*
Y034000D03*
X046450Y029900D03*
X046724Y035300D03*
X047850Y023070D03*
X028750Y035450D03*
X030150Y026330D03*
X031450Y036150D03*
X025530Y025690D03*
X030340Y025060D03*
X025940Y023560D03*
X025950Y020900D03*
X025144Y022024D03*
X027050Y027050D03*
X028773Y025577D03*
X046550Y028500D03*
X046549Y027300D03*
X046550Y029050D03*
X040650Y034020D03*
X056450Y041050D03*
X071280Y039670D03*
X072250Y021950D03*
X058650Y021395D03*
G54D46*
X021750Y025150D03*
X034250D03*
Y031830D03*
G54D47*
X026500Y036850D03*
Y019120D03*
X044290Y036830D03*
X044310Y019120D03*
X062880Y038670D03*
X062900Y020920D03*
G54D48*
X026500Y037850D03*
X027500Y036850D03*
Y037850D03*
X028500Y036850D03*
Y037850D03*
X029500Y036850D03*
Y037850D03*
X026500Y020120D03*
X027500Y019120D03*
Y020120D03*
X028500Y019120D03*
Y020120D03*
X029500Y019120D03*
Y020120D03*
X049200Y024050D03*
Y023050D03*
X044290Y037830D03*
X045290Y036830D03*
Y037830D03*
X046290Y036830D03*
Y037830D03*
X047290Y036830D03*
Y037830D03*
X044310Y020120D03*
X045310Y019120D03*
Y020120D03*
X046310Y019120D03*
Y020120D03*
X047310Y019120D03*
Y020120D03*
X038350Y029250D03*
Y028250D03*
X062880Y039670D03*
X063880Y038670D03*
Y039670D03*
X064880Y038670D03*
Y039670D03*
X065880Y038670D03*
Y039670D03*
X062900Y021920D03*
X063900Y020920D03*
Y021920D03*
X064900Y020920D03*
Y021920D03*
X065900Y020920D03*
Y021920D03*
X057850Y036000D03*
Y037000D03*
Y038000D03*
Y039000D03*
X067750Y039650D03*
G54D49*
X049200Y022050D03*
X038350Y027250D03*
X057850Y035000D03*
X067750Y038650D03*
G54D50*
X029180Y028360D03*
G54D51*
X028180Y028360D03*
X027180D03*
G54D52*
X068000Y022900D03*
Y021900D03*
Y020900D03*
M02*