%FSDAX24Y24*%
%MOIN*%
%SFA1B1*%

%IPPOS*%
%ADD12R,0.106300X0.063000*%
%ADD13R,0.043300X0.039400*%
%ADD14R,0.039400X0.043300*%
%ADD15R,0.051200X0.059100*%
%ADD16R,0.059100X0.051200*%
%ADD17R,0.082700X0.072800*%
%ADD18R,0.057100X0.021700*%
%ADD19R,0.072800X0.082700*%
%ADD53R,0.063000X0.106300*%
%ADD54R,0.027600X0.055100*%
%ADD55R,0.027600X0.051200*%
%ADD56O,0.080700X0.023600*%
%ADD57R,0.086600X0.129900*%
%ADD58R,0.086600X0.039400*%
%LNde-180417-1*%
%LPD*%
G36*
X027404Y026659D02*
Y025833D01*
X027188Y025616*
X026912*
X026696Y025833*
Y026659*
X026912Y026876*
X027188*
X027404Y026659*
G37*
G54D12*
X028150Y023349D03*
Y024451D03*
Y022501D03*
Y021399D03*
G54D13*
X023865Y020910D03*
X024535D03*
X060485Y039150D03*
X059815D03*
X023865Y021536D03*
X024535D03*
G54D14*
X030640Y028835D03*
Y028165D03*
X030030D03*
Y028835D03*
X026450Y028365D03*
Y027695D03*
X056300Y031800D03*
Y032470D03*
Y029983D03*
Y030652D03*
Y028165D03*
Y028835D03*
G54D15*
X060524Y039850D03*
X059776D03*
X021716Y028680D03*
X022464D03*
X023206D03*
X023954D03*
G54D16*
X020900Y027946D03*
Y028694D03*
X027840Y034706D03*
Y035454D03*
X027850Y033994D03*
Y033246D03*
X026510Y033496D03*
Y034244D03*
X025440Y036016D03*
Y036764D03*
G54D17*
X035256Y028500D03*
X033444D03*
G54D18*
X024859Y020140D03*
X023934D03*
Y022380D03*
X024859D03*
G54D19*
X020300Y030344D03*
Y032156D03*
X032050Y030356D03*
Y028544D03*
X025120Y026704D03*
Y028516D03*
G54D53*
X027051Y022850D03*
X025949D03*
X027051Y024250D03*
X025949D03*
X027061Y021600D03*
X025959D03*
G54D54*
X027641Y025380D03*
X026459D03*
G54D55*
X027050Y025360D03*
G54D56*
X059245Y037000D03*
Y037500D03*
Y038000D03*
Y038500D03*
X061155Y037000D03*
Y037500D03*
Y038000D03*
Y038500D03*
G54D57*
X022119Y031070D03*
X022919Y034220D03*
G54D58*
X024481Y030164D03*
Y031070D03*
Y031976D03*
X025281Y033314D03*
Y034220D03*
Y035126D03*
M02*