%FSDAX24Y24*%
%MOIN*%
%SFA1B1*%

%IPPOS*%
%ADD70R,0.114300X0.071000*%
%ADD71R,0.051300X0.047400*%
%ADD72R,0.047400X0.051300*%
%ADD73R,0.059200X0.067100*%
%ADD74R,0.067100X0.059200*%
%ADD75R,0.090700X0.080800*%
%ADD76R,0.065100X0.029700*%
%ADD77R,0.080800X0.090700*%
%ADD78R,0.118000X0.158000*%
%ADD79R,0.029700X0.065100*%
%ADD80R,0.039500X0.039500*%
%ADD81R,0.031600X0.059200*%
%ADD82R,0.059200X0.031600*%
%ADD83R,0.071000X0.141900*%
%ADD84R,0.069000X0.051300*%
%ADD85R,0.069000X0.051300*%
%ADD86R,0.069000X0.143800*%
%ADD87O,0.021800X0.078900*%
%ADD88R,0.067800X0.032000*%
%ADD89O,0.067800X0.032000*%
%ADD90C,0.039500*%
%ADD91C,0.401700*%
%ADD92R,0.067100X0.067100*%
%ADD93C,0.067100*%
%ADD94R,0.067100X0.067100*%
%ADD95R,0.074900X0.074900*%
%ADD96C,0.074900*%
%ADD97C,0.068000*%
%ADD98C,0.008000*%
%LNde-180417-1*%
%LPD*%
G54D70*
X025500Y027099D03*
Y028201D03*
G54D71*
X027385Y022400D03*
X026715D03*
X028105Y024920D03*
X027435D03*
X045991Y031187D03*
X046661D03*
X045311D03*
X044641D03*
X047985Y021050D03*
X047315D03*
X043315Y025900D03*
X043985D03*
X043085Y028150D03*
X042415D03*
Y028750D03*
X043085D03*
X043315Y025200D03*
X043985D03*
X031405Y037550D03*
X030735D03*
X068815Y038650D03*
X069485D03*
X068815Y039250D03*
X069485D03*
X070865Y022700D03*
X071535D03*
G54D72*
X027500Y023015D03*
Y023685D03*
X042400Y026765D03*
Y027435D03*
X039250Y026515D03*
Y027185D03*
X047700Y025465D03*
Y026135D03*
X044050Y024419D03*
Y023750D03*
X048900Y025465D03*
Y026135D03*
X048300Y025465D03*
Y026135D03*
X027080Y026495D03*
Y025825D03*
X047026Y031902D03*
Y032571D03*
X026440Y026495D03*
Y025825D03*
X025160Y036135D03*
Y036805D03*
X046176Y031902D03*
Y032571D03*
X045800Y035885D03*
Y035215D03*
X049800Y021035D03*
Y020365D03*
X049200Y021035D03*
Y020365D03*
X048600Y021035D03*
Y020365D03*
X040250Y027335D03*
Y026665D03*
X039950Y030715D03*
Y031385D03*
X048450Y036615D03*
Y037285D03*
G54D73*
X040024Y025750D03*
X039276D03*
G54D74*
X043350Y024374D03*
Y023626D03*
X024420Y036844D03*
Y036096D03*
X070050Y022624D03*
Y021876D03*
G54D75*
X026956Y021450D03*
X025144D03*
X033444Y028500D03*
X035256D03*
G54D76*
X026713Y024910D03*
X025787D03*
X030787Y036860D03*
X031713D03*
G54D77*
X032050Y028544D03*
Y030356D03*
G54D78*
X027095Y030700D03*
X029905D03*
G54D79*
X030850Y026263D03*
Y025337D03*
G54D80*
X057900Y031705D03*
Y032295D03*
Y030080D03*
Y030670D03*
Y028455D03*
Y029045D03*
G54D81*
X027726Y025577D03*
X028474D03*
X028100Y026403D03*
X046950Y034400D03*
X046202D03*
X046576Y033573D03*
X045450Y034400D03*
X044702D03*
X045076Y033573D03*
X045450Y032750D03*
X044702D03*
X045076Y031923D03*
X029176Y025487D03*
X029924D03*
X029550Y026313D03*
G54D82*
X043363Y029426D03*
Y030174D03*
X042537Y029800D03*
X038337Y031374D03*
Y030626D03*
X039163Y031000D03*
G54D83*
X026593Y035000D03*
X028207D03*
X029293D03*
X030907D03*
X030807Y032800D03*
X029193D03*
X028374D03*
X026760D03*
X025940D03*
X024326D03*
X023507D03*
X021893D03*
Y030700D03*
X023507D03*
X024343D03*
X025957D03*
G54D84*
X028471Y023705D03*
G54D85*
X028471Y022800D03*
Y021894D03*
G54D86*
X031129Y022800D03*
G54D87*
X047052Y025922D03*
X046796D03*
X046540D03*
X046284D03*
X046028D03*
X045772D03*
X045516D03*
X045260D03*
X045004D03*
X044748D03*
X047052Y023678D03*
X046796D03*
X046540D03*
X046284D03*
X046028D03*
X045772D03*
X045516D03*
X045260D03*
X045004D03*
X044748D03*
G54D88*
X041650Y028050D03*
G54D89*
X041650Y028550D03*
Y029050D03*
Y029550D03*
X039485Y028050D03*
Y028550D03*
Y029050D03*
Y029550D03*
G54D90*
X025150Y019650D03*
X023800D03*
X020600Y032850D03*
X020300Y029650D03*
X024650Y037300D03*
X025650Y029300D03*
X064050Y035400D03*
X055550Y036300D03*
X062657Y033323D03*
X067972Y030255D03*
X062657Y027186D03*
X062050Y037000D03*
X056300Y033050D03*
Y031233D03*
Y029415D03*
X029700Y023675D03*
Y022900D03*
Y022125D03*
Y021350D03*
X030600D03*
Y022125D03*
Y022900D03*
Y023675D03*
X048000Y021600D03*
X050350Y020350D03*
X045900Y027300D03*
X043100Y031187D03*
X044350Y028150D03*
Y022550D03*
X042250Y032600D03*
X047600D03*
X042250Y031187D03*
X047200D03*
X043315Y026750D03*
X042400Y024450D03*
X051200Y023050D03*
Y028350D03*
Y034000D03*
X046450Y029900D03*
X046724Y035300D03*
X047850Y023070D03*
X028750Y035450D03*
X030150Y026330D03*
X031450Y036150D03*
X025530Y025690D03*
X030340Y025060D03*
X025940Y023560D03*
X025950Y020900D03*
X025144Y022024D03*
X027050Y027050D03*
X028773Y025577D03*
X046550Y028500D03*
X046549Y027300D03*
X046550Y029050D03*
X040650Y034020D03*
X056450Y041050D03*
X071280Y039670D03*
X072250Y021950D03*
X058650Y021395D03*
G54D91*
X021750Y025150D03*
X034250D03*
Y031830D03*
G54D92*
X026500Y036850D03*
Y019120D03*
X044290Y036830D03*
X044310Y019120D03*
X062880Y038670D03*
X062900Y020920D03*
G54D93*
X026500Y037850D03*
X027500Y036850D03*
Y037850D03*
X028500Y036850D03*
Y037850D03*
X029500Y036850D03*
Y037850D03*
X026500Y020120D03*
X027500Y019120D03*
Y020120D03*
X028500Y019120D03*
Y020120D03*
X029500Y019120D03*
Y020120D03*
X049200Y024050D03*
Y023050D03*
X044290Y037830D03*
X045290Y036830D03*
Y037830D03*
X046290Y036830D03*
Y037830D03*
X047290Y036830D03*
Y037830D03*
X044310Y020120D03*
X045310Y019120D03*
Y020120D03*
X046310Y019120D03*
Y020120D03*
X047310Y019120D03*
Y020120D03*
X038350Y029250D03*
Y028250D03*
X062880Y039670D03*
X063880Y038670D03*
Y039670D03*
X064880Y038670D03*
Y039670D03*
X065880Y038670D03*
Y039670D03*
X062900Y021920D03*
X063900Y020920D03*
Y021920D03*
X064900Y020920D03*
Y021920D03*
X065900Y020920D03*
Y021920D03*
X057850Y036000D03*
Y037000D03*
Y038000D03*
Y039000D03*
X067750Y039650D03*
G54D94*
X049200Y022050D03*
X038350Y027250D03*
X057850Y035000D03*
X067750Y038650D03*
G54D95*
X029180Y028360D03*
G54D96*
X028180Y028360D03*
X027180D03*
G54D97*
X068000Y022900D03*
Y021900D03*
Y020900D03*
G54D98*
X054750Y029950D03*
Y029450D03*
Y028950D03*
Y028450D03*
Y027950D03*
Y027450D03*
Y026950D03*
X036920Y026990D03*
Y027490D03*
Y027990D03*
Y028490D03*
Y028990D03*
Y029490D03*
Y029990D03*
M02*