%FSDAX24Y24*%
%MOIN*%
%SFA1B1*%

%IPPOS*%
%ADD12R,0.106300X0.063000*%
%ADD13R,0.043300X0.039400*%
%ADD14R,0.039400X0.043300*%
%ADD15R,0.051200X0.059100*%
%ADD16R,0.059100X0.051200*%
%ADD17R,0.082700X0.072800*%
%ADD18R,0.057100X0.021700*%
%ADD19R,0.072800X0.082700*%
%ADD20R,0.110000X0.150000*%
%ADD21R,0.021700X0.057100*%
%ADD22R,0.031500X0.031500*%
%ADD23R,0.023600X0.051200*%
%ADD24R,0.051200X0.023600*%
%ADD25R,0.063000X0.133900*%
%ADD26R,0.061000X0.043300*%
%ADD27R,0.061000X0.043300*%
%ADD28R,0.061000X0.135800*%
%ADD29O,0.013800X0.070900*%
%ADD30R,0.059800X0.024000*%
%ADD31O,0.059800X0.024000*%
%LNde-180417-1*%
%LPD*%
G54D12*
X025500Y027099D03*
Y028201D03*
G54D13*
X027385Y022400D03*
X026715D03*
X028105Y024920D03*
X027435D03*
X045991Y031187D03*
X046661D03*
X045311D03*
X044641D03*
X047985Y021050D03*
X047315D03*
X043315Y025900D03*
X043985D03*
X043085Y028150D03*
X042415D03*
Y028750D03*
X043085D03*
X043315Y025200D03*
X043985D03*
X031405Y037550D03*
X030735D03*
X068815Y038650D03*
X069485D03*
X068815Y039250D03*
X069485D03*
X070865Y022700D03*
X071535D03*
G54D14*
X027500Y023015D03*
Y023685D03*
X042400Y026765D03*
Y027435D03*
X039250Y026515D03*
Y027185D03*
X047700Y025465D03*
Y026135D03*
X044050Y024419D03*
Y023750D03*
X048900Y025465D03*
Y026135D03*
X048300Y025465D03*
Y026135D03*
X027080Y026495D03*
Y025825D03*
X047026Y031902D03*
Y032571D03*
X026440Y026495D03*
Y025825D03*
X025160Y036135D03*
Y036805D03*
X046176Y031902D03*
Y032571D03*
X045800Y035885D03*
Y035215D03*
X049800Y021035D03*
Y020365D03*
X049200Y021035D03*
Y020365D03*
X048600Y021035D03*
Y020365D03*
X040250Y027335D03*
Y026665D03*
X039950Y030715D03*
Y031385D03*
X048450Y036615D03*
Y037285D03*
G54D15*
X040024Y025750D03*
X039276D03*
G54D16*
X043350Y024374D03*
Y023626D03*
X024420Y036844D03*
Y036096D03*
X070050Y022624D03*
Y021876D03*
G54D17*
X026956Y021450D03*
X025144D03*
X033444Y028500D03*
X035256D03*
G54D18*
X026713Y024910D03*
X025787D03*
X030787Y036860D03*
X031713D03*
G54D19*
X032050Y028544D03*
Y030356D03*
G54D20*
X027095Y030700D03*
X029905D03*
G54D21*
X030850Y026263D03*
Y025337D03*
G54D22*
X057900Y031705D03*
Y032295D03*
Y030080D03*
Y030670D03*
Y028455D03*
Y029045D03*
G54D23*
X027726Y025577D03*
X028474D03*
X028100Y026403D03*
X046950Y034400D03*
X046202D03*
X046576Y033573D03*
X045450Y034400D03*
X044702D03*
X045076Y033573D03*
X045450Y032750D03*
X044702D03*
X045076Y031923D03*
X029176Y025487D03*
X029924D03*
X029550Y026313D03*
G54D24*
X043363Y029426D03*
Y030174D03*
X042537Y029800D03*
X038337Y031374D03*
Y030626D03*
X039163Y031000D03*
G54D25*
X026593Y035000D03*
X028207D03*
X029293D03*
X030907D03*
X030807Y032800D03*
X029193D03*
X028374D03*
X026760D03*
X025940D03*
X024326D03*
X023507D03*
X021893D03*
Y030700D03*
X023507D03*
X024343D03*
X025957D03*
G54D26*
X028471Y023705D03*
G54D27*
X028471Y022800D03*
Y021894D03*
G54D28*
X031129Y022800D03*
G54D29*
X047052Y025922D03*
X046796D03*
X046540D03*
X046284D03*
X046028D03*
X045772D03*
X045516D03*
X045260D03*
X045004D03*
X044748D03*
X047052Y023678D03*
X046796D03*
X046540D03*
X046284D03*
X046028D03*
X045772D03*
X045516D03*
X045260D03*
X045004D03*
X044748D03*
G54D30*
X041650Y028050D03*
G54D31*
X041650Y028550D03*
Y029050D03*
Y029550D03*
X039485Y028050D03*
Y028550D03*
Y029050D03*
Y029550D03*
M02*