%FSDAX24Y24*%
%MOIN*%
%SFA1B1*%

%IPPOS*%
%ADD9500C,0.015700*%
%ADD9501C,0.030000*%
%ADD9502C,0.035400*%
%ADD9503C,0.039400*%
%ADD9504C,0.043300*%
%ADD9505C,0.295300*%
%LNde-180417-1*%
%LPD*%
G54D9500*
X062657Y027186D03*
X067972Y030255D03*
X072250Y021950D03*
X058650Y021395D03*
X051200Y023050D03*
X047850Y023070D03*
X048000Y021600D03*
X050350Y020350D03*
X051200Y028350D03*
X056300Y029415D03*
Y031233D03*
X047200Y031187D03*
X046450Y029900D03*
X046550Y029050D03*
Y028500D03*
X046549Y027300D03*
X045900D03*
X044350Y028150D03*
X043315Y026750D03*
X042400Y024450D03*
X044350Y022550D03*
X043100Y031187D03*
X042250D03*
X030150Y026330D03*
X030340Y025060D03*
X030600Y023675D03*
Y022900D03*
Y022125D03*
Y021350D03*
X029700D03*
Y022125D03*
Y022900D03*
Y023675D03*
X028773Y025577D03*
X027050Y027050D03*
X025530Y025690D03*
X025940Y023560D03*
X025144Y022024D03*
X025950Y020900D03*
X025150Y019650D03*
X023800D03*
X025650Y029300D03*
X020300Y029650D03*
X020600Y032850D03*
X024650Y037300D03*
X028750Y035450D03*
X031450Y036150D03*
X040650Y034020D03*
X042250Y032600D03*
X046724Y035300D03*
X047600Y032600D03*
X051200Y034000D03*
X056300Y033050D03*
X055550Y036300D03*
X056450Y041050D03*
X062050Y037000D03*
X064050Y035400D03*
X062657Y033323D03*
X071280Y039670D03*
G54D9501*
X068000Y020900D03*
Y021900D03*
Y022900D03*
G54D9502*
X062900Y020920D03*
X063900D03*
X064900D03*
X065900D03*
Y021920D03*
X064900D03*
X063900D03*
X062900D03*
X049200Y022050D03*
Y023050D03*
Y024050D03*
X047310Y020120D03*
Y019120D03*
X046310D03*
Y020120D03*
X045310D03*
Y019120D03*
X044310D03*
Y020120D03*
X038350Y027250D03*
Y028250D03*
Y029250D03*
X029500Y020120D03*
Y019120D03*
X028500D03*
Y020120D03*
X027500D03*
Y019120D03*
X026500D03*
Y020120D03*
Y036850D03*
X027500D03*
X028500D03*
X029500D03*
Y037850D03*
X028500D03*
X027500D03*
X026500D03*
X044290Y037830D03*
X045290D03*
X046290D03*
Y036830D03*
X045290D03*
X044290D03*
X047290D03*
Y037830D03*
X057850Y038000D03*
Y039000D03*
Y037000D03*
Y036000D03*
Y035000D03*
X062880Y038670D03*
X063880D03*
X064880D03*
X065880D03*
Y039670D03*
X064880D03*
X063880D03*
X062880D03*
X067750Y039650D03*
Y038650D03*
G54D9503*
X054750Y026950D03*
Y027450D03*
Y027950D03*
Y028450D03*
Y028950D03*
Y029450D03*
Y029950D03*
X036920Y029990D03*
Y029490D03*
Y028990D03*
Y028490D03*
Y027990D03*
Y027490D03*
Y026990D03*
G54D9504*
X027180Y028360D03*
X028180D03*
X029180D03*
G54D9505*
X034250Y025150D03*
X021750D03*
X034250Y031830D03*
M02*